SplineFontDB: 3.0
FontName: Michroma
FullName: Michroma
FamilyName: Michroma
Weight: Book
Copyright: 
Version: 1.000
ItalicAngle: 0
UnderlinePosition: -103
UnderlineWidth: 102
Ascent: 1638
Descent: 410
InvalidEm: 0
sfntRevision: 0x00010000
LayerCount: 2
Layer: 0 1 "Back" 1
Layer: 1 1 "Fore" 0
XUID: [1021 823 301787212 7475719]
FSType: 0
OS2Version: 2
OS2_WeightWidthSlopeOnly: 0
OS2_UseTypoMetrics: 1
CreationTime: 1390146436
ModificationTime: 1503768290
PfmFamily: 81
TTFWeight: 400
TTFWidth: 5
LineGap: 0
VLineGap: 0
Panose: 0 0 0 0 0 0 0 0 0 0
OS2TypoAscent: 2368
OS2TypoAOffset: 0
OS2TypoDescent: -544
OS2TypoDOffset: 0
OS2TypoLinegap: 0
OS2WinAscent: 2368
OS2WinAOffset: 0
OS2WinDescent: 544
OS2WinDOffset: 0
HheadAscent: 2368
HheadAOffset: 0
HheadDescent: -544
HheadDOffset: 0
OS2SubXSize: 1434
OS2SubYSize: 1331
OS2SubXOff: 0
OS2SubYOff: 287
OS2SupXSize: 1434
OS2SupYSize: 1331
OS2SupXOff: 0
OS2SupYOff: 977
OS2StrikeYSize: 102
OS2StrikeYPos: 512
OS2Vendor: 'newt'
OS2CodePages: 20000111.40000000
OS2UnicodeRanges: 800000af.7800204b.14000000.00000000
Lookup: 258 0 0 "'kern' Horizontal Kerning in Latin lookup 0" { "'kern' Horizontal Kerning in Latin lookup 0 per glyph data 0"  "'kern' Horizontal Kerning in Latin lookup 0 per glyph data 1"  "'kern' Horizontal Kerning in Latin lookup 0 kerning class 2"  } ['kern' ('latn' <'dflt' > ) ]
MarkAttachClasses: 1
DEI: 91125
KernClass2: 8+ 3 "'kern' Horizontal Kerning in Latin lookup 0 kerning class 2"
 1 T
 1 Y
 3 m n
 1 K
 1 L
 1 P
 1 V
 7 b e o p
 13 a c d e g o q
 5 v w y
 0 {} -512 {} 0 {} 0 {} -512 {} 0 {} 0 {} 0 {} -64 {} 0 {} -128 {} 0 {} 0 {} -128 {} 0 {} 0 {} -64 {} 0 {} 0 {} -256 {} 0 {} 0 {} 0 {} -64 {}
LangName: 1033 "vernon adams" "" "Regular" "1.000;pyrs;Michroma" "" "Version 1.000" "" "" "" "" "" "" "" "" "" "" "" "" "Michroma"
GaspTable: 1 65535 3 0
Encoding: Custom
Compacted: 1
UnicodeInterp: none
NameList: AGL For New Fonts
DisplaySize: -48
AntiAlias: 1
FitToEm: 1
WinInfo: 0 32 12
BeginPrivate: 9

StartChar: exclam
Encoding: 2 33 2
Width: 448
GlyphClass: 2
Flags: MW
LayerCount: 2
Fore
SplineSet
128 1536 m 1,0,-1
 320 1536 l 1,1,-1
 272 448 l 1,2,-1
 176 448 l 1,3,-1
 128 1536 l 1,0,-1
320 0 m 1,4,-1
 128 0 l 1,5,-1
 128 192 l 1,6,-1
 320 192 l 1,7,-1
 320 0 l 1,4,-1
EndSplineSet
Validated: 1
EndChar

StartChar: quotedbl
Encoding: 3 34 3
Width: 768
GlyphClass: 2
Flags: MW
LayerCount: 2
Fore
SplineSet
128 1536 m 1,0,-1
 320 1536 l 1,1,-1
 288 1152 l 1,2,-1
 160 1152 l 1,3,-1
 128 1536 l 1,0,-1
448 1536 m 1,4,-1
 640 1536 l 1,5,-1
 608 1152 l 1,6,-1
 480 1152 l 1,7,-1
 448 1536 l 1,4,-1
EndSplineSet
Validated: 1
EndChar

StartChar: numbersign
Encoding: 4 35 4
Width: 1536
GlyphClass: 2
Flags: MW
LayerCount: 2
Fore
SplineSet
835 320 m 1,0,-1
 526 320 l 1,1,-1
 415 -128 l 1,2,-1
 255 -80 l 1,3,-1
 354 320 l 1,4,-1
 128 320 l 1,5,-1
 128 480 l 1,6,-1
 393 480 l 1,7,-1
 489 864 l 1,8,-1
 192 864 l 1,9,-1
 192 1024 l 1,10,-1
 528 1024 l 1,11,-1
 640 1472 l 1,12,-1
 800 1424 l 1,13,-1
 700 1024 l 1,14,-1
 1009 1024 l 1,15,-1
 1121 1472 l 1,16,-1
 1281 1424 l 1,17,-1
 1181 1024 l 1,18,-1
 1408 1024 l 1,19,-1
 1408 864 l 1,20,-1
 1142 864 l 1,21,-1
 1046 480 l 1,22,-1
 1344 480 l 1,23,-1
 1344 320 l 1,24,-1
 1007 320 l 1,25,-1
 896 -128 l 1,26,-1
 736 -80 l 1,27,-1
 835 320 l 1,0,-1
565 480 m 1,28,-1
 874 480 l 1,29,-1
 970 864 l 1,30,-1
 661 864 l 1,31,-1
 565 480 l 1,28,-1
EndSplineSet
Validated: 1
EndChar

StartChar: dollar
Encoding: 5 36 5
Width: 2018
GlyphClass: 2
Flags: MW
LayerCount: 2
Fore
SplineSet
913 -36 m 1,0,-1
 832 -36 l 2,1,2
 415 -36 415 -36 265 66 c 0,3,4
 192 116 192 116 160.5 190.5 c 128,-1,5
 129 265 129 265 129 384 c 1,6,-1
 321 384 l 1,7,8
 321 294 321 294 346.5 243 c 128,-1,9
 372 192 372 192 433 166 c 128,-1,10
 494 140 494 140 590 134 c 0,11,12
 688 128 688 128 832 128 c 2,13,-1
 913 128 l 1,14,-1
 913 704 l 1,15,-1
 896 704 l 2,16,17
 405 704 405 704 248 816 c 0,18,19
 179 865 179 865 153.5 937.5 c 128,-1,20
 128 1010 128 1010 128 1130 c 0,21,22
 128 1251 128 1251 163 1325.5 c 128,-1,23
 198 1400 198 1400 280 1453 c 0,24,25
 450 1562 450 1562 913 1568 c 1,26,-1
 913 1664 l 1,27,-1
 1105 1664 l 1,28,-1
 1105 1568 l 1,29,-1
 1152 1568 l 2,30,31
 1565 1568 1565 1568 1720 1468 c 0,32,33
 1793 1420 1793 1420 1824.5 1345 c 128,-1,34
 1856 1270 1856 1270 1856 1152 c 1,35,-1
 1664 1152 l 1,36,37
 1664 1242 1664 1242 1638.5 1293 c 128,-1,38
 1613 1344 1613 1344 1552 1370 c 128,-1,39
 1491 1396 1491 1396 1394 1402 c 0,40,41
 1296 1408 1296 1408 1152 1408 c 2,42,-1
 1105 1408 l 1,43,-1
 1105 864 l 1,44,-1
 1160 864 l 2,45,46
 1606 864 1606 864 1745 749 c 0,47,48
 1809 696 1809 696 1832.5 621 c 128,-1,49
 1856 546 1856 546 1856 424 c 0,50,51
 1856 272 1856 272 1799 180 c 0,52,53
 1697 18 1697 18 1367 -21 c 0,54,55
 1255 -34 1255 -34 1105 -36 c 1,56,-1
 1105 -128 l 1,57,-1
 913 -128 l 1,58,-1
 913 -36 l 1,0,-1
913 864 m 1,59,-1
 913 1408 l 1,60,61
 569 1403 569 1403 448 1349 c 0,62,63
 320 1292 320 1292 320 1144 c 0,64,65
 320 1018 320 1018 348 980 c 0,66,67
 381 935 381 935 420 917 c 128,-1,68
 459 899 459 899 546 882 c 0,69,70
 638 864 638 864 896 864 c 2,71,-1
 913 864 l 1,59,-1
1105 704 m 1,72,-1
 1105 128 l 1,73,74
 1419 129 1419 129 1544 195 c 0,75,76
 1606 228 1606 228 1635 282 c 128,-1,77
 1664 336 1664 336 1664 424 c 0,78,79
 1664 511 1664 511 1644 563 c 128,-1,80
 1624 615 1624 615 1572 645 c 0,81,82
 1471 704 1471 704 1160 704 c 2,83,-1
 1105 704 l 1,72,-1
EndSplineSet
Validated: 1
EndChar

StartChar: percent
Encoding: 6 37 6
Width: 2500
GlyphClass: 2
Flags: MW
LayerCount: 2
Fore
SplineSet
1364 436 m 260,0,1
 1364 621 1364 621 1430.5 719.5 c 132,-1,2
 1497 818 1497 818 1647 848 c 4,3,4
 1748 868 1748 868 1892 868 c 4,5,6
 1973 868 1973 868 2035.5 862.5 c 132,-1,7
 2098 857 2098 857 2158 842.5 c 132,-1,8
 2218 828 2218 828 2261.5 803.5 c 132,-1,9
 2305 779 2305 779 2338.5 739 c 132,-1,10
 2372 699 2372 699 2391 645 c 4,11,12
 2420 561 2420 561 2420 436 c 4,13,14
 2420 251 2420 251 2353 152.5 c 132,-1,15
 2286 54 2286 54 2136 24 c 4,16,17
 2036 4 2036 4 1892 4 c 4,18,19
 1811 4 1811 4 1748 9.5 c 132,-1,20
 1685 15 1685 15 1625 29.5 c 132,-1,21
 1565 44 1565 44 1521.5 68.5 c 132,-1,22
 1478 93 1478 93 1444.5 133 c 132,-1,23
 1411 173 1411 173 1392 227 c 4,24,25
 1364 311 1364 311 1364 436 c 260,0,1
1892 717 m 260,26,27
 1850 717 1850 717 1822 716 c 4,28,29
 1796 716 1796 716 1761 713 c 132,-1,30
 1726 710 1726 710 1704 706 c 4,31,32
 1682 701 1682 701 1657 691 c 4,33,34
 1632 682 1632 682 1616 669 c 4,35,36
 1600 655 1600 655 1586 635 c 132,-1,37
 1572 615 1572 615 1563 589 c 4,38,39
 1546 532 1546 532 1546 455 c 4,40,41
 1546 410 1546 410 1546 389 c 4,42,43
 1547 367 1547 367 1550 334 c 4,44,45
 1553 300 1553 300 1559 281 c 132,-1,46
 1565 262 1565 262 1576 242 c 4,47,48
 1588 220 1588 220 1605 206 c 4,49,50
 1630 186 1630 186 1667 175 c 4,51,52
 1735 155 1735 155 1862 155 c 4,53,54
 1986 155 1986 155 2055 163 c 4,55,56
 2109 169 2109 169 2145 188 c 4,57,58
 2181 208 2181 208 2201 243 c 4,59,60
 2221 279 2221 279 2229 324 c 4,61,62
 2237 370 2237 370 2237 436 c 132,-1,63
 2237 502 2237 502 2229 548 c 4,64,65
 2221 593 2221 593 2201 629 c 132,-1,66
 2181 665 2181 665 2145 684 c 132,-1,67
 2109 703 2109 703 2055 709 c 4,68,69
 1986 717 1986 717 1892 717 c 260,26,27
80 1102 m 260,70,71
 80 1287 80 1287 147 1385.5 c 132,-1,72
 214 1484 214 1484 364 1514 c 4,73,74
 464 1534 464 1534 608 1534 c 4,75,76
 689 1534 689 1534 752 1528.5 c 132,-1,77
 815 1523 815 1523 875 1508.5 c 132,-1,78
 935 1494 935 1494 978.5 1469.5 c 132,-1,79
 1022 1445 1022 1445 1055.5 1405 c 132,-1,80
 1089 1365 1089 1365 1108 1311 c 4,81,82
 1136 1227 1136 1227 1136 1102 c 4,83,84
 1136 917 1136 917 1069.5 818.5 c 132,-1,85
 1003 720 1003 720 853 690 c 4,86,87
 752 670 752 670 608 670 c 4,88,89
 527 670 527 670 464.5 675.5 c 132,-1,90
 402 681 402 681 342 695.5 c 132,-1,91
 282 710 282 710 238.5 734.5 c 132,-1,92
 195 759 195 759 161.5 799 c 132,-1,93
 128 839 128 839 109 893 c 4,94,95
 80 977 80 977 80 1102 c 260,70,71
608 1383 m 260,96,97
 566 1383 566 1383 539 1382 c 4,98,99
 513 1382 513 1382 478 1379 c 132,-1,100
 443 1376 443 1376 421 1372 c 4,101,102
 399 1367 399 1367 374 1357 c 4,103,104
 349 1348 349 1348 333 1335 c 4,105,106
 317 1321 317 1321 303 1301 c 132,-1,107
 289 1281 289 1281 280 1255 c 4,108,109
 263 1198 263 1198 263 1121 c 4,110,111
 263 1076 263 1076 263 1055 c 4,112,113
 264 1033 264 1033 267 1000 c 4,114,115
 270 966 270 966 276 947 c 132,-1,116
 282 928 282 928 293 908 c 4,117,118
 305 886 305 886 322 872 c 4,119,120
 347 852 347 852 384 841 c 4,121,122
 452 821 452 821 579 821 c 4,123,124
 703 821 703 821 772 829 c 4,125,126
 826 835 826 835 862 854 c 4,127,128
 898 874 898 874 918 909 c 4,129,130
 938 945 938 945 946 990 c 4,131,132
 954 1036 954 1036 954 1102 c 132,-1,133
 954 1168 954 1168 946 1214 c 4,134,135
 938 1259 938 1259 918 1295 c 132,-1,136
 898 1331 898 1331 862 1350 c 132,-1,137
 826 1369 826 1369 772 1375 c 4,138,139
 702 1383 702 1383 608 1383 c 260,96,97
806 0 m 5,140,-1
 1510 1536 l 5,141,-1
 1702 1536 l 5,142,-1
 998 0 l 5,143,-1
 806 0 l 5,140,-1
EndSplineSet
Validated: 1
EndChar

StartChar: ampersand
Encoding: 7 38 7
Width: 2432
GlyphClass: 2
Flags: MW
LayerCount: 2
Fore
SplineSet
854 1569 m 0,0,1
 882 1569 882 1569 951 1568.5 c 128,-1,2
 1020 1568 1020 1568 1066 1568 c 2,3,-1
 1160 1568 l 2,4,5
 1246 1568 1246 1568 1304 1566 c 128,-1,6
 1362 1564 1362 1564 1437.5 1556 c 128,-1,7
 1513 1548 1513 1548 1564 1533 c 128,-1,8
 1615 1518 1615 1518 1662 1489.5 c 128,-1,9
 1709 1461 1709 1461 1735 1421 c 0,10,11
 1792 1332 1792 1332 1792 1120 c 1,12,-1
 1600 1120 l 1,13,14
 1600 1274 1600 1274 1561.5 1328 c 128,-1,15
 1523 1382 1523 1382 1401 1397 c 0,16,17
 1308 1408 1308 1408 1096 1408 c 0,18,19
 880 1408 880 1408 782 1405 c 0,20,21
 734 1404 734 1404 698 1400 c 128,-1,22
 662 1396 662 1396 625 1385 c 128,-1,23
 588 1374 588 1374 564.5 1356.5 c 128,-1,24
 541 1339 541 1339 526.5 1309 c 128,-1,25
 512 1279 512 1279 512 1239 c 0,26,27
 512 1191 512 1191 519 1167.5 c 128,-1,28
 526 1144 526 1144 546 1117 c 0,29,30
 583 1069 583 1069 672 1024 c 2,31,-1
 2304 192 l 1,32,-1
 2240 32 l 1,33,-1
 640 833 l 1,34,35
 484 833 484 833 402 752.5 c 128,-1,36
 320 672 320 672 320 515 c 0,37,38
 320 393 320 393 351 326.5 c 128,-1,39
 382 260 382 260 464 232 c 0,40,41
 518 213 518 213 604 204 c 0,42,43
 718 192 718 192 967 192 c 0,44,45
 1184 192 1184 192 1316 194 c 0,46,47
 1466 196 1466 196 1557 213 c 128,-1,48
 1648 230 1648 230 1699 286 c 0,49,50
 1760 353 1760 353 1760 512 c 2,51,-1
 1760 768 l 1,52,-1
 1952 768 l 1,53,-1
 1952 704 l 2,54,55
 1952 378 1952 378 1899 248 c 0,56,57
 1838 99 1838 99 1653 46 c 0,58,59
 1491 0 1491 0 1088 0 c 0,60,61
 668 0 668 0 546 16 c 0,62,63
 423 32 423 32 347.5 61.5 c 128,-1,64
 272 91 272 91 220 152 c 0,65,66
 128 262 128 262 128 512 c 0,67,68
 128 666 128 666 188.5 772 c 128,-1,69
 249 878 249 878 360 929 c 0,70,71
 426 960 426 960 480 960 c 1,72,73
 397 1015 397 1015 358.5 1070.5 c 128,-1,74
 320 1126 320 1126 320 1219 c 0,75,76
 320 1290 320 1290 339 1346 c 128,-1,77
 358 1402 358 1402 394.5 1439.5 c 128,-1,78
 431 1477 431 1477 477.5 1503 c 128,-1,79
 524 1529 524 1529 587 1543 c 128,-1,80
 650 1557 650 1557 713.5 1563 c 128,-1,81
 777 1569 777 1569 854 1569 c 0,0,1
EndSplineSet
Validated: 5
EndChar

StartChar: quotesingle
Encoding: 8 39 8
AltUni2: 0002bc.ffffffff.0
Width: 448
GlyphClass: 2
Flags: MW
LayerCount: 2
Fore
SplineSet
128 1536 m 1,0,-1
 320 1536 l 1,1,-1
 288 1152 l 1,2,-1
 160 1152 l 1,3,-1
 128 1536 l 1,0,-1
EndSplineSet
Validated: 1
EndChar

StartChar: parenleft
Encoding: 9 40 9
Width: 768
GlyphClass: 2
Flags: MW
LayerCount: 2
Fore
SplineSet
640 -64 m 1,0,1
 296 -64 296 -64 192 208 c 0,2,3
 136 357 136 357 130 573 c 0,4,5
 128 639 128 639 128 768 c 0,6,7
 128 1032 128 1032 144 1138 c 0,8,9
 161 1251 161 1251 192.5 1330.5 c 128,-1,10
 224 1410 224 1410 280 1470 c 0,11,12
 403 1600 403 1600 640 1600 c 1,13,-1
 640 1440 l 1,14,15
 484 1440 484 1440 414 1366 c 0,16,17
 326 1274 326 1274 322 974 c 0,18,19
 320 850 320 850 320 768 c 0,20,21
 320 491 320 491 330 408 c 0,22,23
 339 328 339 328 357 273.5 c 128,-1,24
 375 219 375 219 409.5 177 c 128,-1,25
 444 135 444 135 500.5 115.5 c 128,-1,26
 557 96 557 96 640 96 c 1,27,-1
 640 -64 l 1,0,1
EndSplineSet
Validated: 1
EndChar

StartChar: parenright
Encoding: 10 41 10
Width: 768
GlyphClass: 2
Flags: MW
LayerCount: 2
Fore
SplineSet
128 96 m 1,0,1
 284 96 284 96 354 170 c 0,2,3
 442 262 442 262 446 562 c 0,4,5
 448 686 448 686 448 768 c 0,6,7
 448 1045 448 1045 438 1128 c 0,8,9
 429 1208 429 1208 411 1262.5 c 128,-1,10
 393 1317 393 1317 358.5 1359 c 128,-1,11
 324 1401 324 1401 267.5 1420.5 c 128,-1,12
 211 1440 211 1440 128 1440 c 1,13,-1
 128 1600 l 1,14,15
 472 1600 472 1600 576 1328 c 0,16,17
 632 1179 632 1179 638 963 c 0,18,19
 640 897 640 897 640 768 c 0,20,21
 640 504 640 504 624 398 c 0,22,23
 607 285 607 285 575.5 205.5 c 128,-1,24
 544 126 544 126 488 66 c 0,25,26
 365 -64 365 -64 128 -64 c 1,27,-1
 128 96 l 1,0,1
EndSplineSet
Validated: 1
EndChar

StartChar: asterisk
Encoding: 11 42 11
Width: 1415
GlyphClass: 2
Flags: MW
LayerCount: 2
Fore
SplineSet
420 384 m 1,0,-1
 264 495 l 1,1,-1
 628 896 l 1,2,-1
 128 1072 l 1,3,-1
 228 1250 l 1,4,-1
 660 992 l 1,5,-1
 612 1536 l 1,6,-1
 804 1536 l 1,7,-1
 756 992 l 1,8,-1
 1187 1250 l 1,9,-1
 1287 1072 l 1,10,-1
 788 896 l 1,11,-1
 1152 495 l 1,12,-1
 996 384 l 1,13,-1
 708 834 l 1,14,-1
 420 384 l 1,0,-1
EndSplineSet
Validated: 1
EndChar

StartChar: plus
Encoding: 12 43 12
Width: 1344
GlyphClass: 2
Flags: MW
LayerCount: 2
Fore
SplineSet
128 960 m 1,0,-1
 576 960 l 1,1,-1
 576 1408 l 1,2,-1
 768 1408 l 1,3,-1
 768 960 l 1,4,-1
 1216 960 l 1,5,-1
 1216 800 l 1,6,-1
 768 800 l 1,7,-1
 768 320 l 1,8,-1
 576 320 l 1,9,-1
 576 800 l 1,10,-1
 128 800 l 1,11,-1
 128 960 l 1,0,-1
EndSplineSet
Validated: 1
EndChar

StartChar: comma
Encoding: 13 44 13
Width: 448
GlyphClass: 2
Flags: MW
LayerCount: 2
Fore
SplineSet
128 128 m 1,0,-1
 320 128 l 1,1,-1
 192 -256 l 1,2,-1
 64 -256 l 1,3,-1
 128 128 l 1,0,-1
EndSplineSet
Validated: 1
EndChar

StartChar: hyphen
Encoding: 14 45 14
AltUni2: 002015.ffffffff.0
Width: 1024
GlyphClass: 2
Flags: MW
LayerCount: 2
Fore
SplineSet
128 672 m 1,0,-1
 896 672 l 1,1,-1
 896 512 l 1,2,-1
 128 512 l 1,3,-1
 128 672 l 1,0,-1
EndSplineSet
Validated: 1
EndChar

StartChar: period
Encoding: 15 46 15
Width: 448
GlyphClass: 2
Flags: MW
LayerCount: 2
Fore
SplineSet
320 0 m 1,0,-1
 128 0 l 1,1,-1
 128 192 l 1,2,-1
 320 192 l 1,3,-1
 320 0 l 1,0,-1
EndSplineSet
Validated: 1
EndChar

StartChar: slash
Encoding: 16 47 16
AltUni2: 002215.ffffffff.0
Width: 1023
GlyphClass: 2
Flags: MW
LayerCount: 2
Fore
SplineSet
768 1536 m 1,0,-1
 960 1536 l 1,1,-1
 256 0 l 1,2,-1
 64 0 l 1,3,-1
 768 1536 l 1,0,-1
EndSplineSet
Validated: 1
EndChar

StartChar: zero
Encoding: 17 48 17
Width: 2048
GlyphClass: 2
Flags: MW
LayerCount: 2
Fore
SplineSet
1217 1568 m 2,0,1
 1559 1568 1559 1568 1712 1482 c 0,2,3
 1816 1424 1816 1424 1863 1308.5 c 128,-1,4
 1910 1193 1910 1193 1916 1016 c 0,5,6
 1920 866 1920 866 1920 768 c 2,7,-1
 1920 712 l 2,8,9
 1920 576 1920 576 1916.5 497.5 c 128,-1,10
 1913 419 1913 419 1892.5 322.5 c 128,-1,11
 1872 226 1872 226 1832 164 c 0,12,13
 1790 97 1790 97 1712 54 c 0,14,15
 1559 -32 1559 -32 1217 -32 c 2,16,-1
 832 -32 l 2,17,18
 490 -32 490 -32 337 54 c 0,19,20
 232 112 232 112 184.5 228 c 128,-1,21
 137 344 137 344 132 520 c 0,22,23
 129 632 129 632 129 768 c 2,24,-1
 129 843 l 2,25,26
 129 1040 129 1040 144.5 1162.5 c 128,-1,27
 160 1285 160 1285 216 1372 c 0,28,29
 258 1438 258 1438 337 1482 c 0,30,31
 490 1568 490 1568 832 1568 c 2,32,-1
 1217 1568 l 2,0,1
1217 128 m 2,33,34
 1480 128 1480 128 1576 166 c 0,35,36
 1634 190 1634 190 1664.5 232.5 c 128,-1,37
 1695 275 1695 275 1709 346 c 0,38,39
 1728 440 1728 440 1728 768 c 128,-1,40
 1728 1096 1728 1096 1712 1177 c 0,41,42
 1696 1257 1696 1257 1666.5 1301 c 128,-1,43
 1637 1345 1637 1345 1576 1370 c 0,44,45
 1482 1408 1482 1408 1217 1408 c 2,46,-1
 832 1408 l 2,47,48
 568 1408 568 1408 472 1370 c 0,49,50
 414 1346 414 1346 383.5 1303.5 c 128,-1,51
 353 1261 353 1261 339 1190 c 0,52,53
 321 1098 321 1098 321 768 c 0,54,55
 321 446 321 446 338 359 c 0,56,57
 354 278 354 278 382.5 234.5 c 128,-1,58
 411 191 411 191 472 166 c 0,59,60
 568 128 568 128 832 128 c 2,61,-1
 1217 128 l 2,33,34
EndSplineSet
Validated: 1
EndChar

StartChar: one
Encoding: 18 49 18
Width: 992
GlyphClass: 2
Flags: MW
LayerCount: 2
Fore
SplineSet
608 1536 m 1,0,-1
 864 1536 l 1,1,-1
 864 0 l 1,2,-1
 672 0 l 1,3,-1
 672 1376 l 1,4,-1
 224 992 l 1,5,-1
 128 1120 l 1,6,-1
 608 1536 l 1,0,-1
EndSplineSet
Validated: 1
EndChar

StartChar: two
Encoding: 19 50 19
Width: 1984
GlyphClass: 2
Flags: MW
LayerCount: 2
Fore
SplineSet
128 192 m 2,0,1
 128 291 128 291 135.5 362.5 c 128,-1,2
 143 434 143 434 164 498 c 128,-1,3
 185 562 185 562 220.5 603 c 128,-1,4
 256 644 256 644 312.5 670.5 c 128,-1,5
 369 697 369 697 448 704 c 2,6,-1
 1472 800 l 2,7,8
 1527 804 1527 804 1560.5 815 c 128,-1,9
 1594 826 1594 826 1616 852 c 0,10,11
 1663 908 1663 908 1663 1087 c 0,12,13
 1663 1248 1663 1248 1611.5 1313 c 128,-1,14
 1560 1378 1560 1378 1417 1396 c 0,15,16
 1322 1408 1322 1408 1085 1408 c 128,-1,17
 848 1408 848 1408 728 1402 c 0,18,19
 650 1398 650 1398 600 1392 c 128,-1,20
 550 1386 550 1386 493.5 1371.5 c 128,-1,21
 437 1357 437 1357 400.5 1328 c 128,-1,22
 364 1299 364 1299 346 1256 c 0,23,24
 320 1196 320 1196 320 1044 c 2,25,-1
 320 992 l 1,26,-1
 128 992 l 1,27,28
 128 1255 128 1255 221.5 1383 c 128,-1,29
 315 1511 315 1511 536 1547 c 0,30,31
 666 1568 666 1568 1024 1568 c 0,32,33
 1356 1568 1356 1568 1469 1548 c 0,34,35
 1583 1529 1583 1529 1651 1500 c 128,-1,36
 1719 1471 1719 1471 1768 1412 c 0,37,38
 1856 1306 1856 1306 1856 1088 c 0,39,40
 1856 872 1856 872 1784 764.5 c 128,-1,41
 1712 657 1712 657 1536 640 c 2,42,-1
 512 544 l 2,43,44
 441 538 441 538 401.5 518.5 c 128,-1,45
 362 499 362 499 343 454 c 0,46,47
 325 411 325 411 322 339 c 0,48,49
 320 292 320 292 320 160 c 1,50,-1
 1824 160 l 1,51,-1
 1824 0 l 1,52,-1
 128 0 l 1,53,-1
 128 192 l 2,0,1
EndSplineSet
Validated: 1
EndChar

StartChar: three
Encoding: 20 51 20
Width: 1984
GlyphClass: 2
Flags: MW
LayerCount: 2
Fore
SplineSet
1696 784 m 1,0,1
 1785 746 1785 746 1820.5 660 c 128,-1,2
 1856 574 1856 574 1856 428 c 0,3,4
 1856 131 1856 131 1656 40 c 0,5,6
 1592 10 1592 10 1496 -7 c 0,7,8
 1355 -32 1355 -32 1024 -32 c 0,9,10
 661 -32 661 -32 550 -16 c 0,11,12
 435 0 435 0 360 30 c 128,-1,13
 285 60 285 60 232 118 c 0,14,15
 128 232 128 232 128 480 c 1,16,-1
 320 480 l 1,17,18
 320 441 320 441 320 422 c 128,-1,19
 320 403 320 403 322 371.5 c 128,-1,20
 324 340 324 340 327 323 c 128,-1,21
 330 306 330 306 336.5 282.5 c 128,-1,22
 343 259 343 259 352 244.5 c 128,-1,23
 361 230 361 230 375 215.5 c 128,-1,24
 389 201 389 201 408 190 c 0,25,26
 451 165 451 165 528 152 c 0,27,28
 663 128 663 128 908 128 c 0,29,30
 1119 128 1119 128 1249 130 c 0,31,32
 1318 131 1318 131 1362.5 134 c 128,-1,33
 1407 137 1407 137 1460 145.5 c 128,-1,34
 1513 154 1513 154 1550.5 173.5 c 128,-1,35
 1588 193 1588 193 1611 223 c 0,36,37
 1663 290 1663 290 1663 449 c 128,-1,38
 1663 608 1663 608 1616 661 c 0,39,40
 1579 704 1579 704 1472 704 c 2,41,-1
 768 704 l 1,42,-1
 768 864 l 1,43,-1
 1472 864 l 2,44,45
 1586 864 1586 864 1624.5 912.5 c 128,-1,46
 1663 961 1663 961 1663 1087 c 0,47,48
 1663 1248 1663 1248 1611.5 1313 c 128,-1,49
 1560 1378 1560 1378 1417 1396 c 0,50,51
 1322 1408 1322 1408 1085 1408 c 0,52,53
 835 1408 835 1408 728 1404 c 0,54,55
 648 1401 648 1401 602 1397.5 c 128,-1,56
 556 1394 556 1394 500.5 1382.5 c 128,-1,57
 445 1371 445 1371 408 1352 c 0,58,59
 349 1321 349 1321 334.5 1263.5 c 128,-1,60
 320 1206 320 1206 320 1088 c 1,61,-1
 128 1088 l 1,62,63
 128 1315 128 1315 224 1420 c 128,-1,64
 320 1525 320 1525 536 1552 c 0,65,66
 664 1568 664 1568 1024 1568 c 0,67,68
 1356 1568 1356 1568 1469 1548 c 0,69,70
 1583 1529 1583 1529 1651 1500 c 128,-1,71
 1719 1471 1719 1471 1768 1412 c 0,72,73
 1856 1306 1856 1306 1856 1088 c 0,74,75
 1856 955 1856 955 1819 888 c 128,-1,76
 1782 821 1782 821 1696 784 c 1,0,1
EndSplineSet
Validated: 1
EndChar

StartChar: four
Encoding: 21 52 21
Width: 2048
GlyphClass: 2
Flags: MW
LayerCount: 2
Fore
SplineSet
1664 320 m 1,0,-1
 1664 0 l 1,1,-1
 1472 0 l 1,2,-1
 1472 320 l 1,3,-1
 128 320 l 1,4,-1
 128 512 l 1,5,-1
 1408 1536 l 1,6,-1
 1664 1536 l 1,7,-1
 1664 480 l 1,8,-1
 1920 480 l 1,9,-1
 1920 320 l 1,10,-1
 1664 320 l 1,0,-1
1472 480 m 1,11,-1
 1472 1408 l 1,12,-1
 320 480 l 1,13,-1
 1472 480 l 1,11,-1
EndSplineSet
Validated: 1
EndChar

StartChar: five
Encoding: 22 53 22
Width: 1984
GlyphClass: 2
Flags: MW
LayerCount: 2
Fore
SplineSet
1280 1056 m 2,0,1
 1646 1056 1646 1056 1760 928 c 0,2,3
 1818 863 1818 863 1837 761 c 128,-1,4
 1856 659 1856 659 1856 498 c 0,5,6
 1856 157 1856 157 1656 52 c 0,7,8
 1588 16 1588 16 1496 -2 c 0,9,10
 1349 -32 1349 -32 1024 -32 c 0,11,12
 661 -32 661 -32 550 -16 c 0,13,14
 435 0 435 0 360 30 c 128,-1,15
 285 60 285 60 232 118 c 0,16,17
 128 232 128 232 128 480 c 1,18,-1
 320 480 l 1,19,20
 320 441 320 441 320 422 c 128,-1,21
 320 403 320 403 322 371.5 c 128,-1,22
 324 340 324 340 327 323 c 128,-1,23
 330 306 330 306 336.5 282.5 c 128,-1,24
 343 259 343 259 352 244.5 c 128,-1,25
 361 230 361 230 375 215.5 c 128,-1,26
 389 201 389 201 408 190 c 0,27,28
 451 165 451 165 528 152 c 0,29,30
 663 128 663 128 908 128 c 0,31,32
 1119 128 1119 128 1249 130 c 0,33,34
 1392 133 1392 133 1480 155.5 c 128,-1,35
 1568 178 1568 178 1612 244 c 0,36,37
 1664 323 1664 323 1664 482 c 0,38,39
 1664 541 1664 541 1663 575.5 c 128,-1,40
 1662 610 1662 610 1658.5 655.5 c 128,-1,41
 1655 701 1655 701 1647.5 728 c 128,-1,42
 1640 755 1640 755 1626.5 785 c 128,-1,43
 1613 815 1613 815 1592.5 832.5 c 128,-1,44
 1572 850 1572 850 1543 864 c 128,-1,45
 1514 878 1514 878 1475 884 c 0,46,47
 1400 896 1400 896 1280 896 c 2,48,-1
 768 896 l 2,49,50
 424 896 424 896 354 802 c 0,51,52
 332 773 332 773 320 736 c 1,53,-1
 128 736 l 1,54,-1
 128 1536 l 1,55,-1
 1792 1536 l 1,56,-1
 1792 1376 l 1,57,-1
 320 1376 l 1,58,-1
 320 896 l 1,59,60
 375 1007 375 1007 604 1044 c 0,61,62
 673 1056 673 1056 768 1056 c 2,63,-1
 1280 1056 l 2,0,1
EndSplineSet
Validated: 1
EndChar

StartChar: six
Encoding: 23 54 23
Width: 1984
GlyphClass: 2
Flags: MW
LayerCount: 2
Fore
SplineSet
320 832 m 1,0,1
 479 928 479 928 832 928 c 2,2,-1
 1153 928 l 2,3,4
 1565 928 1565 928 1720 808 c 0,5,6
 1793 751 1793 751 1824.5 664.5 c 128,-1,7
 1856 578 1856 578 1856 448 c 128,-1,8
 1856 318 1856 318 1824.5 231.5 c 128,-1,9
 1793 145 1793 145 1720 88 c 0,10,11
 1566 -32 1566 -32 1153 -32 c 2,12,-1
 832 -32 l 2,13,14
 490 -32 490 -32 336 54 c 0,15,16
 232 111 232 111 185 227 c 128,-1,17
 138 343 138 343 132 520 c 0,18,19
 128 670 128 670 128 772 c 2,20,-1
 128 824 l 2,21,22
 128 930 128 930 130.5 993.5 c 128,-1,23
 133 1057 133 1057 142.5 1137.5 c 128,-1,24
 152 1218 152 1218 174 1278 c 128,-1,25
 196 1338 196 1338 232 1384 c 0,26,27
 281 1447 281 1447 374 1488 c 0,28,29
 557 1568 557 1568 960 1568 c 0,30,31
 1459 1568 1459 1568 1640 1452 c 0,32,33
 1721 1400 1721 1400 1756 1322 c 128,-1,34
 1791 1244 1791 1244 1791 1120 c 1,35,-1
 1632 1120 l 1,36,37
 1632 1206 1632 1206 1610.5 1249 c 128,-1,38
 1589 1292 1589 1292 1536 1324 c 0,39,40
 1492 1350 1492 1350 1418 1369 c 0,41,42
 1265 1408 1265 1408 1035 1408 c 0,43,44
 818 1408 818 1408 698 1403 c 0,45,46
 623 1399 623 1399 571 1390.5 c 128,-1,47
 519 1382 519 1382 471.5 1363 c 128,-1,48
 424 1344 424 1344 394 1309.5 c 128,-1,49
 364 1275 364 1275 348 1223 c 0,50,51
 320 1132 320 1132 320 832 c 1,0,1
832 768 m 2,52,53
 600 768 600 768 528 756 c 0,54,55
 461 745 461 745 423 730 c 128,-1,56
 385 715 385 715 360 682 c 0,57,58
 320 628 320 628 320 531 c 0,59,60
 320 360 320 360 358.5 274.5 c 128,-1,61
 397 189 397 189 512 156 c 0,62,63
 609 128 609 128 832 128 c 2,64,-1
 1153 128 l 2,65,66
 1377 128 1377 128 1460 148 c 0,67,68
 1582 178 1582 178 1623 237.5 c 128,-1,69
 1664 297 1664 297 1664 448 c 0,70,71
 1664 586 1664 586 1638 632 c 0,72,73
 1612 679 1612 679 1577.5 703.5 c 128,-1,74
 1543 728 1543 728 1484 742 c 0,75,76
 1375 768 1375 768 1153 768 c 2,77,-1
 832 768 l 2,52,53
EndSplineSet
Validated: 1
EndChar

StartChar: seven
Encoding: 24 55 24
Width: 1984
GlyphClass: 2
Flags: MW
LayerCount: 2
Fore
SplineSet
704 0 m 1,0,-1
 448 0 l 1,1,-1
 1632 1376 l 1,2,-1
 128 1376 l 1,3,-1
 128 1536 l 1,4,-1
 1856 1536 l 1,5,-1
 1856 1344 l 1,6,-1
 704 0 l 1,0,-1
EndSplineSet
Validated: 1
EndChar

StartChar: eight
Encoding: 25 56 25
Width: 1984
GlyphClass: 2
Flags: MW
LayerCount: 2
Fore
SplineSet
1600 816 m 1,0,1
 1735 766 1735 766 1795.5 675.5 c 128,-1,2
 1856 585 1856 585 1856 427 c 0,3,4
 1856 259 1856 259 1790.5 163 c 128,-1,5
 1725 67 1725 67 1591 22 c 0,6,7
 1434 -32 1434 -32 1152 -32 c 2,8,-1
 831 -32 l 2,9,10
 421 -32 421 -32 264 88 c 0,11,12
 128 192 128 192 128 408 c 0,13,14
 128 498 128 498 138.5 554 c 128,-1,15
 149 610 149 610 179 661 c 0,16,17
 239 763 239 763 384 816 c 1,18,19
 201 884 201 884 170 1044 c 0,20,21
 160 1093 160 1093 160 1174 c 0,22,23
 160 1370 160 1370 296 1462 c 0,24,25
 453 1568 453 1568 863 1568 c 2,26,-1
 1121 1568 l 2,27,28
 1531 1568 1531 1568 1688 1462 c 0,29,30
 1824 1370 1824 1370 1824 1174 c 0,31,32
 1824 1022 1824 1022 1772 941 c 128,-1,33
 1720 860 1720 860 1600 816 c 1,0,1
1152 128 m 2,34,35
 1376 128 1376 128 1458 149 c 0,36,37
 1532 168 1532 168 1568.5 188 c 128,-1,38
 1605 208 1605 208 1630 250 c 0,39,40
 1664 310 1664 310 1664 398 c 0,41,42
 1664 516 1664 516 1648.5 573 c 128,-1,43
 1633 630 1633 630 1576 668 c 0,44,45
 1539 692 1539 692 1484 707 c 0,46,47
 1373 736 1373 736 1152 736 c 2,48,-1
 831 736 l 2,49,50
 607 736 607 736 526 714 c 0,51,52
 451 694 451 694 414 673.5 c 128,-1,53
 377 653 377 653 352 610 c 0,54,55
 320 556 320 556 320 464 c 0,56,57
 320 346 320 346 336 288 c 128,-1,58
 352 230 352 230 408 193 c 0,59,60
 441 172 441 172 500 156 c 0,61,62
 612 128 612 128 831 128 c 2,63,-1
 1152 128 l 2,34,35
1152 896 m 2,64,65
 1459 896 1459 896 1548 948 c 0,66,67
 1594 974 1594 974 1613 1020 c 128,-1,68
 1632 1066 1632 1066 1632 1139 c 0,69,70
 1632 1230 1632 1230 1614 1278.5 c 128,-1,71
 1596 1327 1596 1327 1544 1355 c 0,72,73
 1509 1374 1509 1374 1452 1386 c 0,74,75
 1349 1408 1349 1408 1120 1408 c 2,76,-1
 863 1408 l 2,77,78
 637 1408 637 1408 555 1391 c 0,79,80
 446 1368 446 1368 399 1326 c 128,-1,81
 352 1284 352 1284 352 1180 c 128,-1,82
 352 1076 352 1076 368 1026 c 128,-1,83
 384 976 384 976 440 946 c 0,84,85
 474 927 474 927 532 916 c 0,86,87
 638 896 638 896 863 896 c 2,88,-1
 1152 896 l 2,64,65
EndSplineSet
Validated: 1
EndChar

StartChar: nine
Encoding: 26 57 26
Width: 1984
GlyphClass: 2
Flags: MW
LayerCount: 2
Fore
SplineSet
1664 704 m 1,0,1
 1505 608 1505 608 1152 608 c 2,2,-1
 831 608 l 2,3,4
 419 608 419 608 264 728 c 0,5,6
 191 785 191 785 159.5 871.5 c 128,-1,7
 128 958 128 958 128 1088 c 128,-1,8
 128 1218 128 1218 159.5 1304.5 c 128,-1,9
 191 1391 191 1391 264 1448 c 0,10,11
 418 1568 418 1568 831 1568 c 2,12,-1
 1152 1568 l 2,13,14
 1494 1568 1494 1568 1648 1482 c 0,15,16
 1752 1425 1752 1425 1799 1309 c 128,-1,17
 1846 1193 1846 1193 1852 1016 c 0,18,19
 1856 866 1856 866 1856 764 c 2,20,-1
 1856 712 l 2,21,22
 1856 606 1856 606 1853.5 542.5 c 128,-1,23
 1851 479 1851 479 1841.5 398.5 c 128,-1,24
 1832 318 1832 318 1810 258 c 128,-1,25
 1788 198 1788 198 1752 152 c 0,26,27
 1703 89 1703 89 1610 48 c 0,28,29
 1427 -32 1427 -32 1024 -32 c 0,30,31
 525 -32 525 -32 344 84 c 0,32,33
 263 136 263 136 228 214 c 128,-1,34
 193 292 193 292 193 416 c 1,35,-1
 352 416 l 1,36,37
 352 330 352 330 373.5 287 c 128,-1,38
 395 244 395 244 448 212 c 0,39,40
 492 186 492 186 566 167 c 0,41,42
 719 128 719 128 949 128 c 0,43,44
 1166 128 1166 128 1286 133 c 0,45,46
 1361 137 1361 137 1413 145.5 c 128,-1,47
 1465 154 1465 154 1512.5 173 c 128,-1,48
 1560 192 1560 192 1590 226.5 c 128,-1,49
 1620 261 1620 261 1636 313 c 0,50,51
 1664 404 1664 404 1664 704 c 1,0,1
1152 768 m 2,52,53
 1315 768 1315 768 1409 775 c 0,54,55
 1504 782 1504 782 1562 806 c 128,-1,56
 1620 830 1620 830 1643 885 c 0,57,58
 1664 936 1664 936 1664 1040 c 0,59,60
 1664 1150 1664 1150 1642.5 1223 c 128,-1,61
 1621 1296 1621 1296 1566 1336 c 0,62,63
 1504 1382 1504 1382 1408.5 1395 c 128,-1,64
 1313 1408 1313 1408 1152 1408 c 2,65,-1
 831 1408 l 2,66,67
 607 1408 607 1408 524 1388 c 0,68,69
 402 1358 402 1358 361 1298.5 c 128,-1,70
 320 1239 320 1239 320 1088 c 0,71,72
 320 950 320 950 346 904 c 0,73,74
 372 857 372 857 406.5 832.5 c 128,-1,75
 441 808 441 808 500 794 c 0,76,77
 609 768 609 768 831 768 c 2,78,-1
 1152 768 l 2,52,53
EndSplineSet
Validated: 1
EndChar

StartChar: colon
Encoding: 27 58 27
Width: 448
GlyphClass: 2
Flags: MW
LayerCount: 2
Fore
SplineSet
320 768 m 1,0,-1
 128 768 l 1,1,-1
 128 960 l 1,2,-1
 320 960 l 1,3,-1
 320 768 l 1,0,-1
320 192 m 1,4,-1
 128 192 l 1,5,-1
 128 384 l 1,6,-1
 320 384 l 1,7,-1
 320 192 l 1,4,-1
EndSplineSet
Validated: 1
EndChar

StartChar: semicolon
Encoding: 28 59 28
Width: 448
GlyphClass: 2
Flags: MW
LayerCount: 2
Fore
SplineSet
128 512 m 1,0,-1
 320 512 l 1,1,-1
 192 128 l 1,2,-1
 64 128 l 1,3,-1
 128 512 l 1,0,-1
320 768 m 1,4,-1
 128 768 l 1,5,-1
 128 960 l 1,6,-1
 320 960 l 1,7,-1
 320 768 l 1,4,-1
EndSplineSet
Validated: 1
EndChar

StartChar: less
Encoding: 29 60 29
Width: 1152
GlyphClass: 2
Flags: MW
LayerCount: 2
Fore
SplineSet
1024 1472 m 1,0,-1
 1024 1216 l 1,1,-1
 272 832 l 1,2,-1
 1024 448 l 1,3,-1
 1024 192 l 1,4,-1
 128 736 l 1,5,-1
 128 928 l 1,6,-1
 1024 1472 l 1,0,-1
EndSplineSet
Validated: 1
EndChar

StartChar: equal
Encoding: 30 61 30
Width: 1472
GlyphClass: 2
Flags: MW
LayerCount: 2
Fore
SplineSet
128 1024 m 1,0,-1
 1344 1024 l 1,1,-1
 1344 864 l 1,2,-1
 128 864 l 1,3,-1
 128 1024 l 1,0,-1
128 480 m 1,4,-1
 1344 480 l 1,5,-1
 1344 320 l 1,6,-1
 128 320 l 1,7,-1
 128 480 l 1,4,-1
EndSplineSet
Validated: 1
EndChar

StartChar: greater
Encoding: 31 62 31
Width: 1152
GlyphClass: 2
Flags: MW
LayerCount: 2
Fore
SplineSet
1024 928 m 1,0,-1
 1024 736 l 1,1,-1
 128 192 l 1,2,-1
 128 448 l 1,3,-1
 880 832 l 1,4,-1
 128 1216 l 1,5,-1
 128 1472 l 1,6,-1
 1024 928 l 1,0,-1
EndSplineSet
Validated: 1
EndChar

StartChar: question
Encoding: 32 63 32
Width: 1856
GlyphClass: 2
Flags: MW
LayerCount: 2
Fore
SplineSet
1728 1153 m 0,0,1
 1728 955 1728 955 1614.5 845.5 c 128,-1,2
 1501 736 1501 736 1292 736 c 0,3,4
 1233 736 1233 736 1196 734.5 c 128,-1,5
 1159 733 1159 733 1113.5 728 c 128,-1,6
 1068 723 1068 723 1039 712 c 128,-1,7
 1010 701 1010 701 981.5 683.5 c 128,-1,8
 953 666 953 666 936 637.5 c 128,-1,9
 919 609 919 609 910 571 c 0,10,11
 896 512 896 512 896 321 c 1,12,-1
 704 321 l 1,13,-1
 704 387 l 2,14,15
 704 552 704 552 720 616 c 0,16,17
 758 768 758 768 879 832 c 128,-1,18
 1000 896 1000 896 1216 896 c 0,19,20
 1391 896 1391 896 1463 948.5 c 128,-1,21
 1535 1001 1535 1001 1535 1152 c 0,22,23
 1535 1245 1535 1245 1510 1297 c 128,-1,24
 1485 1349 1485 1349 1424 1374 c 0,25,26
 1360 1400 1360 1400 1266 1404 c 0,27,28
 1179 1408 1179 1408 1008 1408 c 0,29,30
 667 1408 667 1408 528 1388 c 0,31,32
 429 1374 429 1374 379.5 1341 c 128,-1,33
 330 1308 330 1308 324 1228 c 0,34,35
 320 1168 320 1168 320 1122 c 1,36,-1
 128 1122 l 1,37,38
 128 1336 128 1336 232 1436 c 0,39,40
 360 1560 360 1560 758 1566 c 0,41,42
 922 1568 922 1568 1008 1568 c 2,43,-1
 1034 1568 l 2,44,45
 1132 1568 1132 1568 1186.5 1567 c 128,-1,46
 1241 1566 1241 1566 1322.5 1559 c 128,-1,47
 1404 1552 1404 1552 1454.5 1538 c 128,-1,48
 1505 1524 1505 1524 1558 1497.5 c 128,-1,49
 1611 1471 1611 1471 1645 1432 c 0,50,51
 1728 1338 1728 1338 1728 1153 c 0,0,1
896 0 m 1,52,-1
 704 0 l 1,53,-1
 704 192 l 1,54,-1
 896 192 l 1,55,-1
 896 0 l 1,52,-1
EndSplineSet
Validated: 1
EndChar

StartChar: at
Encoding: 33 64 33
Width: 2240
GlyphClass: 2
Flags: MW
LayerCount: 2
Fore
SplineSet
840 306 m 0,0,1
 920 288 920 288 1082 288 c 2,2,-1
 1123 288 l 2,3,4
 1199 288 1199 288 1240.5 289.5 c 128,-1,5
 1282 291 1282 291 1334 301.5 c 128,-1,6
 1386 312 1386 312 1418 332 c 0,7,8
 1504 385 1504 385 1504 573 c 0,9,10
 1504 716 1504 716 1458 780 c 128,-1,11
 1412 844 1412 844 1298 856 c 0,12,13
 1220 864 1220 864 1123 864 c 2,14,-1
 1080 864 l 2,15,16
 920 864 920 864 840 846 c 0,17,18
 753 826 753 826 728.5 770.5 c 128,-1,19
 704 715 704 715 704 576 c 0,20,21
 704 438 704 438 722 397 c 0,22,23
 740 357 740 357 766 337 c 128,-1,24
 792 317 792 317 840 306 c 0,0,1
1796 288 m 0,25,26
 1826 288 1826 288 1846.5 292 c 128,-1,27
 1867 296 1867 296 1881 307 c 128,-1,28
 1895 318 1895 318 1902.5 330 c 128,-1,29
 1910 342 1910 342 1914 367.5 c 128,-1,30
 1918 393 1918 393 1919 416 c 128,-1,31
 1920 439 1920 439 1920 480 c 2,32,-1
 1920 768 l 2,33,34
 1920 972 1920 972 1860 1061 c 128,-1,35
 1800 1150 1800 1150 1635 1185 c 0,36,37
 1490 1216 1490 1216 1232 1216 c 0,38,39
 991 1216 991 1216 846 1211 c 0,40,41
 754 1207 754 1207 687 1197.5 c 128,-1,42
 620 1188 620 1188 557.5 1166.5 c 128,-1,43
 495 1145 495 1145 451 1106.5 c 128,-1,44
 407 1068 407 1068 380 1012 c 0,45,46
 321 886 321 886 321 576 c 0,47,48
 321 278 321 278 380 154 c 0,49,50
 430 48 430 48 546.5 1.5 c 128,-1,51
 663 -45 663 -45 846 -56 c 0,52,53
 985 -64 985 -64 1791 -64 c 1,54,-1
 1791 -224 l 1,55,-1
 1152 -224 l 2,56,57
 710 -224 710 -224 488 -138 c 0,58,59
 274 -56 274 -56 194 127 c 0,60,61
 128 277 128 277 128 576 c 0,62,63
 128 918 128 918 194 1068 c 0,64,65
 271 1243 271 1243 488 1310 c 0,66,67
 698 1376 698 1376 1152 1376 c 0,68,69
 1720 1376 1720 1376 1920 1240 c 0,70,71
 1993 1191 1993 1191 2034 1124 c 0,72,73
 2076 1056 2076 1056 2112 480 c 1,74,75
 2112 279 2112 279 2053 208 c 0,76,77
 1987 128 1987 128 1791 128 c 0,78,79
 1685 128 1685 128 1626 175 c 128,-1,80
 1567 222 1567 222 1567 320 c 1,81,82
 1531 241 1531 241 1428 188 c 0,83,84
 1312 128 1312 128 1120 128 c 0,85,86
 1046 128 1046 128 994 130 c 128,-1,87
 942 132 942 132 879.5 137.5 c 128,-1,88
 817 143 817 143 772 155.5 c 128,-1,89
 727 168 727 168 683 187 c 128,-1,90
 639 206 639 206 607.5 236.5 c 128,-1,91
 576 267 576 267 556 307 c 0,92,93
 512 397 512 397 512 576 c 0,94,95
 512 761 512 761 559 852.5 c 128,-1,96
 606 944 606 944 734 984 c 0,97,98
 860 1024 860 1024 1117 1024 c 0,99,100
 1322 1024 1322 1024 1435 944 c 0,101,102
 1483 910 1483 910 1504 864 c 1,103,-1
 1504 992 l 1,104,-1
 1696 992 l 1,105,-1
 1696 480 l 2,106,107
 1696 356 1696 356 1708 329 c 0,108,109
 1720 303 1720 303 1738 295.5 c 128,-1,110
 1756 288 1756 288 1796 288 c 0,25,26
EndSplineSet
Validated: 1
EndChar

StartChar: A
Encoding: 34 65 34
Width: 2176
GlyphClass: 2
Flags: MW
LayerCount: 2
Fore
SplineSet
1696 352 m 1,0,-1
 480 352 l 1,1,-1
 288 0 l 1,2,-1
 64 0 l 1,3,-1
 960 1536 l 1,4,-1
 1216 1536 l 1,5,-1
 2112 0 l 1,6,-1
 1888 0 l 1,7,-1
 1696 352 l 1,0,-1
1600 512 m 1,8,-1
 1088 1408 l 1,9,-1
 576 512 l 1,10,-1
 1600 512 l 1,8,-1
EndSplineSet
Validated: 1
EndChar

StartChar: B
Encoding: 35 66 35
Width: 2112
GlyphClass: 2
Flags: MW
LayerCount: 2
Fore
SplineSet
1473 1536 m 2,0,1
 1595 1536 1595 1536 1675 1520.5 c 128,-1,2
 1755 1505 1755 1505 1812.5 1466 c 128,-1,3
 1870 1427 1870 1427 1895 1359 c 128,-1,4
 1920 1291 1920 1291 1920 1186 c 0,5,6
 1920 1029 1920 1029 1855 935 c 128,-1,7
 1790 841 1790 841 1664 832 c 1,8,9
 1795 824 1795 824 1882 746 c 0,10,11
 1926 706 1926 706 1955 637.5 c 128,-1,12
 1984 569 1984 569 1984 498 c 0,13,14
 1984 350 1984 350 1963.5 264 c 128,-1,15
 1943 178 1943 178 1880 119 c 0,16,17
 1836 78 1836 78 1766 52 c 0,18,19
 1626 0 1626 0 1343 0 c 2,20,-1
 192 0 l 1,21,-1
 192 1536 l 1,22,-1
 1473 1536 l 2,0,1
1279 160 m 2,23,24
 1520 160 1520 160 1595 175 c 0,25,26
 1664 189 1664 189 1699.5 208 c 128,-1,27
 1735 227 1735 227 1758 268 c 0,28,29
 1792 331 1792 331 1792 478 c 0,30,31
 1792 604 1792 604 1754 652.5 c 128,-1,32
 1716 701 1716 701 1612 719 c 0,33,34
 1512 736 1512 736 1279 736 c 2,35,-1
 384 736 l 1,36,-1
 384 160 l 1,37,-1
 1279 160 l 2,23,24
1279 896 m 2,38,39
 1484 896 1484 896 1551 911 c 0,40,41
 1614 925 1614 925 1645.5 942 c 128,-1,42
 1677 959 1677 959 1698 996 c 0,43,44
 1728 1048 1728 1048 1728 1143 c 0,45,46
 1728 1232 1728 1232 1716.5 1274 c 128,-1,47
 1705 1316 1705 1316 1664 1340 c 0,48,49
 1602 1376 1602 1376 1409 1376 c 2,50,-1
 384 1376 l 1,51,-1
 384 896 l 1,52,-1
 1279 896 l 2,38,39
EndSplineSet
Validated: 1
EndChar

StartChar: C
Encoding: 36 67 36
Width: 2111
GlyphClass: 2
Flags: MW
LayerCount: 2
Fore
SplineSet
1791 1056 m 1,0,1
 1791 1174 1791 1174 1766.5 1244 c 128,-1,2
 1742 1314 1742 1314 1679 1352 c 0,3,4
 1636 1378 1636 1378 1570 1391 c 128,-1,5
 1504 1404 1504 1404 1451 1406 c 128,-1,6
 1398 1408 1398 1408 1298 1408 c 2,7,-1
 1280 1408 l 1,8,-1
 831 1408 l 2,9,10
 567 1408 567 1408 471 1370 c 0,11,12
 413 1346 413 1346 382.5 1303.5 c 128,-1,13
 352 1261 352 1261 338 1190 c 0,14,15
 320 1098 320 1098 320 768 c 0,16,17
 320 440 320 440 336 359 c 128,-1,18
 352 278 352 278 381 234.5 c 128,-1,19
 410 191 410 191 471 166 c 0,20,21
 567 128 567 128 831 128 c 2,22,-1
 1280 128 l 2,23,24
 1514 128 1514 128 1590 150 c 0,25,26
 1661 170 1661 170 1698 195 c 128,-1,27
 1735 220 1735 220 1758 270 c 0,28,29
 1791 344 1791 344 1791 512 c 1,30,-1
 1983 512 l 1,31,32
 1983 303 1983 303 1923.5 190 c 128,-1,33
 1864 77 1864 77 1718 24 c 0,34,35
 1565 -32 1565 -32 1280 -32 c 2,36,-1
 831 -32 l 2,37,38
 489 -32 489 -32 336 54 c 0,39,40
 231 112 231 112 183.5 228 c 128,-1,41
 136 344 136 344 131 520 c 0,42,43
 128 632 128 632 128 768 c 2,44,-1
 128 843 l 2,45,46
 128 1038 128 1038 144 1161.5 c 128,-1,47
 160 1285 160 1285 216 1372 c 0,48,49
 258 1439 258 1439 336 1482 c 0,50,51
 489 1568 489 1568 831 1568 c 2,52,-1
 1280 1568 l 2,53,54
 1698 1568 1698 1568 1847 1444 c 0,55,56
 1920 1384 1920 1384 1951.5 1290 c 128,-1,57
 1983 1196 1983 1196 1983 1056 c 1,58,-1
 1791 1056 l 1,0,1
EndSplineSet
Validated: 1
EndChar

StartChar: D
Encoding: 37 68 37
Width: 2176
GlyphClass: 2
Flags: MW
LayerCount: 2
Fore
SplineSet
1343 160 m 2,0,1
 1610 160 1610 160 1684 188 c 0,2,3
 1755 214 1755 214 1787.5 252.5 c 128,-1,4
 1820 291 1820 291 1836 366 c 0,5,6
 1856 460 1856 460 1856 768 c 128,-1,7
 1856 1076 1856 1076 1839 1158 c 0,8,9
 1823 1235 1823 1235 1793 1276 c 128,-1,10
 1763 1317 1763 1317 1703 1340 c 0,11,12
 1609 1376 1609 1376 1343 1376 c 2,13,-1
 384 1376 l 1,14,-1
 384 160 l 1,15,-1
 1343 160 l 2,0,1
192 0 m 1,16,-1
 192 1536 l 1,17,-1
 1343 1536 l 2,18,19
 1683 1536 1683 1536 1838 1453 c 0,20,21
 1943 1397 1943 1397 1990.5 1287 c 128,-1,22
 2038 1177 2038 1177 2044 1006 c 0,23,24
 2048 862 2048 862 2048 768 c 2,25,-1
 2048 716 l 2,26,27
 2048 584 2048 584 2044.5 508 c 128,-1,28
 2041 432 2041 432 2020.5 339.5 c 128,-1,29
 2000 247 2000 247 1960 188 c 0,30,31
 1919 127 1919 127 1838 83 c 0,32,33
 1683 0 1683 0 1343 0 c 2,34,-1
 192 0 l 1,16,-1
EndSplineSet
Validated: 1
EndChar

StartChar: E
Encoding: 38 69 38
Width: 1792
GlyphClass: 2
Flags: MW
LayerCount: 2
Fore
SplineSet
192 0 m 1,0,-1
 192 1536 l 1,1,-1
 1728 1536 l 1,2,-1
 1728 1376 l 1,3,-1
 384 1376 l 1,4,-1
 384 864 l 1,5,-1
 1664 864 l 1,6,-1
 1664 704 l 1,7,-1
 384 704 l 1,8,-1
 384 160 l 1,9,-1
 1728 160 l 1,10,-1
 1728 0 l 1,11,-1
 192 0 l 1,0,-1
EndSplineSet
Validated: 1
EndChar

StartChar: F
Encoding: 39 70 39
Width: 1728
GlyphClass: 2
Flags: MW
LayerCount: 2
Fore
SplineSet
192 0 m 1,0,-1
 192 1536 l 1,1,-1
 1664 1536 l 1,2,-1
 1664 1376 l 1,3,-1
 384 1376 l 1,4,-1
 384 864 l 1,5,-1
 1600 864 l 1,6,-1
 1600 704 l 1,7,-1
 384 704 l 1,8,-1
 384 0 l 1,9,-1
 192 0 l 1,0,-1
EndSplineSet
Validated: 1
EndChar

StartChar: G
Encoding: 40 71 40
Width: 2177
GlyphClass: 2
Flags: MW
LayerCount: 2
Fore
SplineSet
1857 1056 m 1,0,1
 1857 1174 1857 1174 1832.5 1244 c 128,-1,2
 1808 1314 1808 1314 1745 1352 c 0,3,4
 1702 1378 1702 1378 1635.5 1391 c 128,-1,5
 1569 1404 1569 1404 1515.5 1406 c 128,-1,6
 1462 1408 1462 1408 1362 1408 c 2,7,-1
 1345 1408 l 1,8,-1
 831 1408 l 2,9,10
 567 1408 567 1408 471 1370 c 0,11,12
 413 1346 413 1346 382.5 1303.5 c 128,-1,13
 352 1261 352 1261 338 1190 c 0,14,15
 320 1098 320 1098 320 768 c 0,16,17
 320 440 320 440 336 359 c 128,-1,18
 352 278 352 278 381 234.5 c 128,-1,19
 410 191 410 191 471 166 c 0,20,21
 567 128 567 128 831 128 c 2,22,-1
 1346 128 l 2,23,24
 1580 128 1580 128 1656 150 c 0,25,26
 1727 170 1727 170 1764 195 c 128,-1,27
 1801 220 1801 220 1824 270 c 0,28,29
 1857 344 1857 344 1857 512 c 2,30,-1
 1857 608 l 1,31,-1
 1087 608 l 1,32,-1
 1087 768 l 1,33,-1
 2049 768 l 1,34,-1
 2049 512 l 2,35,36
 2049 303 2049 303 1989.5 190 c 128,-1,37
 1930 77 1930 77 1784 24 c 0,38,39
 1631 -32 1631 -32 1346 -32 c 2,40,-1
 831 -32 l 2,41,42
 489 -32 489 -32 336 54 c 0,43,44
 231 112 231 112 183.5 228 c 128,-1,45
 136 344 136 344 131 520 c 0,46,47
 128 632 128 632 128 768 c 2,48,-1
 128 843 l 2,49,50
 128 1038 128 1038 144 1161.5 c 128,-1,51
 160 1285 160 1285 216 1372 c 0,52,53
 258 1439 258 1439 336 1482 c 0,54,55
 489 1568 489 1568 831 1568 c 2,56,-1
 1345 1568 l 2,57,58
 1761 1568 1761 1568 1912 1444 c 0,59,60
 1986 1384 1986 1384 2017.5 1290 c 128,-1,61
 2049 1196 2049 1196 2049 1056 c 1,62,-1
 1857 1056 l 1,0,1
EndSplineSet
Validated: 1
EndChar

StartChar: H
Encoding: 41 72 41
Width: 2176
GlyphClass: 2
Flags: MW
LayerCount: 2
Fore
SplineSet
1792 1536 m 1,0,-1
 1984 1536 l 1,1,-1
 1984 0 l 1,2,-1
 1792 0 l 1,3,-1
 1792 704 l 1,4,-1
 384 704 l 1,5,-1
 384 0 l 1,6,-1
 192 0 l 1,7,-1
 192 1536 l 1,8,-1
 384 1536 l 1,9,-1
 384 864 l 1,10,-1
 1792 864 l 1,11,-1
 1792 1536 l 1,0,-1
EndSplineSet
Validated: 1
EndChar

StartChar: J
Encoding: 43 74 43
Width: 1715
GlyphClass: 2
Flags: MW
LayerCount: 2
Fore
SplineSet
1024 156 m 2,0,1
 1200 156 1200 156 1272 219 c 128,-1,2
 1344 282 1344 282 1344 448 c 2,3,-1
 1344 1536 l 1,4,-1
 1536 1536 l 1,5,-1
 1536 448 l 2,6,7
 1536 204 1536 204 1424 104 c 0,8,9
 1308 0 1308 0 1024 0 c 2,10,-1
 576 0 l 2,11,12
 374 0 374 0 271.5 58 c 128,-1,13
 169 116 169 116 144 270 c 0,14,15
 128 365 128 365 128 512 c 2,16,-1
 128 576 l 1,17,-1
 320 576 l 1,18,-1
 320 512 l 2,19,20
 320 284 320 284 376 214 c 0,21,22
 404 179 404 179 450.5 167.5 c 128,-1,23
 497 156 497 156 576 156 c 2,24,-1
 1024 156 l 2,0,1
EndSplineSet
Validated: 1
EndChar

StartChar: K
Encoding: 44 75 44
Width: 2016
GlyphClass: 2
Flags: MW
LayerCount: 2
Fore
SplineSet
1632 1536 m 1,0,-1
 1920 1536 l 1,1,-1
 832 784 l 1,2,-1
 1952 0 l 1,3,-1
 1664 0 l 1,4,-1
 640 704 l 1,5,-1
 384 704 l 1,6,-1
 384 0 l 1,7,-1
 192 0 l 1,8,-1
 192 1536 l 1,9,-1
 384 1536 l 1,10,-1
 384 864 l 1,11,-1
 640 864 l 1,12,-1
 1632 1536 l 1,0,-1
EndSplineSet
Validated: 1
EndChar

StartChar: L
Encoding: 45 76 45
Width: 1664
GlyphClass: 2
Flags: MW
LayerCount: 2
Fore
SplineSet
192 0 m 1,0,-1
 192 1536 l 1,1,-1
 384 1536 l 1,2,-1
 384 160 l 1,3,-1
 1600 160 l 1,4,-1
 1600 0 l 1,5,-1
 192 0 l 1,0,-1
EndSplineSet
Validated: 1
EndChar

StartChar: M
Encoding: 46 77 46
Width: 2800
GlyphClass: 2
Flags: MW
LayerCount: 2
Fore
SplineSet
384 1408 m 1,0,-1
 384 0 l 1,1,-1
 192 0 l 1,2,-1
 192 1536 l 1,3,-1
 512 1536 l 1,4,-1
 1407 192 l 1,5,-1
 2302 1536 l 1,6,-1
 2608 1536 l 1,7,-1
 2608 0 l 1,8,-1
 2416 0 l 1,9,-1
 2416 1387 l 1,10,-1
 1504 0 l 1,11,-1
 1310 0 l 1,12,-1
 384 1408 l 1,0,-1
EndSplineSet
Validated: 1
EndChar

StartChar: N
Encoding: 47 78 47
Width: 2321
GlyphClass: 2
Flags: MW
LayerCount: 2
Fore
SplineSet
384 0 m 1,0,-1
 192 0 l 1,1,-1
 192 1536 l 1,2,-1
 529 1536 l 1,3,-1
 1937 192 l 1,4,-1
 1937 1536 l 1,5,-1
 2129 1536 l 1,6,-1
 2129 0 l 1,7,-1
 1873 0 l 1,8,-1
 384 1376 l 1,9,-1
 384 0 l 1,0,-1
EndSplineSet
Validated: 1
EndChar

StartChar: O
Encoding: 48 79 48
Width: 2240
GlyphClass: 2
Flags: MW
LayerCount: 2
Fore
SplineSet
1409 1568 m 2,0,1
 1751 1568 1751 1568 1904 1482 c 0,2,3
 2008 1424 2008 1424 2055 1308.5 c 128,-1,4
 2102 1193 2102 1193 2108 1016 c 0,5,6
 2112 866 2112 866 2112 768 c 2,7,-1
 2112 712 l 2,8,9
 2112 576 2112 576 2108.5 497.5 c 128,-1,10
 2105 419 2105 419 2084.5 322.5 c 128,-1,11
 2064 226 2064 226 2024 164 c 0,12,13
 1982 97 1982 97 1904 54 c 0,14,15
 1751 -32 1751 -32 1409 -32 c 2,16,-1
 831 -32 l 2,17,18
 489 -32 489 -32 336 54 c 0,19,20
 231 112 231 112 183.5 228 c 128,-1,21
 136 344 136 344 131 520 c 0,22,23
 128 632 128 632 128 768 c 2,24,-1
 128 843 l 2,25,26
 128 1038 128 1038 144 1161.5 c 128,-1,27
 160 1285 160 1285 216 1372 c 0,28,29
 258 1439 258 1439 336 1482 c 0,30,31
 489 1568 489 1568 831 1568 c 2,32,-1
 1409 1568 l 2,0,1
1409 128 m 2,33,34
 1672 128 1672 128 1768 166 c 0,35,36
 1826 190 1826 190 1856.5 232.5 c 128,-1,37
 1887 275 1887 275 1901 346 c 0,38,39
 1920 440 1920 440 1920 768 c 128,-1,40
 1920 1096 1920 1096 1904 1177 c 0,41,42
 1888 1257 1888 1257 1858.5 1301 c 128,-1,43
 1829 1345 1829 1345 1768 1370 c 0,44,45
 1674 1408 1674 1408 1409 1408 c 2,46,-1
 831 1408 l 2,47,48
 567 1408 567 1408 471 1370 c 0,49,50
 413 1346 413 1346 382.5 1303.5 c 128,-1,51
 352 1261 352 1261 338 1190 c 0,52,53
 320 1098 320 1098 320 768 c 0,54,55
 320 440 320 440 336 359 c 128,-1,56
 352 278 352 278 381 234.5 c 128,-1,57
 410 191 410 191 471 166 c 0,58,59
 567 128 567 128 831 128 c 2,60,-1
 1409 128 l 2,33,34
EndSplineSet
Validated: 1
EndChar

StartChar: P
Encoding: 49 80 49
Width: 1984
GlyphClass: 2
Flags: MW
LayerCount: 2
Fore
SplineSet
192 1536 m 1,0,-1
 1346 1536 l 2,1,2
 1743 1536 1743 1536 1848 1424 c 0,3,4
 1912 1354 1912 1354 1918 1225 c 0,5,6
 1920 1184 1920 1184 1920 1086 c 0,7,8
 1920 945 1920 945 1904 864 c 128,-1,9
 1888 783 1888 783 1832 730 c 0,10,11
 1792 691 1792 691 1710 663 c 0,12,13
 1551 608 1551 608 1215 608 c 2,14,-1
 384 608 l 1,15,-1
 384 0 l 1,16,-1
 192 0 l 1,17,-1
 192 1536 l 1,0,-1
384 768 m 1,18,-1
 1215 768 l 2,19,20
 1478 768 1478 768 1554 784 c 0,21,22
 1624 799 1624 799 1657 818 c 128,-1,23
 1690 837 1690 837 1708 881 c 0,24,25
 1728 930 1728 930 1728 1041 c 0,26,27
 1728 1169 1728 1169 1726 1200 c 0,28,29
 1722 1276 1722 1276 1686.5 1311 c 128,-1,30
 1651 1346 1651 1346 1575 1360 c 0,31,32
 1488 1376 1488 1376 1215 1376 c 2,33,-1
 384 1376 l 1,34,-1
 384 768 l 1,18,-1
EndSplineSet
Validated: 1
EndChar

StartChar: Q
Encoding: 50 81 50
Width: 2352
GlyphClass: 2
Flags: MW
LayerCount: 2
Fore
SplineSet
832 1568 m 2,0,-1
 1410 1568 l 2,1,2
 1752 1568 1752 1568 1905 1482 c 0,3,4
 1983 1439 1983 1439 2025 1372 c 0,5,6
 2065 1310 2065 1310 2085.5 1213.5 c 128,-1,7
 2106 1117 2106 1117 2109.5 1038.5 c 128,-1,8
 2113 960 2113 960 2113 824 c 2,9,-1
 2113 768 l 258,10,11
 2113 396 2113 396 2085 313 c 1,12,-1
 2224 224 l 1,13,-1
 2144 96 l 1,14,-1
 2028 170 l 1,15,-1
 2025 164 l 1,16,17
 1983 97 1983 97 1905 54 c 0,18,19
 1752 -32 1752 -32 1410 -32 c 2,20,-1
 832 -32 l 2,21,22
 490 -32 490 -32 337 54 c 0,23,24
 258 98 258 98 216 164 c 0,25,26
 160 251 160 251 144.5 373.5 c 128,-1,27
 129 496 129 496 129 693 c 2,28,-1
 129 768 l 258,29,30
 129 904 129 904 132 1016 c 0,31,32
 137 1192 137 1192 184.5 1308 c 128,-1,33
 232 1424 232 1424 337 1482 c 0,34,35
 490 1568 490 1568 832 1568 c 2,0,-1
1877 267 m 1,36,-1
 1247 671 l 1,37,-1
 1328 800 l 1,38,-1
 1913 424 l 1,39,40
 1921 518 1921 518 1921 768 c 0,41,42
 1921 1096 1921 1096 1902 1190 c 0,43,44
 1888 1261 1888 1261 1857.5 1303.5 c 128,-1,45
 1827 1346 1827 1346 1770 1370 c 0,46,47
 1676 1408 1676 1408 1410 1408 c 2,48,-1
 832 1408 l 2,49,50
 568 1408 568 1408 472 1370 c 0,51,52
 412 1346 412 1346 382.5 1302.5 c 128,-1,53
 353 1259 353 1259 337 1180 c 128,-1,54
 321 1101 321 1101 321 768 c 0,55,56
 321 440 321 440 340 346 c 0,57,58
 354 275 354 275 384.5 232.5 c 128,-1,59
 415 190 415 190 472 166 c 0,60,61
 568 128 568 128 832 128 c 2,62,-1
 1410 128 l 1,63,-1
 1435 128 l 2,64,65
 1488 128 1488 128 1520 128.5 c 128,-1,66
 1552 129 1552 129 1598.5 132 c 128,-1,67
 1645 135 1645 135 1674.5 140 c 128,-1,68
 1704 145 1704 145 1739.5 155 c 128,-1,69
 1775 165 1775 165 1798.5 180 c 128,-1,70
 1822 195 1822 195 1843 217 c 128,-1,71
 1864 239 1864 239 1877 267 c 1,36,-1
EndSplineSet
Validated: 1
EndChar

StartChar: R
Encoding: 51 82 51
Width: 2112
GlyphClass: 2
Flags: MW
LayerCount: 2
Fore
SplineSet
1707 672 m 1,0,1
 1768 663 1768 663 1810.5 643.5 c 128,-1,2
 1853 624 1853 624 1880.5 594.5 c 128,-1,3
 1908 565 1908 565 1924 519 c 128,-1,4
 1940 473 1940 473 1946 419 c 128,-1,5
 1952 365 1952 365 1952 288 c 2,6,-1
 1952 0 l 1,7,-1
 1760 0 l 1,8,-1
 1760 288 l 2,9,10
 1760 346 1760 346 1759 379.5 c 128,-1,11
 1758 413 1758 413 1752.5 448.5 c 128,-1,12
 1747 484 1747 484 1737.5 503 c 128,-1,13
 1728 522 1728 522 1711 540.5 c 128,-1,14
 1694 559 1694 559 1669 569 c 128,-1,15
 1644 579 1644 579 1607 587 c 0,16,17
 1507 608 1507 608 1247 608 c 2,18,-1
 384 608 l 1,19,-1
 384 0 l 1,20,-1
 192 0 l 1,21,-1
 192 1536 l 1,22,-1
 1279 1536 l 2,23,24
 1768 1536 1768 1536 1896 1424 c 0,25,26
 1953 1373 1953 1373 1968.5 1297 c 128,-1,27
 1984 1221 1984 1221 1984 1078 c 0,28,29
 1984 892 1984 892 1921.5 793.5 c 128,-1,30
 1859 695 1859 695 1707 672 c 1,0,1
384 768 m 1,31,-1
 1279 768 l 2,32,33
 1542 768 1542 768 1618 784 c 0,34,35
 1688 799 1688 799 1721 818 c 128,-1,36
 1754 837 1754 837 1772 881 c 0,37,38
 1792 930 1792 930 1792 1041 c 0,39,40
 1792 1169 1792 1169 1790 1200 c 0,41,42
 1786 1276 1786 1276 1750.5 1311 c 128,-1,43
 1715 1346 1715 1346 1639 1360 c 0,44,45
 1552 1376 1552 1376 1279 1376 c 2,46,-1
 384 1376 l 1,47,-1
 384 768 l 1,31,-1
EndSplineSet
Validated: 1
EndChar

StartChar: S
Encoding: 52 83 52
Width: 1984
GlyphClass: 2
Flags: MW
LayerCount: 2
Fore
SplineSet
1160 864 m 2,0,1
 1606 864 1606 864 1745 749 c 0,2,3
 1809 696 1809 696 1832.5 621 c 128,-1,4
 1856 546 1856 546 1856 424 c 0,5,6
 1856 272 1856 272 1799 180 c 0,7,8
 1664 -36 1664 -36 1088 -36 c 2,9,-1
 832 -36 l 2,10,11
 415 -36 415 -36 265 66 c 0,12,13
 192 116 192 116 160.5 190.5 c 128,-1,14
 129 265 129 265 129 384 c 1,15,-1
 321 384 l 1,16,17
 321 294 321 294 346.5 243 c 128,-1,18
 372 192 372 192 433 166 c 128,-1,19
 494 140 494 140 590 134 c 0,20,21
 688 128 688 128 832 128 c 2,22,-1
 1088 128 l 2,23,24
 1419 128 1419 128 1544 195 c 0,25,26
 1606 228 1606 228 1635 282 c 128,-1,27
 1664 336 1664 336 1664 424 c 0,28,29
 1664 511 1664 511 1644 563 c 128,-1,30
 1624 615 1624 615 1572 645 c 0,31,32
 1471 704 1471 704 1160 704 c 2,33,-1
 896 704 l 2,34,35
 405 704 405 704 248 816 c 0,36,37
 179 865 179 865 153.5 937.5 c 128,-1,38
 128 1010 128 1010 128 1130 c 0,39,40
 128 1217 128 1217 148 1282 c 128,-1,41
 168 1347 168 1347 209 1392 c 128,-1,42
 250 1437 250 1437 303.5 1466.5 c 128,-1,43
 357 1496 357 1496 432 1516 c 0,44,45
 623 1568 623 1568 960 1568 c 2,46,-1
 1152 1568 l 2,47,48
 1565 1568 1565 1568 1720 1468 c 0,49,50
 1793 1420 1793 1420 1824.5 1345 c 128,-1,51
 1856 1270 1856 1270 1856 1152 c 1,52,-1
 1664 1152 l 1,53,54
 1664 1242 1664 1242 1638.5 1293 c 128,-1,55
 1613 1344 1613 1344 1552 1370 c 128,-1,56
 1491 1396 1491 1396 1394 1402 c 0,57,58
 1296 1408 1296 1408 1152 1408 c 2,59,-1
 960 1408 l 2,60,61
 581 1408 581 1408 448 1349 c 0,62,63
 320 1293 320 1293 320 1144 c 0,64,65
 320 1049 320 1049 339.5 999.5 c 128,-1,66
 359 950 359 950 416 921 c 0,67,68
 455 901 455 901 519 888 c 0,69,70
 638 864 638 864 896 864 c 2,71,-1
 1160 864 l 2,0,1
EndSplineSet
Validated: 1
EndChar

StartChar: T
Encoding: 53 84 53
Width: 1984
GlyphClass: 2
Flags: MW
LayerCount: 2
Fore
SplineSet
1856 1536 m 1,0,-1
 1856 1376 l 1,1,-1
 1088 1376 l 1,2,-1
 1088 0 l 1,3,-1
 896 0 l 1,4,-1
 896 1376 l 1,5,-1
 128 1376 l 1,6,-1
 128 1536 l 1,7,-1
 1856 1536 l 1,0,-1
EndSplineSet
Validated: 1
EndChar

StartChar: U
Encoding: 54 85 54
Width: 2113
GlyphClass: 2
Flags: MW
LayerCount: 2
Fore
SplineSet
1985 1536 m 1,0,-1
 1985 768 l 1,1,2
 1985 712 l 2,3,4
 1985 576 1985 576 1981.5 497.5 c 128,-1,5
 1978 419 1978 419 1957.5 322.5 c 128,-1,6
 1937 226 1937 226 1897 164 c 0,7,8
 1855 97 1855 97 1777 54 c 0,9,10
 1624 -32 1624 -32 1282 -32 c 2,11,-1
 832 -32 l 2,12,13
 490 -32 490 -32 337 54 c 0,14,15
 232 112 232 112 184.5 228 c 128,-1,16
 137 344 137 344 132 520 c 0,17,18
 129 632 129 632 129 768 c 2,19,-1
 129 1536 l 1,20,-1
 321 1536 l 1,21,-1
 321 768 l 2,22,23
 321 446 321 446 338 359 c 0,24,25
 354 278 354 278 382.5 234.5 c 128,-1,26
 411 191 411 191 472 166 c 0,27,28
 568 128 568 128 832 128 c 2,29,-1
 1282 128 l 2,30,31
 1548 128 1548 128 1642 166 c 0,32,33
 1728 201 1728 201 1758 286.5 c 128,-1,34
 1788 372 1788 372 1791 520 c 0,35,36
 1793 658 1793 658 1793 768 c 2,37,-1
 1792 1536 l 1,38,-1
 1985 1536 l 1,0,-1
EndSplineSet
Validated: 1
EndChar

StartChar: V
Encoding: 55 86 55
Width: 2048
GlyphClass: 2
Flags: MW
LayerCount: 2
Fore
SplineSet
1760 1536 m 1,0,-1
 1984 1536 l 1,1,-1
 1152 0 l 1,2,-1
 896 0 l 1,3,-1
 64 1536 l 1,4,-1
 288 1536 l 1,5,-1
 1024 128 l 1,6,-1
 1760 1536 l 1,0,-1
EndSplineSet
Validated: 1
EndChar

StartChar: W
Encoding: 56 87 56
Width: 3328
GlyphClass: 2
Flags: MW
LayerCount: 2
Fore
SplineSet
1584 1536 m 1,0,-1
 1808 1536 l 1,1,-1
 2432 160 l 1,2,-1
 3040 1536 l 1,3,-1
 3264 1536 l 1,4,-1
 2560 0 l 1,5,-1
 2304 0 l 1,6,-1
 1696 1344 l 1,7,-1
 1088 0 l 1,8,-1
 832 0 l 1,9,-1
 64 1536 l 1,10,-1
 288 1536 l 1,11,-1
 960 160 l 1,12,-1
 1584 1536 l 1,0,-1
EndSplineSet
Validated: 1
EndChar

StartChar: X
Encoding: 57 88 57
Width: 2176
GlyphClass: 2
Flags: MW
LayerCount: 2
Fore
SplineSet
1209 810 m 1,0,-1
 2112 0 l 1,1,-1
 1840 0 l 1,2,-1
 1075 686 l 1,3,-1
 336 0 l 1,4,-1
 64 0 l 1,5,-1
 937 810 l 1,6,-1
 128 1536 l 1,7,-1
 400 1536 l 1,8,-1
 1070 934 l 1,9,-1
 1719 1536 l 1,10,-1
 1991 1536 l 1,11,-1
 1209 810 l 1,0,-1
EndSplineSet
Validated: 1
EndChar

StartChar: Y
Encoding: 58 89 58
Width: 2200
GlyphClass: 2
Flags: MW
LayerCount: 2
Fore
SplineSet
128 1536 m 1,0,-1
 384 1536 l 1,1,-1
 1088 784 l 1,2,-1
 1792 1536 l 1,3,-1
 2048 1536 l 1,4,-1
 1184 640 l 1,5,-1
 1184 0 l 1,6,-1
 992 0 l 1,7,-1
 992 640 l 1,8,-1
 128 1536 l 1,0,-1
EndSplineSet
Validated: 1
EndChar

StartChar: Z
Encoding: 59 90 59
Width: 2046
GlyphClass: 2
Flags: MW
LayerCount: 2
Fore
SplineSet
128 0 m 1,0,-1
 128 160 l 1,1,-1
 1614 1376 l 1,2,-1
 192 1376 l 1,3,-1
 192 1536 l 1,4,-1
 1888 1536 l 1,5,-1
 1888 1376 l 1,6,-1
 394 160 l 1,7,-1
 1920 160 l 1,8,-1
 1920 0 l 1,9,-1
 128 0 l 1,0,-1
EndSplineSet
Validated: 1
EndChar

StartChar: bracketleft
Encoding: 60 91 60
Width: 832
GlyphClass: 2
Flags: MW
LayerCount: 2
Fore
SplineSet
128 1536 m 1,0,-1
 704 1536 l 1,1,-1
 704 1376 l 1,2,-1
 320 1376 l 1,3,-1
 320 160 l 1,4,-1
 704 160 l 1,5,-1
 704 0 l 1,6,-1
 128 0 l 1,7,-1
 128 1536 l 1,0,-1
EndSplineSet
Validated: 1
EndChar

StartChar: backslash
Encoding: 61 92 61
Width: 1023
GlyphClass: 2
Flags: MW
LayerCount: 2
Fore
SplineSet
960 0 m 1,0,-1
 768 0 l 1,1,-1
 64 1536 l 1,2,-1
 256 1536 l 1,3,-1
 960 0 l 1,0,-1
EndSplineSet
Validated: 1
EndChar

StartChar: bracketright
Encoding: 62 93 62
Width: 832
GlyphClass: 2
Flags: MW
LayerCount: 2
Fore
SplineSet
704 0 m 1,0,-1
 128 0 l 1,1,-1
 128 160 l 1,2,-1
 512 160 l 1,3,-1
 512 1376 l 1,4,-1
 128 1376 l 1,5,-1
 128 1536 l 1,6,-1
 704 1536 l 1,7,-1
 704 0 l 1,0,-1
EndSplineSet
Validated: 1
EndChar

StartChar: asciicircum
Encoding: 63 94 63
Width: 1088
GlyphClass: 2
Flags: MW
LayerCount: 2
Fore
SplineSet
544 1408 m 1,0,-1
 192 896 l 1,1,-1
 64 992 l 1,2,-1
 448 1536 l 1,3,-1
 640 1536 l 1,4,-1
 1024 992 l 1,5,-1
 896 896 l 1,6,-1
 544 1408 l 1,0,-1
EndSplineSet
Validated: 1
EndChar

StartChar: underscore
Encoding: 64 95 64
Width: 1088
GlyphClass: 2
Flags: MW
LayerCount: 2
Fore
SplineSet
0 0 m 1,0,-1
 1088 0 l 1,1,-1
 1088 -160 l 1,2,-1
 0 -160 l 1,3,-1
 0 0 l 1,0,-1
EndSplineSet
Validated: 1
EndChar

StartChar: grave
Encoding: 65 96 65
Width: 960
GlyphClass: 2
Flags: MW
LayerCount: 2
Fore
SplineSet
128 1664 m 1,0,-1
 256 1856 l 1,1,-1
 832 1376 l 1,2,-1
 768 1280 l 1,3,-1
 128 1664 l 1,0,-1
EndSplineSet
Validated: 1
EndChar

StartChar: a
Encoding: 66 97 66
Width: 1595
GlyphClass: 2
Flags: MW
LayerCount: 2
Fore
SplineSet
764 659 m 0,0,1
 1187 659 1187 659 1275 544 c 1,2,3
 1275 765 1275 765 1234 867 c 0,4,5
 1195 964 1195 964 1112 994 c 128,-1,6
 1029 1024 1029 1024 858 1024 c 0,7,8
 697 1024 697 1024 610 1018 c 0,9,10
 554 1014 554 1014 517 1006.5 c 128,-1,11
 480 999 480 999 446 981.5 c 128,-1,12
 412 964 412 964 395.5 932 c 128,-1,13
 379 900 379 900 379 852 c 1,14,-1
 187 852 l 1,15,16
 187 1034 187 1034 328 1108 c 0,17,18
 474 1184 474 1184 829 1184 c 0,19,20
 959 1184 959 1184 1054.5 1169 c 128,-1,21
 1150 1154 1150 1154 1228.5 1117 c 128,-1,22
 1307 1080 1307 1080 1357.5 1015.5 c 128,-1,23
 1408 951 1408 951 1434 856 c 0,24,25
 1467 733 1467 733 1467 544 c 2,26,-1
 1467 0 l 1,27,-1
 1275 0 l 1,28,-1
 1275 158 l 2,29,30
 1272 146 1272 146 1236 104 c 0,31,32
 1175 33 1175 33 1080.5 4.5 c 128,-1,33
 986 -24 986 -24 830 -24 c 0,34,35
 616 -24 616 -24 488 -6 c 0,36,37
 363 12 363 12 279 52 c 0,38,39
 123 126 123 126 123 293 c 0,40,41
 123 534 123 534 299 606 c 0,42,43
 406 650 406 650 537 654 c 0,44,45
 684 659 684 659 764 659 c 0,0,1
560 136 m 0,46,47
 669 128 669 128 808 128 c 0,48,49
 950 128 950 128 1031 136.5 c 128,-1,50
 1112 145 1112 145 1179 176 c 0,51,52
 1275 221 1275 221 1275 320 c 256,53,54
 1275 417 1275 417 1164 456 c 0,55,56
 1051 496 1051 496 765 496 c 0,57,58
 472 496 472 496 409 473 c 0,59,60
 353 452 353 452 334 421 c 128,-1,61
 315 390 315 390 315 320 c 0,62,63
 315 253 315 253 334.5 218 c 128,-1,64
 354 183 354 183 404 164 c 0,65,66
 456 144 456 144 560 136 c 0,46,47
EndSplineSet
Validated: 1
EndChar

StartChar: b
Encoding: 67 98 67
Width: 1632
GlyphClass: 2
Flags: MW
LayerCount: 2
Fore
SplineSet
320 1043 m 1,0,1
 407 1184 407 1184 832 1184 c 0,2,3
 1024 1184 1024 1184 1156.5 1156 c 128,-1,4
 1289 1128 1289 1128 1376 1056 c 0,5,6
 1536 923 1536 923 1536 574 c 0,7,8
 1536 314 1536 314 1447.5 181 c 128,-1,9
 1359 48 1359 48 1158 6 c 0,10,11
 1027 -22 1027 -22 859 -22 c 0,12,13
 723 -22 723 -22 631 -9 c 128,-1,14
 539 4 539 4 453 36 c 0,15,16
 396 57 396 57 365 104 c 0,17,18
 342 140 342 140 320 177 c 1,19,-1
 320 0 l 1,20,-1
 128 0 l 1,21,-1
 128 1536 l 1,22,-1
 320 1536 l 1,23,-1
 320 1043 l 1,0,1
1312 292 m 0,24,25
 1344 372 1344 372 1344 574 c 0,26,27
 1344 774 1344 774 1318 841 c 0,28,29
 1293 904 1293 904 1259.5 937 c 128,-1,30
 1226 970 1226 970 1164 990 c 0,31,32
 1064 1023 1064 1023 900 1023 c 2,33,-1
 813 1023 l 2,34,35
 760 1023 760 1023 724.5 1022 c 128,-1,36
 689 1021 689 1021 644.5 1018 c 128,-1,37
 600 1015 600 1015 570 1008.5 c 128,-1,38
 540 1002 540 1002 506.5 991 c 128,-1,39
 473 980 473 980 449.5 964.5 c 128,-1,40
 426 949 426 949 404.5 925.5 c 128,-1,41
 383 902 383 902 368 872 c 0,42,43
 320 776 320 776 320 571 c 0,44,45
 320 379 320 379 363 281.5 c 128,-1,46
 406 184 406 184 529 152 c 0,47,48
 620 128 620 128 782 128 c 2,49,-1
 837 128 l 2,50,51
 896 128 896 128 933 129 c 128,-1,52
 970 130 970 130 1019.5 133 c 128,-1,53
 1069 136 1069 136 1101 142.5 c 128,-1,54
 1133 149 1133 149 1170 161 c 128,-1,55
 1207 173 1207 173 1231.5 190.5 c 128,-1,56
 1256 208 1256 208 1277.5 233.5 c 128,-1,57
 1299 259 1299 259 1312 292 c 0,24,25
EndSplineSet
Validated: 1
EndChar

StartChar: c
Encoding: 68 99 68
Width: 1569
GlyphClass: 2
Flags: MW
LayerCount: 2
Fore
SplineSet
96 576 m 0,0,1
 96 755 96 755 125 873 c 128,-1,2
 154 991 154 991 232 1060 c 0,3,4
 281 1104 281 1104 362 1133 c 0,5,6
 506 1185 506 1185 751 1185 c 0,7,8
 998 1185 998 1185 1117 1162 c 0,9,10
 1199 1146 1199 1146 1257 1120.5 c 128,-1,11
 1315 1095 1315 1095 1357.5 1051.5 c 128,-1,12
 1400 1008 1400 1008 1420.5 943.5 c 128,-1,13
 1441 879 1441 879 1441 789 c 1,14,-1
 1249 789 l 1,15,16
 1249 869 1249 869 1239 902 c 128,-1,17
 1229 935 1229 935 1193 962 c 0,18,19
 1165 984 1165 984 1116 997 c 0,20,21
 1017 1025 1017 1025 844 1025 c 0,22,23
 673 1025 673 1025 586 1016 c 0,24,25
 466 1004 466 1004 399 967.5 c 128,-1,26
 332 931 332 931 308 847 c 0,27,28
 289 781 289 781 289 634 c 2,29,-1
 289 525 l 2,30,31
 289 462 289 462 291 422 c 128,-1,32
 293 382 293 382 301.5 336.5 c 128,-1,33
 310 291 310 291 326.5 262 c 128,-1,34
 343 233 343 233 371.5 207.5 c 128,-1,35
 400 182 400 182 441 167 c 0,36,37
 547 128 547 128 801 128 c 0,38,39
 1011 128 1011 128 1089 151 c 0,40,41
 1159 172 1159 172 1189.5 193 c 128,-1,42
 1220 214 1220 214 1234.5 257 c 128,-1,43
 1249 300 1249 300 1249 384 c 1,44,-1
 1441 384 l 1,45,46
 1441 271 1441 271 1410.5 197 c 128,-1,47
 1380 123 1380 123 1313 76 c 0,48,49
 1170 -22 1170 -22 801 -22 c 0,50,51
 512 -22 512 -22 362 30 c 0,52,53
 210 83 210 83 150 213 c 0,54,55
 96 332 96 332 96 576 c 0,0,1
EndSplineSet
Validated: 1
EndChar

StartChar: d
Encoding: 69 100 69
Width: 1632
GlyphClass: 2
Flags: MW
LayerCount: 2
Fore
SplineSet
800 1184 m 0,0,1
 1219 1184 1219 1184 1312 1044 c 1,2,-1
 1312 1536 l 1,3,-1
 1504 1536 l 1,4,-1
 1504 0 l 1,5,-1
 1312 0 l 1,6,-1
 1312 171 l 1,7,-1
 1264 114 l 1,8,9
 1124 -22 1124 -22 818 -22 c 0,10,11
 611 -22 611 -22 478.5 3.5 c 128,-1,12
 346 29 346 29 256 102 c 0,13,14
 96 231 96 231 96 574 c 0,15,16
 96 835 96 835 183 974 c 128,-1,17
 270 1113 270 1113 474 1156 c 0,18,19
 605 1184 605 1184 800 1184 c 0,0,1
320 292 m 0,20,21
 335 254 335 254 360 226 c 128,-1,22
 385 198 385 198 421.5 180.5 c 128,-1,23
 458 163 458 163 495 152 c 128,-1,24
 532 141 532 141 586.5 136 c 128,-1,25
 641 131 641 131 684 129.5 c 128,-1,26
 727 128 727 128 792 128 c 0,27,28
 861 128 861 128 900 129 c 128,-1,29
 939 130 939 130 994.5 134 c 128,-1,30
 1050 138 1050 138 1084 147.5 c 128,-1,31
 1118 157 1118 157 1156 173 c 128,-1,32
 1194 189 1194 189 1220 214.5 c 128,-1,33
 1246 240 1246 240 1264 275 c 0,34,35
 1312 370 1312 370 1312 571 c 0,36,37
 1312 667 1312 667 1304 733 c 128,-1,38
 1296 799 1296 799 1274.5 854.5 c 128,-1,39
 1253 910 1253 910 1214.5 943 c 128,-1,40
 1176 976 1176 976 1116 996 c 128,-1,41
 1056 1016 1056 1016 971 1020 c 0,42,43
 904 1024 904 1024 792 1024 c 0,44,45
 736 1024 736 1024 699 1023 c 128,-1,46
 662 1022 662 1022 613.5 1018.5 c 128,-1,47
 565 1015 565 1015 532.5 1008.5 c 128,-1,48
 500 1002 500 1002 463 990 c 128,-1,49
 426 978 426 978 401 961 c 128,-1,50
 376 944 376 944 354.5 918.5 c 128,-1,51
 333 893 333 893 320 860 c 0,52,53
 288 779 288 779 288 628 c 0,54,55
 288 479 288 479 294 410 c 0,56,57
 300 343 300 343 320 292 c 0,20,21
EndSplineSet
Validated: 1
EndChar

StartChar: e
Encoding: 70 101 70
Width: 1568
GlyphClass: 2
Flags: MW
LayerCount: 2
Fore
SplineSet
794 -22 m 0,0,1
 660 -22 660 -22 561 -10 c 128,-1,2
 462 2 462 2 373 33 c 128,-1,3
 284 64 284 64 224.5 123 c 128,-1,4
 165 182 165 182 134 270 c 0,5,6
 96 381 96 381 96 556 c 0,7,8
 96 819 96 819 183.5 965 c 128,-1,9
 271 1111 271 1111 474 1155 c 0,10,11
 610 1184 610 1184 772 1184 c 0,12,13
 1027 1184 1027 1184 1177.5 1121 c 128,-1,14
 1328 1058 1328 1058 1396 900 c 0,15,16
 1440 799 1440 799 1440 592 c 1,17,-1
 1424 528 l 1,18,-1
 288 528 l 1,19,20
 288 261 288 261 400 188 c 0,21,22
 443 160 443 160 512.5 146 c 128,-1,23
 582 132 582 132 635.5 130 c 128,-1,24
 689 128 689 128 794 128 c 0,25,26
 925 128 925 128 1018 136 c 0,27,28
 1135 146 1135 146 1191.5 183.5 c 128,-1,29
 1248 221 1248 221 1248 320 c 1,30,-1
 1440 320 l 1,31,32
 1440 131 1440 131 1300 56 c 0,33,34
 1156 -22 1156 -22 794 -22 c 0,0,1
1248 656 m 1,35,36
 1248 816 1248 816 1191 899.5 c 128,-1,37
 1134 983 1134 983 1005 1008 c 0,38,39
 922 1024 922 1024 812 1024 c 2,40,-1
 805 1024 l 2,41,42
 737 1024 737 1024 702.5 1023.5 c 128,-1,43
 668 1023 668 1023 611.5 1020 c 128,-1,44
 555 1017 555 1017 522.5 1009 c 128,-1,45
 490 1001 490 1001 451 988.5 c 128,-1,46
 412 976 412 976 384.5 954.5 c 128,-1,47
 357 933 357 933 336 904 c 0,48,49
 288 836 288 836 288 656 c 1,50,-1
 1248 656 l 1,35,36
EndSplineSet
Validated: 1
EndChar

StartChar: f
Encoding: 71 102 71
Width: 1056
GlyphClass: 2
Flags: MW
LayerCount: 2
Fore
SplineSet
512 1006 m 5,0,-1
 512 0 l 1,1,-1
 320 0 l 1,2,-1
 320 1006 l 1,3,-1
 128 1006 l 1,4,-1
 128 1152 l 1,5,-1
 320 1152 l 1,6,-1
 320 1162 l 2,7,8
 320 1395 320 1395 432 1482 c 0,9,10
 542 1568 542 1568 833 1568 c 2,11,-1
 1056 1568 l 1,12,-1
 1056 1408 l 1,13,-1
 832 1408 l 1,14,15
 774 1408 l 2,16,17
 720 1408 720 1408 687.5 1405.5 c 128,-1,18
 655 1403 655 1403 619 1393 c 128,-1,19
 583 1383 583 1383 561 1361 c 128,-1,20
 539 1339 539 1339 528 1304 c 0,21,22
 512 1256 512 1256 512 1162 c 2,23,-1
 512 1152 l 1,24,-1
 1056 1152 l 1,25,-1
 1056 1006 l 1,26,-1
 512 1006 l 5,0,-1
EndSplineSet
Validated: 1
EndChar

StartChar: g
Encoding: 72 103 72
Width: 1632
GlyphClass: 2
Flags: MW
LayerCount: 2
Fore
SplineSet
320 860 m 0,0,1
 288 779 288 779 288 628 c 0,2,3
 288 560 288 560 288.5 525.5 c 128,-1,4
 289 491 289 491 292.5 437.5 c 128,-1,5
 296 384 296 384 302.5 356 c 128,-1,6
 309 328 309 328 322 291 c 128,-1,7
 335 254 335 254 354 233 c 128,-1,8
 373 212 373 212 401.5 192 c 128,-1,9
 430 172 430 172 468 160 c 0,10,11
 572 128 572 128 733 128 c 2,12,-1
 824 128 l 2,13,14
 886 128 886 128 925.5 129.5 c 128,-1,15
 965 131 965 131 1014.5 135.5 c 128,-1,16
 1064 140 1064 140 1097 149.5 c 128,-1,17
 1130 159 1130 159 1164 175 c 128,-1,18
 1198 191 1198 191 1222.5 216.5 c 128,-1,19
 1247 242 1247 242 1264 276 c 0,20,21
 1312 370 1312 370 1312 577 c 0,22,23
 1312 772 1312 772 1269.5 870 c 128,-1,24
 1227 968 1227 968 1103 1001 c 0,25,26
 1014 1024 1014 1024 852 1024 c 2,27,-1
 792 1024 l 2,28,29
 734 1024 734 1024 697 1023 c 128,-1,30
 660 1022 660 1022 610.5 1019 c 128,-1,31
 561 1016 561 1016 529.5 1009.5 c 128,-1,32
 498 1003 498 1003 461 991 c 128,-1,33
 424 979 424 979 400 961.5 c 128,-1,34
 376 944 376 944 354.5 918.5 c 128,-1,35
 333 893 333 893 320 860 c 0,0,1
800 1184 m 0,36,37
 1215 1184 1215 1184 1312 1045 c 1,38,-1
 1312 1152 l 1,39,-1
 1504 1152 l 1,40,-1
 1504 160 l 2,41,42
 1504 -87 1504 -87 1415 -220.5 c 128,-1,43
 1326 -354 1326 -354 1126 -394 c 0,44,45
 992 -421 992 -421 806 -421 c 0,46,47
 626 -421 626 -421 507.5 -408 c 128,-1,48
 389 -395 389 -395 300 -354 c 0,49,50
 160 -289 160 -289 160 -133 c 1,51,-1
 352 -133 l 1,52,53
 352 -177 352 -177 375 -200 c 128,-1,54
 398 -223 398 -223 444 -236 c 0,55,56
 534 -261 534 -261 740 -261 c 0,57,58
 940 -261 940 -261 1042 -250 c 0,59,60
 1142 -239 1142 -239 1201 -200 c 128,-1,61
 1260 -161 1260 -161 1286 -83 c 0,62,63
 1312 -2 1312 -2 1312 128 c 1,64,65
 1219 -32 1219 -32 800 -32 c 0,66,67
 607 -32 607 -32 475 -4.5 c 128,-1,68
 343 23 343 23 256 94 c 0,69,70
 96 226 96 226 96 574 c 0,71,72
 96 835 96 835 183 974 c 128,-1,73
 270 1113 270 1113 474 1156 c 0,74,75
 605 1184 605 1184 800 1184 c 0,36,37
EndSplineSet
Validated: 1
EndChar

StartChar: h
Encoding: 73 104 73
Width: 1601
GlyphClass: 2
Flags: MW
LayerCount: 2
Fore
SplineSet
320 970 m 1,0,1
 411 1184 411 1184 896 1184 c 0,2,3
 1258 1184 1258 1184 1377 1047 c 0,4,5
 1431 984 1431 984 1452 887 c 128,-1,6
 1473 790 1473 790 1473 650 c 2,7,-1
 1472 0 l 1,8,-1
 1280 0 l 1,9,-1
 1280 650 l 2,10,11
 1280 760 1280 760 1263.5 829 c 128,-1,12
 1247 898 1247 898 1200 941 c 0,13,14
 1109 1024 1109 1024 832 1024 c 0,15,16
 411 1024 411 1024 342 841 c 0,17,18
 320 781 320 781 320 714 c 2,19,-1
 320 0 l 1,20,-1
 128 0 l 1,21,-1
 128 1536 l 1,22,-1
 320 1536 l 1,23,-1
 320 970 l 1,0,1
EndSplineSet
Validated: 1
EndChar

StartChar: i
Encoding: 74 105 74
Width: 576
GlyphClass: 2
Flags: MW
LayerCount: 2
Fore
SplineSet
192 1152 m 1,0,-1
 384 1152 l 1,1,-1
 384 0 l 1,2,-1
 192 0 l 1,3,-1
 192 1152 l 1,0,-1
384 1344 m 1,4,-1
 192 1344 l 1,5,-1
 192 1536 l 1,6,-1
 384 1536 l 1,7,-1
 384 1344 l 1,4,-1
EndSplineSet
Validated: 1
EndChar

StartChar: j
Encoding: 75 106 75
Width: 672
GlyphClass: 2
Flags: MW
LayerCount: 2
Fore
SplineSet
128 -224 m 1,0,1
 225 -224 225 -224 256.5 -192.5 c 128,-1,2
 288 -161 288 -161 288 -64 c 2,3,-1
 288 1152 l 1,4,-1
 480 1152 l 1,5,-1
 480 -64 l 2,6,7
 480 -148 480 -148 468.5 -204 c 128,-1,8
 457 -260 457 -260 424 -298 c 0,9,10
 350 -384 350 -384 128 -384 c 1,11,-1
 128 -224 l 1,0,1
480 1344 m 1,12,-1
 288 1344 l 1,13,-1
 288 1536 l 1,14,-1
 480 1536 l 1,15,-1
 480 1344 l 1,12,-1
EndSplineSet
Validated: 1
EndChar

StartChar: k
Encoding: 76 107 76
Width: 1408
GlyphClass: 2
Flags: MW
LayerCount: 2
Fore
SplineSet
128 1536 m 1,0,-1
 320 1536 l 1,1,-1
 320 696 l 1,2,-1
 384 696 l 1,3,-1
 1088 1152 l 1,4,-1
 1376 1152 l 1,5,-1
 560 616 l 1,6,-1
 1408 0 l 1,7,-1
 1120 0 l 1,8,-1
 384 552 l 1,9,-1
 320 552 l 1,10,-1
 320 0 l 1,11,-1
 128 0 l 1,12,-1
 128 1536 l 1,0,-1
EndSplineSet
Validated: 1
EndChar

StartChar: l
Encoding: 77 108 77
Width: 576
GlyphClass: 2
Flags: MW
LayerCount: 2
Fore
SplineSet
192 1536 m 1,0,-1
 384 1536 l 1,1,-1
 384 0 l 1,2,-1
 192 0 l 1,3,-1
 192 1536 l 1,0,-1
EndSplineSet
Validated: 1
EndChar

StartChar: m
Encoding: 78 109 78
Width: 2496
GlyphClass: 2
Flags: MW
LayerCount: 2
Fore
SplineSet
1304 974 m 1,0,1
 1366 1072 1366 1072 1511.5 1128 c 128,-1,2
 1657 1184 1657 1184 1844 1184 c 0,3,4
 1948 1184 1948 1184 2024 1173 c 128,-1,5
 2100 1162 2100 1162 2165 1136 c 128,-1,6
 2230 1110 2230 1110 2273 1061.5 c 128,-1,7
 2316 1013 2316 1013 2338 942 c 0,8,9
 2368 844 2368 844 2368 650 c 2,10,-1
 2368 0 l 1,11,-1
 2176 0 l 1,12,-1
 2176 650 l 2,13,14
 2176 761 2176 761 2162.5 829.5 c 128,-1,15
 2149 898 2149 898 2108 941 c 0,16,17
 2030 1024 2030 1024 1792 1024 c 0,18,19
 1427 1024 1427 1024 1364 841 c 0,20,21
 1344 783 1344 783 1344 714 c 2,22,-1
 1344 0 l 1,23,-1
 1152 0 l 1,24,-1
 1152 650 l 2,25,26
 1152 761 1152 761 1138.5 829.5 c 128,-1,27
 1125 898 1125 898 1084 941 c 0,28,29
 1006 1024 1006 1024 768 1024 c 0,30,31
 403 1024 403 1024 340 841 c 0,32,33
 320 783 320 783 320 714 c 2,34,-1
 320 0 l 1,35,-1
 128 0 l 1,36,-1
 128 1152 l 1,37,-1
 320 1152 l 1,38,-1
 320 970 l 1,39,40
 338 1023 338 1023 414 1081 c 0,41,42
 548 1184 548 1184 832 1184 c 0,43,44
 1034 1184 1034 1184 1145.5 1136.5 c 128,-1,45
 1257 1089 1257 1089 1304 974 c 1,0,1
EndSplineSet
Validated: 1
EndChar

StartChar: n
Encoding: 79 110 79
Width: 1601
GlyphClass: 2
Flags: MW
LayerCount: 2
Fore
SplineSet
1280 0 m 1,0,-1
 1280 640 l 2,1,2
 1280 753 1280 753 1263.5 823.5 c 128,-1,3
 1247 894 1247 894 1200 939 c 0,4,5
 1111 1024 1111 1024 832 1024 c 0,6,7
 411 1024 411 1024 342 835 c 0,8,9
 320 774 320 774 320 704 c 2,10,-1
 320 0 l 1,11,-1
 128 0 l 1,12,-1
 128 1152 l 1,13,-1
 320 1152 l 1,14,-1
 320 960 l 1,15,16
 416 1184 416 1184 896 1184 c 0,17,18
 1258 1184 1258 1184 1377 1044 c 0,19,20
 1431 980 1431 980 1452 881 c 128,-1,21
 1473 782 1473 782 1473 640 c 2,22,-1
 1472 0 l 1,23,-1
 1280 0 l 1,0,-1
EndSplineSet
Validated: 1
EndChar

StartChar: o
Encoding: 80 111 80
Width: 1600
GlyphClass: 2
Flags: MW
LayerCount: 2
Fore
SplineSet
96 584 m 256,0,1
 96 841 96 841 183.5 977.5 c 128,-1,2
 271 1114 271 1114 474 1156 c 0,3,4
 612 1184 612 1184 800 1184 c 0,5,6
 938 1184 938 1184 1038.5 1171 c 128,-1,7
 1139 1158 1139 1158 1228.5 1125.5 c 128,-1,8
 1318 1093 1318 1093 1377 1031 c 128,-1,9
 1436 969 1436 969 1466 877 c 0,10,11
 1504 760 1504 760 1504 584 c 0,12,13
 1504 320 1504 320 1416 184.5 c 128,-1,14
 1328 49 1328 49 1126 6 c 0,15,16
 995 -22 995 -22 800 -22 c 0,17,18
 607 -22 607 -22 475 5.5 c 128,-1,19
 343 33 343 33 256 104 c 0,20,21
 96 236 96 236 96 584 c 256,0,1
800 1024 m 256,22,23
 733 1024 733 1024 688.5 1023 c 128,-1,24
 644 1022 644 1022 594 1017.5 c 128,-1,25
 544 1013 544 1013 512 1005.5 c 128,-1,26
 480 998 480 998 446 984.5 c 128,-1,27
 412 971 412 971 391 952 c 128,-1,28
 370 933 370 933 350.5 905.5 c 128,-1,29
 331 878 331 878 319 842 c 128,-1,30
 307 806 307 806 300 760 c 0,31,32
 288 688 288 688 288 588 c 0,33,34
 288 440 288 440 304 351.5 c 128,-1,35
 320 263 320 263 376 212 c 0,36,37
 429 164 429 164 515 146 c 128,-1,38
 601 128 601 128 732 128 c 2,39,-1
 826 128 l 2,40,41
 887 128 887 128 927.5 129.5 c 128,-1,42
 968 131 968 131 1017 135.5 c 128,-1,43
 1066 140 1066 140 1099 150 c 128,-1,44
 1132 160 1132 160 1165.5 176.5 c 128,-1,45
 1199 193 1199 193 1223 218.5 c 128,-1,46
 1247 244 1247 244 1264 279 c 0,47,48
 1312 378 1312 378 1312 584 c 0,49,50
 1312 777 1312 777 1270 873.5 c 128,-1,51
 1228 970 1228 970 1104 1002 c 0,52,53
 1019 1024 1019 1024 800 1024 c 256,22,23
EndSplineSet
Validated: 1
EndChar

StartChar: p
Encoding: 81 112 81
Width: 1632
GlyphClass: 2
Flags: MW
LayerCount: 2
Fore
SplineSet
320 1045 m 5,0,1
 410 1184 410 1184 832 1184 c 4,2,3
 1024 1184 1024 1184 1156.5 1156 c 132,-1,4
 1289 1128 1289 1128 1376 1056 c 4,5,6
 1536 923 1536 923 1536 574 c 4,7,8
 1536 314 1536 314 1447.5 181 c 132,-1,9
 1359 48 1359 48 1158 6 c 4,10,11
 1027 -22 1027 -22 860 -22 c 4,12,13
 715 -22 715 -22 624 -11.5 c 132,-1,14
 533 -1 533 -1 452 30 c 4,15,16
 353 67 353 67 320 128 c 5,17,-1
 320 -384 l 5,18,-1
 128 -384 l 5,19,-1
 128 1152 l 5,20,-1
 320 1152 l 5,21,-1
 320 1045 l 5,0,1
1256 940 m 4,22,23
 1197 993 1197 993 1097.5 1008.5 c 132,-1,24
 998 1024 998 1024 840 1024 c 4,25,26
 760 1024 760 1024 712 1022.5 c 132,-1,27
 664 1021 664 1021 601.5 1013 c 132,-1,28
 539 1005 539 1005 500.5 989.5 c 132,-1,29
 462 974 462 974 425.5 945 c 132,-1,30
 389 916 389 916 368 874 c 4,31,32
 320 780 320 780 320 577 c 4,33,34
 320 500 320 500 325 444 c 132,-1,35
 330 388 330 388 343.5 337.5 c 132,-1,36
 357 287 357 287 380.5 252 c 132,-1,37
 404 217 404 217 440.5 191.5 c 132,-1,38
 477 166 477 166 529 152 c 4,39,40
 619 128 619 128 782 128 c 6,41,-1
 838 128 l 6,42,43
 896 128 896 128 933 129 c 132,-1,44
 970 130 970 130 1019.5 133 c 132,-1,45
 1069 136 1069 136 1101 142.5 c 132,-1,46
 1133 149 1133 149 1170 161 c 132,-1,47
 1207 173 1207 173 1231.5 190.5 c 132,-1,48
 1256 208 1256 208 1277.5 233.5 c 132,-1,49
 1299 259 1299 259 1312 292 c 4,50,51
 1344 372 1344 372 1344 574 c 4,52,53
 1344 774 1344 774 1318 841 c 4,54,55
 1292 909 1292 909 1256 940 c 4,22,23
EndSplineSet
Validated: 1
EndChar

StartChar: q
Encoding: 82 113 82
Width: 1632
GlyphClass: 2
Flags: MW
LayerCount: 2
Fore
SplineSet
1312 128 m 1,0,1
 1220 -22 1220 -22 800 -22 c 0,2,3
 607 -22 607 -22 475 5.5 c 128,-1,4
 343 33 343 33 256 104 c 0,5,6
 96 236 96 236 96 584 c 0,7,8
 96 841 96 841 183.5 977.5 c 128,-1,9
 271 1114 271 1114 474 1156 c 0,10,11
 612 1184 612 1184 800 1184 c 0,12,13
 1217 1184 1217 1184 1312 1035 c 1,14,-1
 1312 1152 l 1,15,-1
 1504 1152 l 1,16,-1
 1504 -384 l 1,17,-1
 1312 -384 l 1,18,-1
 1312 128 l 1,0,1
606 1018 m 0,19,20
 490 1010 490 1010 420 977 c 128,-1,21
 350 944 350 944 320 869 c 0,22,23
 288 790 288 790 288 584 c 0,24,25
 288 381 288 381 314 312 c 0,26,27
 339 248 339 248 372.5 215 c 128,-1,28
 406 182 406 182 468 161 c 0,29,30
 567 128 567 128 800 128 c 0,31,32
 1017 128 1017 128 1087 148 c 0,33,34
 1158 168 1158 168 1197.5 196.5 c 128,-1,35
 1237 225 1237 225 1264 280 c 0,36,37
 1312 378 1312 378 1312 587 c 0,38,39
 1312 663 1312 663 1307 718 c 128,-1,40
 1302 773 1302 773 1289 823.5 c 128,-1,41
 1276 874 1276 874 1252.5 908 c 128,-1,42
 1229 942 1229 942 1192 967 c 128,-1,43
 1155 992 1155 992 1103 1004 c 0,44,45
 1020 1024 1020 1024 852 1024 c 0,46,47
 687 1024 687 1024 606 1018 c 0,19,20
EndSplineSet
Validated: 1
EndChar

StartChar: r
Encoding: 83 114 83
Width: 1280
GlyphClass: 2
Flags: MW
LayerCount: 2
Fore
SplineSet
1120 777 m 1,0,1
 1120 857 1120 857 1108.5 901 c 128,-1,2
 1097 945 1097 945 1060 972 c 0,3,4
 988 1024 988 1024 736 1024 c 0,5,6
 390 1024 390 1024 336 840 c 0,7,8
 320 785 320 785 320 713 c 2,9,-1
 320 0 l 1,10,-1
 128 0 l 1,11,-1
 128 1152 l 1,12,-1
 320 1152 l 1,13,-1
 320 969 l 1,14,15
 365 1108 365 1108 582 1162 c 0,16,17
 667 1184 667 1184 810 1184 c 0,18,19
 902 1184 902 1184 974 1173 c 128,-1,20
 1046 1162 1046 1162 1106.5 1136.5 c 128,-1,21
 1167 1111 1167 1111 1206.5 1064.5 c 128,-1,22
 1246 1018 1246 1018 1262 952 c 0,23,24
 1280 876 1280 876 1280 777 c 1,25,-1
 1120 777 l 1,0,1
EndSplineSet
Validated: 1
EndChar

StartChar: s
Encoding: 84 115 84
AltUni2: 00017f.ffffffff.0
Width: 1600
GlyphClass: 2
Flags: MW
LayerCount: 2
Fore
SplineSet
704 -11 m 1,0,1
 399 -5 399 -5 268 64 c 0,2,3
 128 138 128 138 128 320 c 1,4,-1
 320 320 l 1,5,6
 320 256 320 256 341.5 220 c 128,-1,7
 363 184 363 184 412 164 c 0,8,9
 499 128 499 128 768 128 c 0,10,11
 1006 128 1006 128 1088 146 c 0,12,13
 1130 155 1130 155 1153.5 161 c 128,-1,14
 1177 167 1177 167 1205 179.5 c 128,-1,15
 1233 192 1233 192 1247 208.5 c 128,-1,16
 1261 225 1261 225 1270.5 251.5 c 128,-1,17
 1280 278 1280 278 1280 315 c 0,18,19
 1280 391 1280 391 1267 423.5 c 128,-1,20
 1254 456 1254 456 1208 475 c 0,21,22
 1181 486 1181 486 1124 496 c 0,23,24
 1020 512 1020 512 845 512 c 2,25,-1
 709 512 l 2,26,27
 506 512 506 512 384 532 c 0,28,29
 243 556 243 556 185.5 626 c 128,-1,30
 128 696 128 696 128 860 c 0,31,32
 128 1039 128 1039 288 1112 c 0,33,34
 446 1184 446 1184 832 1184 c 0,35,36
 1198 1184 1198 1184 1342 1102 c 0,37,38
 1409 1064 1409 1064 1440.5 1004 c 128,-1,39
 1472 944 1472 944 1472 848 c 1,40,-1
 1280 848 l 1,41,42
 1280 906 1280 906 1258 938.5 c 128,-1,43
 1236 971 1236 971 1188 990 c 0,44,45
 1099 1024 1099 1024 893 1024 c 0,46,47
 677 1024 677 1024 590 1020 c 0,48,49
 538 1018 538 1018 506.5 1015 c 128,-1,50
 475 1012 475 1012 435 1002.5 c 128,-1,51
 395 993 395 993 373 977.5 c 128,-1,52
 351 962 351 962 335.5 934 c 128,-1,53
 320 906 320 906 320 866 c 0,54,55
 320 788 320 788 333 750 c 128,-1,56
 346 712 346 712 392 695 c 0,57,58
 426 684 426 684 476 678 c 0,59,60
 539 672 539 672 738 672 c 0,61,62
 936 672 936 672 1038 666 c 0,63,64
 1180 658 1180 658 1274 632.5 c 128,-1,65
 1368 607 1368 607 1418 544 c 0,66,67
 1472 478 1472 478 1472 344 c 0,68,69
 1472 206 1472 206 1418 136 c 0,70,71
 1377 83 1377 83 1315 52 c 0,72,73
 1254 20 1254 20 1102 2 c 0,74,75
 984 -12 984 -12 819 -12 c 0,76,77
 764 -12 764 -12 704 -11 c 1,0,1
EndSplineSet
Validated: 1
EndChar

StartChar: t
Encoding: 85 116 85
Width: 1376
GlyphClass: 2
Flags: MW
LayerCount: 2
Fore
SplineSet
1248 512 m 1,0,1
 1248 217 1248 217 1144 109 c 0,2,3
 1039 0 1039 0 768 0 c 0,4,5
 504 0 504 0 404 88 c 0,6,7
 301 178 301 178 301 416 c 2,8,-1
 301 994 l 1,9,-1
 64 994 l 1,10,-1
 64 1152 l 1,11,-1
 301 1152 l 1,12,-1
 301 1467 l 1,13,-1
 493 1467 l 1,14,-1
 493 1152 l 1,15,-1
 1216 1152 l 1,16,-1
 1216 994 l 1,17,-1
 493 994 l 1,18,-1
 493 416 l 2,19,20
 493 237 493 237 554 192 c 0,21,22
 581 172 581 172 622.5 166 c 128,-1,23
 664 160 664 160 730 160 c 2,24,-1
 759 160 l 1,25,-1
 764 160 l 2,26,27
 820 160 820 160 848 161 c 128,-1,28
 876 162 876 162 917 167.5 c 128,-1,29
 958 173 958 173 980 183.5 c 128,-1,30
 1002 194 1002 194 1024 215 c 128,-1,31
 1046 236 1046 236 1058 267 c 0,32,33
 1088 340 1088 340 1088 512 c 1,34,-1
 1248 512 l 1,0,1
EndSplineSet
Validated: 1
EndChar

StartChar: u
Encoding: 86 117 86
Width: 1601
GlyphClass: 2
Flags: MW
LayerCount: 2
Fore
SplineSet
321 1152 m 1,0,-1
 321 512 l 2,1,2
 321 399 321 399 337.5 328.5 c 128,-1,3
 354 258 354 258 401 213 c 0,4,5
 490 128 490 128 769 128 c 0,6,7
 1191 128 1191 128 1260 317 c 0,8,9
 1281 376 1281 376 1281 448 c 2,10,-1
 1281 1152 l 1,11,-1
 1473 1152 l 1,12,-1
 1473 0 l 1,13,-1
 1281 0 l 1,14,-1
 1281 192 l 1,15,16
 1218 54 1218 54 964 0 c 0,17,18
 861 -22 861 -22 718 -22 c 0,19,20
 605 -22 605 -22 522 -12 c 128,-1,21
 439 -2 439 -2 364 23.5 c 128,-1,22
 289 49 289 49 239 98 c 128,-1,23
 189 147 189 147 163 220 c 0,24,25
 128 320 128 320 128 512 c 2,26,-1
 129 1152 l 1,27,-1
 321 1152 l 1,0,-1
EndSplineSet
Validated: 1
EndChar

StartChar: v
Encoding: 87 118 87
Width: 1600
GlyphClass: 2
Flags: MW
LayerCount: 2
Fore
SplineSet
672 0 m 1,0,-1
 64 1152 l 1,1,-1
 288 1152 l 1,2,-1
 800 128 l 1,3,-1
 1312 1152 l 1,4,-1
 1536 1152 l 1,5,-1
 928 0 l 1,6,-1
 672 0 l 1,0,-1
EndSplineSet
Validated: 1
EndChar

StartChar: w
Encoding: 88 119 88
Width: 2240
GlyphClass: 2
Flags: MW
LayerCount: 2
Fore
SplineSet
2176 1152 m 1,0,-1
 1728 0 l 1,1,-1
 1472 0 l 1,2,-1
 1120 944 l 1,3,-1
 768 0 l 1,4,-1
 512 0 l 1,5,-1
 64 1152 l 1,6,-1
 288 1152 l 1,7,-1
 640 144 l 1,8,-1
 1024 1152 l 1,9,-1
 1216 1152 l 1,10,-1
 1596 144 l 1,11,-1
 1952 1152 l 1,12,-1
 2176 1152 l 1,0,-1
EndSplineSet
Validated: 1
EndChar

StartChar: x
Encoding: 89 120 89
Width: 1628
GlyphClass: 2
Flags: MW
LayerCount: 2
Fore
SplineSet
1276 0 m 1,0,-1
 814 482 l 1,1,-1
 352 0 l 1,2,-1
 96 0 l 1,3,-1
 686 586 l 1,4,-1
 124 1152 l 1,5,-1
 380 1152 l 1,6,-1
 819 707 l 1,7,-1
 1248 1152 l 1,8,-1
 1504 1152 l 1,9,-1
 942 587 l 1,10,-1
 1532 0 l 1,11,-1
 1276 0 l 1,0,-1
EndSplineSet
Validated: 1
EndChar

StartChar: y
Encoding: 90 121 90
Width: 1568
GlyphClass: 2
Flags: MW
LayerCount: 2
Fore
SplineSet
672 0 m 1,0,-1
 64 1152 l 1,1,-1
 288 1152 l 1,2,-1
 800 128 l 1,3,-1
 1280 1152 l 1,4,-1
 1504 1152 l 1,5,-1
 896 -64 l 2,6,7
 872 -112 872 -112 848 -154 c 0,8,9
 797 -246 797 -246 724 -296 c 0,10,11
 596 -384 596 -384 288 -384 c 1,12,-1
 288 -224 l 1,13,14
 470 -224 470 -224 560 -194 c 0,15,16
 606 -179 606 -179 632 -160 c 0,17,18
 648 -149 648 -149 660.5 -135.5 c 128,-1,19
 673 -122 673 -122 684 -103.5 c 128,-1,20
 695 -85 695 -85 701 -73 c 128,-1,21
 707 -61 707 -61 719 -36 c 128,-1,22
 731 -11 731 -11 736 0 c 1,23,-1
 672 0 l 1,0,-1
EndSplineSet
Validated: 1
EndChar

StartChar: z
Encoding: 91 122 91
Width: 1472
GlyphClass: 2
Flags: MW
LayerCount: 2
Fore
SplineSet
192 1152 m 5,0,-1
 1344 1152 l 1,1,-1
 1344 992 l 1,2,-1
 382 143 l 1,3,-1
 1344 143 l 1,4,-1
 1344 0 l 1,5,-1
 128 0 l 1,6,-1
 128 160 l 1,7,-1
 1104 1011 l 1,8,-1
 192 1011 l 1,9,-1
 192 1152 l 5,0,-1
EndSplineSet
Validated: 1
EndChar

StartChar: braceleft
Encoding: 92 123 92
Width: 960
GlyphClass: 2
Flags: MW
LayerCount: 2
Fore
SplineSet
128 688 m 1,0,-1
 128 848 l 1,1,2
 239 848 239 848 279.5 873.5 c 128,-1,3
 320 899 320 899 320 983 c 2,4,-1
 320 1014 l 2,5,6
 320 1088 320 1088 322 1135 c 0,7,8
 330 1375 330 1375 452 1487.5 c 128,-1,9
 574 1600 574 1600 832 1600 c 1,10,-1
 832 1440 l 1,11,12
 679 1440 679 1440 606 1388 c 0,13,14
 574 1365 574 1365 553.5 1327.5 c 128,-1,15
 533 1290 533 1290 525 1235.5 c 128,-1,16
 517 1181 517 1181 514.5 1136.5 c 128,-1,17
 512 1092 512 1092 512 1020 c 0,18,19
 512 982 512 982 510 940 c 0,20,21
 503 828 503 828 384 768 c 1,22,23
 454 733 454 733 483 683 c 128,-1,24
 512 633 512 633 512 542 c 2,25,-1
 512 516 l 2,26,27
 512 436 512 436 514 374 c 0,28,29
 518 226 518 226 591 161 c 128,-1,30
 664 96 664 96 832 96 c 1,31,-1
 832 -64 l 1,32,33
 490 -64 490 -64 384 138 c 0,34,35
 320 260 320 260 320 522 c 2,36,-1
 320 556 l 2,37,38
 320 639 320 639 279.5 663.5 c 128,-1,39
 239 688 239 688 128 688 c 1,0,-1
EndSplineSet
Validated: 1
EndChar

StartChar: bar
Encoding: 93 124 93
Width: 448
GlyphClass: 2
Flags: MW
LayerCount: 2
Fore
SplineSet
128 -128 m 1,0,-1
 128 1600 l 1,1,-1
 320 1600 l 1,2,-1
 320 -128 l 1,3,-1
 128 -128 l 1,0,-1
EndSplineSet
Validated: 1
EndChar

StartChar: braceright
Encoding: 94 125 94
Width: 960
GlyphClass: 2
Flags: MW
LayerCount: 2
Fore
SplineSet
448 994 m 2,0,1
 448 1020 l 2,2,3
 448 1100 448 1100 446 1162 c 0,4,5
 442 1310 442 1310 369 1375 c 128,-1,6
 296 1440 296 1440 128 1440 c 1,7,-1
 128 1600 l 1,8,9
 342 1600 342 1600 464 1520 c 128,-1,10
 586 1440 586 1440 621 1272 c 0,11,12
 640 1178 640 1178 640 1014 c 0,13,14
 640 964 640 964 643 936 c 0,15,16
 649 883 649 883 694 865.5 c 128,-1,17
 739 848 739 848 832 848 c 1,18,-1
 832 688 l 1,19,20
 721 688 721 688 680.5 663.5 c 128,-1,21
 640 639 640 639 640 556 c 2,22,-1
 640 522 l 2,23,24
 640 448 640 448 638 401 c 0,25,26
 630 161 630 161 508 48.5 c 128,-1,27
 386 -64 386 -64 128 -64 c 1,28,-1
 128 96 l 1,29,30
 281 96 281 96 354 148 c 0,31,32
 386 171 386 171 406.5 208.5 c 128,-1,33
 427 246 427 246 435 300.5 c 128,-1,34
 443 355 443 355 445.5 399.5 c 128,-1,35
 448 444 448 444 448 516 c 0,36,37
 448 554 448 554 450 596 c 0,38,39
 457 708 457 708 576 768 c 1,40,41
 506 803 506 803 477 853 c 128,-1,42
 448 903 448 903 448 994 c 2,0,1
EndSplineSet
Validated: 1
EndChar

StartChar: asciitilde
Encoding: 95 126 95
Width: 1152
GlyphClass: 2
Flags: MW
LayerCount: 2
Fore
SplineSet
320 832 m 1,0,-1
 128 832 l 1,1,2
 128 953 128 953 199 1020.5 c 128,-1,3
 270 1088 270 1088 384 1088 c 0,4,5
 489 1088 489 1088 603 1040 c 0,6,7
 609 1037 609 1037 629.5 1028 c 128,-1,8
 650 1019 650 1019 661 1014.5 c 128,-1,9
 672 1010 672 1010 689.5 1004 c 128,-1,10
 707 998 707 998 723 995 c 128,-1,11
 739 992 739 992 754 992 c 0,12,13
 802 992 802 992 817 1010.5 c 128,-1,14
 832 1029 832 1029 832 1088 c 1,15,-1
 1024 1088 l 1,16,17
 1024 955 1024 955 932 886 c 0,18,19
 860 832 860 832 768 832 c 0,20,21
 663 832 663 832 549 880 c 0,22,23
 543 883 543 883 522.5 892 c 128,-1,24
 502 901 502 901 491 905.5 c 128,-1,25
 480 910 480 910 462.5 916 c 128,-1,26
 445 922 445 922 429 925 c 128,-1,27
 413 928 413 928 398 928 c 0,28,29
 348 928 348 928 334 910 c 128,-1,30
 320 892 320 892 320 832 c 1,0,-1
EndSplineSet
Validated: 1
EndChar

StartChar: exclamdown
Encoding: 98 161 97
Width: 448
GlyphClass: 2
Flags: MW
LayerCount: 2
Fore
SplineSet
128 -0 m 1,0,-1
 176 1088 l 1,1,-1
 272 1088 l 1,2,-1
 320 -0 l 1,3,-1
 128 -0 l 1,0,-1
320 1536 m 1,4,-1
 320 1344 l 1,5,-1
 128 1344 l 1,6,-1
 128 1536 l 1,7,-1
 320 1536 l 1,4,-1
EndSplineSet
Validated: 1
EndChar

StartChar: cent
Encoding: 99 162 98
Width: 1601
GlyphClass: 2
Flags: MW
LayerCount: 2
Fore
SplineSet
128 544 m 256,0,1
 128 778 128 778 182 892 c 0,2,3
 242 1019 242 1019 394 1070 c 0,4,5
 542 1120 542 1120 833 1120 c 0,6,7
 1205 1120 1205 1120 1345 1020 c 0,8,9
 1413 972 1413 972 1443 896 c 128,-1,10
 1473 820 1473 820 1473 704 c 1,11,-1
 1281 704 l 1,12,13
 1281 788 1281 788 1266.5 831 c 128,-1,14
 1252 874 1252 874 1221.5 895 c 128,-1,15
 1191 916 1191 916 1121 937 c 0,16,17
 1043 960 1043 960 833 960 c 0,18,19
 579 960 579 960 473 924 c 0,20,21
 417 905 417 905 386 873.5 c 128,-1,22
 355 842 355 842 338 786 c 128,-1,23
 321 730 321 730 321 544 c 0,24,25
 321 355 321 355 340 294 c 0,26,27
 364 215 364 215 432 181.5 c 128,-1,28
 500 148 500 148 618 136 c 0,29,30
 695 128 695 128 875 128 c 0,31,32
 1046 128 1046 128 1148 159 c 0,33,34
 1199 175 1199 175 1225 196 c 0,35,36
 1261 226 1261 226 1271 262 c 128,-1,37
 1281 298 1281 298 1281 384 c 1,38,-1
 1473 384 l 1,39,40
 1473 275 1473 275 1445 198 c 0,41,42
 1388 39 1388 39 1149 -8 c 0,43,44
 1025 -32 1025 -32 783 -32 c 0,45,46
 541 -32 541 -32 392.5 17 c 128,-1,47
 244 66 244 66 182 196 c 0,48,49
 128 310 128 310 128 544 c 256,0,1
EndSplineSet
Validated: 1
EndChar

StartChar: sterling
Encoding: 100 163 99
Width: 1663
GlyphClass: 2
Flags: MW
LayerCount: 2
Fore
SplineSet
64 800 m 1,0,-1
 256 800 l 1,1,-1
 256 958 l 2,2,3
 256 1083 256 1083 267 1168 c 128,-1,4
 278 1253 278 1253 307 1324.5 c 128,-1,5
 336 1396 336 1396 388.5 1442 c 128,-1,6
 441 1488 441 1488 522 1517 c 0,7,8
 666 1569 666 1569 960 1569 c 0,9,10
 1293 1569 1293 1569 1419 1474 c 0,11,12
 1536 1387 1536 1387 1536 1173 c 1,13,-1
 1344 1173 l 1,14,15
 1344 1251 1344 1251 1335 1284.5 c 128,-1,16
 1326 1318 1326 1318 1294 1346 c 0,17,18
 1269 1368 1269 1368 1228 1381 c 0,19,20
 1144 1409 1144 1409 987 1409 c 0,21,22
 831 1409 831 1409 744 1400 c 0,23,24
 624 1388 624 1388 557.5 1351.5 c 128,-1,25
 491 1315 491 1315 467 1231 c 0,26,27
 448 1165 448 1165 448 958 c 2,28,-1
 448 800 l 1,29,-1
 1280 800 l 1,30,-1
 1280 640 l 1,31,-1
 448 640 l 1,32,-1
 448 160 l 1,33,-1
 1472 160 l 1,34,-1
 1472 0 l 1,35,-1
 256 0 l 1,36,-1
 256 640 l 1,37,-1
 64 640 l 1,38,-1
 64 800 l 1,0,-1
EndSplineSet
Validated: 1
EndChar

StartChar: currency
Encoding: 101 164 100
Width: 1280
GlyphClass: 2
Flags: MW
LayerCount: 2
Fore
SplineSet
934 848 m 1,0,-1
 1084 977 l 1,1,-1
 1168 880 l 1,2,-1
 1023 756 l 1,3,4
 1088 658 1088 658 1088 514 c 0,5,6
 1088 369 1088 369 1023 268 c 1,7,-1
 1168 144 l 1,8,-1
 1084 47 l 1,9,-1
 933 175 l 1,10,11
 821 96 821 96 639 96 c 0,12,13
 458 96 458 96 346 176 c 1,14,-1
 196 47 l 1,15,-1
 112 144 l 1,16,-1
 256 268 l 1,17,18
 192 366 192 366 192 512 c 128,-1,19
 192 658 192 658 256 756 c 1,20,-1
 112 880 l 1,21,-1
 196 977 l 1,22,-1
 346 848 l 1,23,24
 462 928 462 928 640 928 c 128,-1,25
 818 928 818 928 934 848 c 1,0,-1
896 512 m 256,26,27
 896 639 896 639 830.5 703.5 c 128,-1,28
 765 768 765 768 640 768 c 0,29,30
 384 768 384 768 384 512 c 128,-1,31
 384 256 384 256 640 256 c 128,-1,32
 896 256 896 256 896 512 c 256,26,27
EndSplineSet
Validated: 1
EndChar

StartChar: yen
Encoding: 102 165 101
Width: 2048
GlyphClass: 2
Flags: MW
LayerCount: 2
Fore
SplineSet
416 416 m 1,0,-1
 928 416 l 1,1,-1
 928 640 l 1,2,-1
 416 640 l 1,3,-1
 416 800 l 1,4,-1
 773 800 l 1,5,-1
 64 1536 l 1,6,-1
 320 1536 l 1,7,-1
 1024 768 l 1,8,-1
 1728 1536 l 1,9,-1
 1984 1536 l 1,10,-1
 1274 800 l 1,11,-1
 1632 800 l 1,12,-1
 1632 640 l 1,13,-1
 1120 640 l 1,14,-1
 1120 416 l 1,15,-1
 1632 416 l 1,16,-1
 1632 256 l 1,17,-1
 1120 256 l 1,18,-1
 1120 0 l 1,19,-1
 928 0 l 1,20,-1
 928 256 l 1,21,-1
 416 256 l 1,22,-1
 416 416 l 1,0,-1
EndSplineSet
Validated: 1
EndChar

StartChar: brokenbar
Encoding: 103 166 102
Width: 448
GlyphClass: 2
Flags: MW
LayerCount: 2
Fore
SplineSet
128 896 m 1,0,-1
 128 1600 l 1,1,-1
 320 1600 l 1,2,-1
 320 896 l 1,3,-1
 128 896 l 1,0,-1
128 -128 m 1,4,-1
 128 576 l 1,5,-1
 320 576 l 1,6,-1
 320 -128 l 1,7,-1
 128 -128 l 1,4,-1
EndSplineSet
Validated: 1
EndChar

StartChar: section
Encoding: 104 167 103
Width: 1504
GlyphClass: 2
Flags: MW
LayerCount: 2
Fore
SplineSet
129 1116 m 0,0,1
 129 1200 129 1200 147.5 1257.5 c 128,-1,2
 166 1315 166 1315 208 1351 c 128,-1,3
 250 1387 250 1387 300.5 1407.5 c 128,-1,4
 351 1428 351 1428 432 1446 c 0,5,6
 550 1472 550 1472 833 1472 c 0,7,8
 1134 1472 1134 1472 1255 1392 c 0,9,10
 1373 1314 1373 1314 1373 1120 c 1,11,-1
 1181 1120 l 1,12,13
 1181 1214 1181 1214 1138 1254 c 128,-1,14
 1095 1294 1095 1294 1002 1304 c 0,15,16
 930 1312 930 1312 767 1312 c 0,17,18
 593 1312 593 1312 487 1292 c 0,19,20
 400 1276 400 1276 360.5 1240.5 c 128,-1,21
 321 1205 321 1205 321 1120 c 0,22,23
 321 1065 321 1065 335.5 1038 c 128,-1,24
 350 1011 350 1011 392 994 c 0,25,26
 478 960 478 960 800 960 c 0,27,28
 1374 960 1374 960 1374 757 c 0,29,30
 1374 673 1374 673 1286 551 c 1,31,32
 1335 516 1335 516 1355.5 462.5 c 128,-1,33
 1376 409 1376 409 1376 324 c 0,34,35
 1376 240 1376 240 1357.5 182.5 c 128,-1,36
 1339 125 1339 125 1297 89 c 128,-1,37
 1255 53 1255 53 1204.5 32.5 c 128,-1,38
 1154 12 1154 12 1073 -6 c 0,39,40
 955 -32 955 -32 672 -32 c 0,41,42
 371 -32 371 -32 250 48 c 0,43,44
 132 126 132 126 132 320 c 1,45,-1
 324 320 l 1,46,47
 324 226 324 226 367 186 c 128,-1,48
 410 146 410 146 503 136 c 0,49,50
 575 128 575 128 738 128 c 0,51,52
 912 128 912 128 1018 148 c 0,53,54
 1075 158 1075 158 1108 175 c 0,55,56
 1154 198 1154 198 1169 231.5 c 128,-1,57
 1184 265 1184 265 1184 337 c 0,58,59
 1184 372 1184 372 1173 396 c 128,-1,60
 1162 420 1162 420 1138.5 433.5 c 128,-1,61
 1115 447 1115 447 1091 453.5 c 128,-1,62
 1067 460 1067 460 1028 466 c 0,63,64
 929 480 929 480 775 480 c 2,65,-1
 639 480 l 2,66,67
 462 480 462 480 329 507 c 0,68,69
 265 520 265 520 226 540 c 0,70,71
 176 564 176 564 152 598.5 c 128,-1,72
 128 633 128 633 128 699 c 0,73,74
 128 775 128 775 220 887 c 1,75,76
 171 923 171 923 150 977 c 128,-1,77
 129 1031 129 1031 129 1116 c 0,0,1
1153 607 m 1,78,79
 1186 673 1186 673 1186 712 c 0,80,81
 1186 736 1186 736 1166 754 c 0,82,83
 1146 773 1146 773 1082 786 c 0,84,85
 1015 800 1015 800 801 800 c 0,86,87
 494 800 494 800 352 832 c 1,88,89
 349 824 349 824 342 807.5 c 128,-1,90
 335 791 335 791 331.5 781.5 c 128,-1,91
 328 772 328 772 324.5 757 c 128,-1,92
 321 742 321 742 321 728 c 0,93,94
 321 694 321 694 341 679.5 c 128,-1,95
 361 665 361 665 409 654 c 0,96,97
 470 640 470 640 704 640 c 0,98,99
 1012 640 1012 640 1153 607 c 1,78,79
EndSplineSet
Validated: 1
EndChar

StartChar: dieresis
Encoding: 105 168 104
Width: 1088
GlyphClass: 2
Flags: MW
LayerCount: 2
Fore
SplineSet
256 1536 m 1,0,-1
 256 1344 l 1,1,-1
 64 1344 l 1,2,-1
 64 1536 l 1,3,-1
 256 1536 l 1,0,-1
1024 1536 m 1,4,-1
 1024 1344 l 1,5,-1
 832 1344 l 1,6,-1
 832 1536 l 1,7,-1
 1024 1536 l 1,4,-1
EndSplineSet
Validated: 1
EndChar

StartChar: copyright
Encoding: 106 169 105
Width: 1920
GlyphClass: 2
Flags: MW
LayerCount: 2
Fore
SplineSet
960 1664 m 256,0,1
 1306 1664 1306 1664 1488 1578 c 0,2,3
 1664 1495 1664 1495 1733 1313 c 0,4,5
 1792 1157 1792 1157 1792 864 c 0,6,7
 1792 728 1792 728 1780 616 c 0,8,9
 1755 388 1755 388 1640 260 c 0,10,11
 1465 64 1465 64 960 64 c 0,12,13
 614 64 614 64 432 150 c 0,14,15
 256 233 256 233 187 415 c 0,16,17
 128 571 128 571 128 864 c 0,18,19
 128 1000 128 1000 140 1112 c 0,20,21
 165 1340 165 1340 280 1468 c 0,22,23
 455 1664 455 1664 960 1664 c 256,0,1
960 224 m 256,24,25
 1234 224 1234 224 1354 262 c 0,26,27
 1494 307 1494 307 1548 442 c 0,28,29
 1600 571 1600 571 1600 864 c 128,-1,30
 1600 1157 1600 1157 1548 1286 c 0,31,32
 1517 1363 1517 1363 1468.5 1404 c 128,-1,33
 1420 1445 1420 1445 1330 1474 c 0,34,35
 1236 1504 1236 1504 960 1504 c 0,36,37
 686 1504 686 1504 566 1466 c 0,38,39
 426 1421 426 1421 372 1286 c 0,40,41
 320 1157 320 1157 320 864 c 128,-1,42
 320 571 320 571 372 442 c 0,43,44
 403 365 403 365 451.5 324 c 128,-1,45
 500 283 500 283 590 254 c 0,46,47
 684 224 684 224 960 224 c 256,24,25
448 893 m 256,48,49
 448 1033 448 1033 469 1126 c 0,50,51
 483 1188 483 1188 513.5 1233 c 128,-1,52
 544 1278 544 1278 585 1305 c 128,-1,53
 626 1332 626 1332 686.5 1348 c 128,-1,54
 747 1364 747 1364 810 1369.5 c 128,-1,55
 873 1375 873 1375 959 1375 c 0,56,57
 1254 1375 1254 1375 1368 1292 c 0,58,59
 1472 1216 1472 1216 1472 1027 c 1,60,-1
 1312 1027 l 1,61,62
 1312 1117 1312 1117 1290 1156.5 c 128,-1,63
 1268 1196 1268 1196 1204 1216 c 0,64,65
 1151 1233 1151 1233 1102 1237 c 128,-1,66
 1053 1241 1053 1241 959 1241 c 2,67,-1
 916 1241 l 2,68,69
 788 1241 788 1241 714 1210 c 0,70,71
 675 1194 675 1194 654 1168 c 128,-1,72
 633 1142 633 1142 622 1097 c 0,73,74
 610 1052 610 1052 610 893 c 256,75,76
 610 826 610 826 611.5 787 c 128,-1,77
 613 748 613 748 620 706 c 128,-1,78
 627 664 627 664 639.5 641.5 c 128,-1,79
 652 619 652 619 674.5 598 c 128,-1,80
 697 577 697 577 730.5 567 c 128,-1,81
 764 557 764 557 812 551 c 0,82,83
 868 544 868 544 999 544 c 0,84,85
 1123 544 1123 544 1204 570 c 0,86,87
 1269 591 1269 591 1290.5 629 c 128,-1,88
 1312 667 1312 667 1312 759 c 1,89,-1
 1472 759 l 1,90,91
 1472 570 1472 570 1368 494 c 0,92,93
 1302 446 1302 446 1202.5 428 c 128,-1,94
 1103 410 1103 410 956 410 c 0,95,96
 799 410 799 410 702 432 c 0,97,98
 625 449 625 449 574.5 486 c 128,-1,99
 524 523 524 523 496.5 583.5 c 128,-1,100
 469 644 469 644 458.5 716.5 c 128,-1,101
 448 789 448 789 448 893 c 256,48,49
EndSplineSet
Validated: 1
EndChar

StartChar: guillemotleft
Encoding: 108 171 107
Width: 1344
GlyphClass: 2
Flags: MW
LayerCount: 2
Fore
SplineSet
768 256 m 1,0,-1
 672 128 l 1,1,-1
 128 512 l 1,2,-1
 128 704 l 1,3,-1
 672 1088 l 1,4,-1
 768 960 l 1,5,-1
 256 608 l 1,6,-1
 768 256 l 1,0,-1
1216 256 m 1,7,-1
 1120 128 l 1,8,-1
 576 512 l 1,9,-1
 576 704 l 1,10,-1
 1120 1088 l 1,11,-1
 1216 960 l 1,12,-1
 704 608 l 1,13,-1
 1216 256 l 1,7,-1
EndSplineSet
Validated: 1
EndChar

StartChar: logicalnot
Encoding: 109 172 108
Width: 1216
GlyphClass: 2
Flags: MW
LayerCount: 2
Fore
SplineSet
1088 640 m 1,0,-1
 896 640 l 1,1,-1
 896 928 l 1,2,-1
 128 928 l 1,3,-1
 128 1088 l 1,4,-1
 1088 1088 l 1,5,-1
 1088 640 l 1,0,-1
EndSplineSet
Validated: 1
EndChar

StartChar: registered
Encoding: 111 174 109
Width: 1920
GlyphClass: 2
Flags: MW
LayerCount: 2
Fore
SplineSet
1405 536 m 2,0,-1
 1405 384 l 1,1,-1
 1244 384 l 1,2,-1
 1244 536 l 2,3,4
 1244 667 1244 667 1214.5 715.5 c 128,-1,5
 1185 764 1185 764 1087 786 c 0,6,7
 1028 800 1028 800 828 800 c 2,8,-1
 733 800 l 1,9,-1
 733 384 l 1,10,-1
 573 384 l 1,11,-1
 573 1376 l 1,12,-1
 860 1376 l 2,13,14
 1177 1376 1177 1376 1299 1302 c 0,15,16
 1355 1267 1355 1267 1379.5 1215.5 c 128,-1,17
 1404 1164 1404 1164 1404 1078 c 0,18,19
 1404 975 1404 975 1338.5 921 c 128,-1,20
 1273 867 1273 867 1160 860 c 1,21,22
 1301 842 1301 842 1353 772 c 128,-1,23
 1405 702 1405 702 1405 536 c 2,0,-1
733 1248 m 1,24,-1
 733 928 l 1,25,-1
 860 928 l 2,26,27
 1095 928 1095 928 1172 962 c 0,28,29
 1210 979 1210 979 1227 1007.5 c 128,-1,30
 1244 1036 1244 1036 1244 1087 c 128,-1,31
 1244 1138 1244 1138 1227.5 1166.5 c 128,-1,32
 1211 1195 1211 1195 1172 1212 c 0,33,34
 1092 1248 1092 1248 860 1248 c 2,35,-1
 733 1248 l 1,24,-1
960 1664 m 256,36,37
 1306 1664 1306 1664 1488 1578 c 0,38,39
 1664 1495 1664 1495 1733 1313 c 0,40,41
 1792 1157 1792 1157 1792 864 c 0,42,43
 1792 728 1792 728 1780 616 c 0,44,45
 1755 388 1755 388 1640 260 c 0,46,47
 1465 64 1465 64 960 64 c 0,48,49
 614 64 614 64 432 150 c 0,50,51
 256 233 256 233 187 415 c 0,52,53
 128 571 128 571 128 864 c 0,54,55
 128 1000 128 1000 140 1112 c 0,56,57
 165 1340 165 1340 280 1468 c 0,58,59
 455 1664 455 1664 960 1664 c 256,36,37
960 224 m 256,60,61
 1234 224 1234 224 1354 262 c 0,62,63
 1494 307 1494 307 1548 442 c 0,64,65
 1600 571 1600 571 1600 864 c 128,-1,66
 1600 1157 1600 1157 1548 1286 c 0,67,68
 1517 1363 1517 1363 1468.5 1404 c 128,-1,69
 1420 1445 1420 1445 1330 1474 c 0,70,71
 1236 1504 1236 1504 960 1504 c 0,72,73
 686 1504 686 1504 566 1466 c 0,74,75
 426 1421 426 1421 372 1286 c 0,76,77
 320 1157 320 1157 320 864 c 128,-1,78
 320 571 320 571 372 442 c 0,79,80
 403 365 403 365 451.5 324 c 128,-1,81
 500 283 500 283 590 254 c 0,82,83
 684 224 684 224 960 224 c 256,60,61
EndSplineSet
Validated: 1
EndChar

StartChar: macron
Encoding: 112 175 110
Width: 1024
GlyphClass: 2
Flags: MW
LayerCount: 2
Fore
SplineSet
128 1344 m 1,0,-1
 128 1504 l 1,1,-1
 896 1504 l 1,2,-1
 896 1344 l 1,3,-1
 128 1344 l 1,0,-1
EndSplineSet
Validated: 1
EndChar

StartChar: degree
Encoding: 113 176 111
Width: 1280
GlyphClass: 2
Flags: MW
LayerCount: 2
Fore
SplineSet
1088 512 m 256,0,1
 1088 403 1088 403 1054 326 c 0,2,3
 955 96 955 96 640 96 c 0,4,5
 431 96 431 96 311.5 204 c 128,-1,6
 192 312 192 312 192 512 c 0,7,8
 192 621 192 621 226 698 c 0,9,10
 325 928 325 928 640 928 c 0,11,12
 849 928 849 928 968.5 820 c 128,-1,13
 1088 712 1088 712 1088 512 c 256,0,1
896 512 m 256,14,15
 896 639 896 639 830.5 703.5 c 128,-1,16
 765 768 765 768 640 768 c 0,17,18
 384 768 384 768 384 512 c 128,-1,19
 384 256 384 256 640 256 c 128,-1,20
 896 256 896 256 896 512 c 256,14,15
EndSplineSet
Validated: 1
EndChar

StartChar: plusminus
Encoding: 114 177 112
Width: 1344
GlyphClass: 2
Flags: MW
LayerCount: 2
Fore
SplineSet
128 960 m 1,0,-1
 576 960 l 1,1,-1
 576 1408 l 1,2,-1
 768 1408 l 1,3,-1
 768 960 l 1,4,-1
 1216 960 l 1,5,-1
 1216 800 l 1,6,-1
 768 800 l 1,7,-1
 768 320 l 1,8,-1
 576 320 l 1,9,-1
 576 800 l 1,10,-1
 128 800 l 1,11,-1
 128 960 l 1,0,-1
EndSplineSet
Validated: 1
EndChar

StartChar: uni00B2
Encoding: 115 178 113
Width: 1344
GlyphClass: 2
Flags: MW
LayerCount: 2
Fore
SplineSet
128 448 m 1,0,-1
 128 672 l 2,1,2
 128 795 128 795 178 849 c 0,3,4
 244 923 244 923 448 962 c 2,5,-1
 834 1035 l 2,6,7
 891 1046 891 1046 922.5 1057.5 c 128,-1,8
 954 1069 954 1069 979.5 1091.5 c 128,-1,9
 1005 1114 1005 1114 1014.5 1149.5 c 128,-1,10
 1024 1185 1024 1185 1024 1242 c 0,11,12
 1024 1333 1024 1333 982 1366 c 128,-1,13
 940 1399 940 1399 842 1404 c 0,14,15
 752 1408 752 1408 632 1408 c 0,16,17
 490 1408 490 1408 420 1396 c 0,18,19
 355 1386 355 1386 337.5 1359.5 c 128,-1,20
 320 1333 320 1333 320 1248 c 1,21,-1
 128 1248 l 1,22,23
 128 1401 128 1401 190 1472 c 0,24,25
 242 1532 242 1532 332.5 1550.5 c 128,-1,26
 423 1569 423 1569 565 1569 c 0,27,28
 586 1569 586 1569 630 1568.5 c 128,-1,29
 674 1568 674 1568 697 1568 c 0,30,31
 787 1568 787 1568 842.5 1566 c 128,-1,32
 898 1564 898 1564 968.5 1553.5 c 128,-1,33
 1039 1543 1039 1543 1082 1522 c 0,34,35
 1158 1486 1158 1486 1187 1417 c 128,-1,36
 1216 1348 1216 1348 1216 1220 c 0,37,38
 1216 1080 1216 1080 1150 1004 c 0,39,40
 1078 918 1078 918 898 884 c 2,41,-1
 640 833 l 2,42,43
 462 798 462 798 416 782 c 0,44,45
 353 762 353 762 336.5 732 c 128,-1,46
 320 702 320 702 320 608 c 1,47,-1
 1186 608 l 1,48,-1
 1186 448 l 1,49,-1
 128 448 l 1,0,-1
EndSplineSet
Validated: 1
EndChar

StartChar: uni00B3
Encoding: 116 179 114
Width: 1471
GlyphClass: 2
Flags: MW
LayerCount: 2
Fore
SplineSet
971 1377 m 0,0,1
 948 1377 948 1377 863 1376.5 c 128,-1,2
 778 1376 778 1376 705 1376 c 0,3,4
 527 1376 527 1376 455 1370 c 0,5,6
 405 1365 405 1365 378 1355 c 0,7,8
 340 1341 340 1341 330 1315 c 128,-1,9
 320 1289 320 1289 320 1218 c 1,10,-1
 128 1218 l 1,11,12
 128 1385 128 1385 202 1456 c 0,13,14
 252 1504 252 1504 336.5 1520.5 c 128,-1,15
 421 1537 421 1537 544 1537 c 0,16,17
 579 1537 579 1537 671.5 1536.5 c 128,-1,18
 764 1536 764 1536 839 1536 c 0,19,20
 1017 1536 1017 1536 1093 1526 c 0,21,22
 1157 1518 1157 1518 1204 1499 c 0,23,24
 1282 1467 1282 1467 1312.5 1397.5 c 128,-1,25
 1343 1328 1343 1328 1343 1204 c 0,26,27
 1343 1106 1343 1106 1305 1054 c 128,-1,28
 1267 1002 1267 1002 1183 976 c 1,29,30
 1283 936 1283 936 1313 886 c 128,-1,31
 1343 836 1343 836 1343 706 c 0,32,33
 1343 645 1343 645 1326 598.5 c 128,-1,34
 1309 552 1309 552 1286 521.5 c 128,-1,35
 1263 491 1263 491 1216 470 c 128,-1,36
 1169 449 1169 449 1132.5 438.5 c 128,-1,37
 1096 428 1096 428 1026.5 423 c 128,-1,38
 957 418 957 418 915.5 417 c 128,-1,39
 874 416 874 416 791 416 c 0,40,41
 743 416 743 416 669 415.5 c 128,-1,42
 595 415 595 415 565 415 c 0,43,44
 289 415 289 415 202 490 c 0,45,46
 128 553 128 553 128 703 c 1,47,-1
 320 703 l 1,48,49
 320 663 320 663 326.5 639.5 c 128,-1,50
 333 616 333 616 352.5 604 c 128,-1,51
 372 592 372 592 392 588.5 c 128,-1,52
 412 585 412 585 455 582 c 0,53,54
 539 576 539 576 671 576 c 2,55,-1
 770 576 l 2,56,57
 859 576 859 576 957 578 c 0,58,59
 1034 580 1034 580 1074 594 c 0,60,61
 1119 609 1119 609 1134.5 642.5 c 128,-1,62
 1150 676 1150 676 1150 746 c 0,63,64
 1150 817 1150 817 1115 857 c 0,65,66
 1093 883 1093 883 1058 889.5 c 128,-1,67
 1023 896 1023 896 959 896 c 2,68,-1
 768 896 l 1,69,-1
 768 1056 l 1,70,-1
 959 1056 l 2,71,72
 1067 1056 1067 1056 1108.5 1091.5 c 128,-1,73
 1150 1127 1150 1127 1150 1226 c 0,74,75
 1150 1315 1150 1315 1109.5 1346 c 128,-1,76
 1069 1377 1069 1377 971 1377 c 0,0,1
EndSplineSet
Validated: 1
EndChar

StartChar: acute
Encoding: 117 180 115
Width: 960
GlyphClass: 2
Flags: MW
LayerCount: 2
Fore
SplineSet
832 1664 m 1,0,-1
 192 1280 l 1,1,-1
 128 1376 l 1,2,-1
 704 1856 l 1,3,-1
 832 1664 l 1,0,-1
EndSplineSet
Validated: 1
EndChar

StartChar: mu
Encoding: 118 181 116
Width: 1601
GlyphClass: 2
Flags: MW
LayerCount: 2
Fore
SplineSet
321 33 m 1,0,-1
 321 -384 l 1,1,-1
 129 -384 l 1,2,-1
 129 -104 l 1,3,-1
 128 294 l 1,4,-1
 128 580 l 1,5,-1
 129 886 l 1,6,-1
 129 1088 l 1,7,-1
 321 1088 l 1,8,-1
 321 512 l 2,9,10
 321 399 321 399 337.5 328.5 c 128,-1,11
 354 258 354 258 401 213 c 0,12,13
 490 128 490 128 769 128 c 0,14,15
 1191 128 1191 128 1260 317 c 0,16,17
 1281 376 1281 376 1281 448 c 2,18,-1
 1281 1088 l 1,19,-1
 1473 1088 l 1,20,-1
 1473 0 l 1,21,-1
 1281 0 l 1,22,-1
 1281 191 l 1,23,24
 1226 81 1226 81 1076 24 c 0,25,26
 926 -32 926 -32 690 -32 c 128,-1,27
 454 -32 454 -32 321 33 c 1,0,-1
EndSplineSet
Validated: 1
EndChar

StartChar: paragraph
Encoding: 119 182 117
Width: 1984
GlyphClass: 2
Flags: MW
LayerCount: 2
Fore
SplineSet
1088 1376 m 1,0,-1
 1088 0 l 1,1,-1
 896 0 l 1,2,-1
 896 608 l 1,3,-1
 833 608 l 2,4,5
 523 608 523 608 365 663 c 0,6,7
 285 691 285 691 240 730 c 0,8,9
 177 785 177 785 152.5 869.5 c 128,-1,10
 128 954 128 954 128 1086 c 0,11,12
 128 1215 128 1215 151.5 1294 c 128,-1,13
 175 1373 175 1373 240 1424 c 0,14,15
 382 1536 382 1536 833 1536 c 2,16,-1
 1856 1536 l 1,17,-1
 1856 1376 l 1,18,-1
 1664 1376 l 1,19,-1
 1664 0 l 1,20,-1
 1472 0 l 1,21,-1
 1472 1376 l 1,22,-1
 1088 1376 l 1,0,-1
EndSplineSet
Validated: 1
EndChar

StartChar: periodcentered
Encoding: 120 183 118
AltUni2: 002219.ffffffff.0
Width: 448
GlyphClass: 2
Flags: MW
LayerCount: 2
Fore
SplineSet
320 896 m 1,0,-1
 320 704 l 1,1,-1
 128 704 l 1,2,-1
 128 896 l 1,3,-1
 320 896 l 1,0,-1
EndSplineSet
Validated: 1
EndChar

StartChar: cedilla
Encoding: 121 184 119
Width: 640
GlyphClass: 2
Flags: MW
LayerCount: 2
Fore
SplineSet
256 -128 m 1,0,1
 512 -128 512 -128 512 -288 c 0,2,3
 512 -363 512 -363 485 -414 c 128,-1,4
 458 -465 458 -465 404.5 -493 c 128,-1,5
 351 -521 351 -521 285 -532.5 c 128,-1,6
 219 -544 219 -544 128 -544 c 1,7,-1
 128 -384 l 1,8,9
 241 -384 241 -384 268 -374 c 0,10,11
 320 -355 320 -355 320 -288 c 0,12,13
 320 -256 320 -256 299 -246 c 0,14,15
 253 -224 253 -224 128 -224 c 1,16,-1
 128 64 l 1,17,-1
 256 64 l 1,18,-1
 256 -128 l 1,0,1
EndSplineSet
Validated: 1
EndChar

StartChar: uni00B9
Encoding: 122 185 120
Width: 896
GlyphClass: 2
Flags: MW
LayerCount: 2
Fore
SplineSet
64 1120 m 1,0,-1
 512 1536 l 1,1,-1
 768 1536 l 1,2,-1
 768 448 l 1,3,-1
 576 448 l 1,4,-1
 576 1376 l 1,5,-1
 160 992 l 1,6,-1
 64 1120 l 1,0,-1
EndSplineSet
Validated: 1
EndChar

StartChar: ordmasculine
Encoding: 123 186 121
Width: 1664
GlyphClass: 2
Flags: MW
LayerCount: 2
Fore
SplineSet
128 961 m 260,0,1
 128 1208 128 1208 216.5 1339 c 128,-1,2
 305 1470 305 1470 506 1510 c 0,3,4
 640 1537 640 1537 832 1537 c 0,5,6
 940 1537 940 1537 1023.5 1530 c 128,-1,7
 1107 1523 1107 1523 1187.5 1503.5 c 128,-1,8
 1268 1484 1268 1484 1325.5 1451 c 128,-1,9
 1383 1418 1383 1418 1428 1365 c 128,-1,10
 1473 1312 1473 1312 1498 1240 c 0,11,12
 1536 1128 1536 1128 1536 961 c 0,13,14
 1536 714 1536 714 1447.5 583 c 128,-1,15
 1359 452 1359 452 1158 412 c 0,16,17
 1024 385 1024 385 832 385 c 0,18,19
 724 385 724 385 640.5 392 c 128,-1,20
 557 399 557 399 476.5 418.5 c 128,-1,21
 396 438 396 438 338.5 471 c 128,-1,22
 281 504 281 504 236 557 c 128,-1,23
 191 610 191 610 166 682 c 0,24,25
 128 794 128 794 128 961 c 260,0,1
832 1377 m 260,26,27
 768 1377 768 1377 729.5 1376 c 128,-1,28
 691 1375 691 1375 639 1371.5 c 128,-1,29
 587 1368 587 1368 554.5 1360.5 c 128,-1,30
 522 1353 522 1353 484.5 1339 c 128,-1,31
 447 1325 447 1325 423.5 1305.5 c 128,-1,32
 400 1286 400 1286 379 1256 c 128,-1,33
 358 1226 358 1226 346 1188 c 0,34,35
 320 1104 320 1104 320 989 c 0,36,37
 320 923 320 923 320.5 891 c 128,-1,38
 321 859 321 859 325.5 809.5 c 128,-1,39
 330 760 330 760 339 732 c 128,-1,40
 348 704 348 704 365 673 c 128,-1,41
 382 642 382 642 408 621 c 0,42,43
 444 591 444 591 500 575 c 0,44,45
 600 545 600 545 788 545 c 0,46,47
 972 545 972 545 1074 556 c 0,48,49
 1230 573 1230 573 1287 668.5 c 128,-1,50
 1344 764 1344 764 1344 961 c 0,51,52
 1344 1059 1344 1059 1332.5 1126.5 c 128,-1,53
 1321 1194 1321 1194 1291 1247 c 128,-1,54
 1261 1300 1261 1300 1208 1328.5 c 128,-1,55
 1155 1357 1155 1357 1074 1366 c 0,56,57
 972 1377 972 1377 832 1377 c 260,26,27
EndSplineSet
Validated: 1
EndChar

StartChar: guillemotright
Encoding: 124 187 122
Width: 1344
GlyphClass: 2
Flags: MW
LayerCount: 2
Fore
SplineSet
640 608 m 1,0,-1
 128 960 l 1,1,-1
 224 1088 l 1,2,-1
 768 704 l 1,3,-1
 768 512 l 1,4,-1
 224 128 l 1,5,-1
 128 256 l 1,6,-1
 640 608 l 1,0,-1
1088 608 m 1,7,-1
 576 960 l 1,8,-1
 672 1088 l 1,9,-1
 1216 704 l 1,10,-1
 1216 512 l 1,11,-1
 672 128 l 1,12,-1
 576 256 l 1,13,-1
 1088 608 l 1,7,-1
EndSplineSet
Validated: 1
EndChar

StartChar: AE
Encoding: 135 198 133
Width: 3072
GlyphClass: 2
Flags: MW
LayerCount: 2
Fore
SplineSet
1472 0 m 1,0,-1
 1472 352 l 1,1,-1
 582 352 l 1,2,-1
 256 0 l 1,3,-1
 0 0 l 1,4,-1
 1408 1536 l 1,5,-1
 2944 1536 l 1,6,-1
 2944 1376 l 1,7,-1
 1664 1376 l 1,8,-1
 1664 864 l 1,9,-1
 2880 864 l 1,10,-1
 2880 704 l 1,11,-1
 1664 704 l 1,12,-1
 1664 160 l 1,13,-1
 2944 160 l 1,14,-1
 2944 0 l 1,15,-1
 1472 0 l 1,0,-1
1472 512 m 1,16,-1
 1472 1376 l 1,17,-1
 704 512 l 1,18,-1
 1472 512 l 1,16,-1
EndSplineSet
Validated: 1
EndChar

StartChar: Ccedilla
Encoding: 136 199 134
Width: 2111
GlyphClass: 2
Flags: MW
LayerCount: 2
Fore
SplineSet
1087 -128 m 1,0,1
 1343 -128 1343 -128 1343 -288 c 0,2,3
 1343 -363 1343 -363 1316 -414 c 128,-1,4
 1289 -465 1289 -465 1235.5 -493 c 128,-1,5
 1182 -521 1182 -521 1116 -532.5 c 128,-1,6
 1050 -544 1050 -544 959 -544 c 1,7,-1
 959 -384 l 1,8,9
 1072 -384 1072 -384 1099 -374 c 0,10,11
 1151 -355 1151 -355 1151 -288 c 0,12,13
 1151 -256 1151 -256 1130 -246 c 0,14,15
 1084 -224 1084 -224 959 -224 c 1,16,-1
 959 -32 l 1,17,-1
 831 -32 l 2,18,19
 489 -32 489 -32 336 54 c 0,20,21
 231 112 231 112 183.5 228 c 128,-1,22
 136 344 136 344 131 520 c 0,23,24
 128 632 128 632 128 768 c 2,25,-1
 128 843 l 2,26,27
 128 1038 128 1038 144 1161.5 c 128,-1,28
 160 1285 160 1285 216 1372 c 0,29,30
 258 1439 258 1439 336 1482 c 0,31,32
 489 1568 489 1568 831 1568 c 2,33,-1
 1280 1568 l 2,34,35
 1698 1568 1698 1568 1847 1444 c 0,36,37
 1920 1384 1920 1384 1951.5 1290 c 128,-1,38
 1983 1196 1983 1196 1983 1056 c 1,39,-1
 1791 1056 l 1,40,41
 1791 1174 1791 1174 1766.5 1244 c 128,-1,42
 1742 1314 1742 1314 1679 1352 c 0,43,44
 1636 1378 1636 1378 1570 1391 c 128,-1,45
 1504 1404 1504 1404 1451 1406 c 128,-1,46
 1398 1408 1398 1408 1298 1408 c 2,47,-1
 1280 1408 l 1,48,-1
 831 1408 l 2,49,50
 567 1408 567 1408 471 1370 c 0,51,52
 413 1346 413 1346 382.5 1303.5 c 128,-1,53
 352 1261 352 1261 338 1190 c 0,54,55
 320 1098 320 1098 320 768 c 0,56,57
 320 440 320 440 336 359 c 128,-1,58
 352 278 352 278 381 234.5 c 128,-1,59
 410 191 410 191 471 166 c 0,60,61
 567 128 567 128 831 128 c 2,62,-1
 1280 128 l 2,63,64
 1514 128 1514 128 1590 150 c 0,65,66
 1661 170 1661 170 1698 195 c 128,-1,67
 1735 220 1735 220 1758 270 c 0,68,69
 1791 344 1791 344 1791 512 c 1,70,-1
 1983 512 l 1,71,72
 1983 303 1983 303 1923.5 190 c 128,-1,73
 1864 77 1864 77 1718 24 c 0,74,75
 1565 -32 1565 -32 1280 -32 c 2,76,-1
 1087 -32 l 1,77,-1
 1087 -128 l 1,0,1
EndSplineSet
Validated: 1
EndChar

StartChar: Eth
Encoding: 145 208 143
Width: 2112
GlyphClass: 2
Flags: MW
LayerCount: 2
Fore
SplineSet
0 704 m 1,0,-1
 0 864 l 1,1,-1
 128 864 l 1,2,-1
 128 1536 l 1,3,-1
 1279 1536 l 2,4,5
 1619 1536 1619 1536 1774 1453 c 0,6,7
 1855 1409 1855 1409 1896 1348 c 0,8,9
 1936 1289 1936 1289 1956.5 1196.5 c 128,-1,10
 1977 1104 1977 1104 1980.5 1028 c 128,-1,11
 1984 952 1984 952 1984 820 c 2,12,-1
 1984 768 l 258,13,14
 1984 674 1984 674 1980 530 c 0,15,16
 1974 359 1974 359 1926.5 249 c 128,-1,17
 1879 139 1879 139 1774 83 c 0,18,19
 1619 0 1619 0 1279 0 c 2,20,-1
 128 0 l 1,21,-1
 128 704 l 1,22,-1
 0 704 l 1,0,-1
320 160 m 1,23,-1
 1279 160 l 2,24,25
 1545 160 1545 160 1639 196 c 0,26,27
 1699 219 1699 219 1729 260 c 128,-1,28
 1759 301 1759 301 1775 378 c 0,29,30
 1792 460 1792 460 1792 768 c 128,-1,31
 1792 1076 1792 1076 1772 1170 c 0,32,33
 1756 1245 1756 1245 1723.5 1283.5 c 128,-1,34
 1691 1322 1691 1322 1620 1348 c 0,35,36
 1546 1376 1546 1376 1279 1376 c 2,37,-1
 320 1376 l 1,38,-1
 320 864 l 1,39,-1
 768 864 l 1,40,-1
 768 704 l 1,41,-1
 320 704 l 1,42,-1
 320 160 l 1,23,-1
EndSplineSet
Validated: 1
EndChar

StartChar: multiply
Encoding: 152 215 150
Width: 1344
GlyphClass: 2
Flags: MW
LayerCount: 2
Fore
SplineSet
1125 1181 m 1,0,-1
 808 864 l 1,1,-1
 1125 547 l 1,2,-1
 989 411 l 1,3,-1
 672 728 l 1,4,-1
 355 411 l 1,5,-1
 219 547 l 1,6,-1
 536 864 l 1,7,-1
 219 1181 l 1,8,-1
 355 1317 l 1,9,-1
 672 1000 l 1,10,-1
 989 1317 l 1,11,-1
 1125 1181 l 1,0,-1
EndSplineSet
Validated: 1
EndChar

StartChar: Oslash
Encoding: 153 216 151
Width: 2241
GlyphClass: 2
Flags: MW
LayerCount: 2
Fore
SplineSet
832 1568 m 2,0,-1
 1414 1568 l 1,1,-1
 1504 1792 l 1,2,-1
 1664 1728 l 1,3,-1
 1596 1561 l 1,4,5
 1657 1555 1657 1555 1742 1540 c 0,6,7
 1831 1525 1831 1525 1908 1480 c 128,-1,8
 1985 1435 1985 1435 2025 1372 c 128,-1,9
 2065 1309 2065 1309 2085.5 1210.5 c 128,-1,10
 2106 1112 2106 1112 2109.5 1032 c 128,-1,11
 2113 952 2113 952 2113 812 c 2,12,-1
 2113 768 l 257,13,-1
 2113 712 l 2,14,15
 2113 576 2113 576 2109.5 497.5 c 128,-1,16
 2106 419 2106 419 2085.5 322.5 c 128,-1,17
 2065 226 2065 226 2025 164 c 0,18,19
 1983 97 1983 97 1905 54 c 0,20,21
 1752 -32 1752 -32 1410 -32 c 2,22,-1
 954 -32 l 1,23,-1
 864 -256 l 1,24,-1
 704 -192 l 1,25,-1
 769 -31 l 1,26,27
 477 -25 477 -25 337 54 c 0,28,29
 232 112 232 112 184.5 228 c 128,-1,30
 137 344 137 344 132 520 c 0,31,32
 129 632 129 632 129 768 c 2,33,-1
 129 843 l 2,34,35
 129 1040 129 1040 144.5 1162.5 c 128,-1,36
 160 1285 160 1285 216 1372 c 0,37,38
 258 1438 258 1438 337 1482 c 0,39,40
 490 1568 490 1568 832 1568 c 2,0,-1
832 1408 m 2,41,42
 568 1408 568 1408 472 1370 c 0,43,44
 414 1346 414 1346 383.5 1303.5 c 128,-1,45
 353 1261 353 1261 339 1190 c 0,46,47
 321 1098 321 1098 321 768 c 0,48,49
 321 446 321 446 338 359 c 0,50,51
 354 278 354 278 382.5 234.5 c 128,-1,52
 411 191 411 191 472 166 c 0,53,54
 568 128 568 128 832 128 c 2,55,-1
 833 128 l 1,56,-1
 1349 1408 l 1,57,-1
 832 1408 l 2,41,42
1410 128 m 2,58,59
 1673 128 1673 128 1769 166 c 0,60,61
 1827 190 1827 190 1857.5 232.5 c 128,-1,62
 1888 275 1888 275 1902 346 c 0,63,64
 1921 440 1921 440 1921 768 c 0,65,66
 1921 1090 1921 1090 1904 1177 c 0,67,68
 1881 1292 1881 1292 1821.5 1340.5 c 128,-1,69
 1762 1389 1762 1389 1625 1400 c 0,70,71
 1585 1404 1585 1404 1534 1406 c 1,72,-1
 1019 128 l 1,73,-1
 1410 128 l 2,58,59
EndSplineSet
Validated: 1
EndChar

StartChar: Thorn
Encoding: 159 222 157
Width: 1920
GlyphClass: 2
Flags: MW
LayerCount: 2
Fore
SplineSet
128 0 m 1,0,-1
 128 1536 l 1,1,-1
 320 1536 l 1,2,-1
 320 1344 l 1,3,-1
 1282 1344 l 2,4,5
 1557 1344 1557 1344 1686 1294 c 0,6,7
 1750 1269 1750 1269 1784 1232 c 0,8,9
 1817 1197 1817 1197 1833.5 1140 c 128,-1,10
 1850 1083 1850 1083 1853 1034 c 128,-1,11
 1856 985 1856 985 1856 894 c 0,12,13
 1856 840 1856 840 1852 752 c 0,14,15
 1844 610 1844 610 1768 538 c 0,16,17
 1640 416 1640 416 1151 416 c 2,18,-1
 320 416 l 1,19,-1
 320 0 l 1,20,-1
 128 0 l 1,0,-1
320 1184 m 1,21,-1
 320 576 l 1,22,-1
 1151 576 l 2,23,24
 1412 576 1412 576 1511 597 c 0,25,26
 1587 613 1587 613 1622.5 653.5 c 128,-1,27
 1658 694 1658 694 1662 776 c 0,28,29
 1664 810 1664 810 1664 935 c 0,30,31
 1664 1024 1664 1024 1650.5 1068 c 128,-1,32
 1637 1112 1637 1112 1602.5 1134 c 128,-1,33
 1568 1156 1568 1156 1495 1170 c 0,34,35
 1419 1184 1419 1184 1151 1184 c 2,36,-1
 320 1184 l 1,21,-1
EndSplineSet
Validated: 1
EndChar

StartChar: germandbls
Encoding: 160 223 158
Width: 2048
GlyphClass: 2
Flags: MW
LayerCount: 2
Fore
SplineSet
769 1536 m 2,0,-1
 1280 1536 l 2,1,2
 1560 1536 1560 1536 1680 1444 c 0,3,4
 1792 1359 1792 1359 1792 1186 c 0,5,6
 1792 1105 1792 1105 1784 1061 c 0,7,8
 1747 846 1747 846 1600 832 c 1,9,10
 1688 828 1688 828 1760 788 c 0,11,12
 1920 698 1920 698 1920 471 c 0,13,14
 1920 344 1920 344 1897 258.5 c 128,-1,15
 1874 173 1874 173 1816 119 c 0,16,17
 1688 0 1688 0 1279 0 c 2,18,-1
 512 0 l 1,19,-1
 512 160 l 1,20,-1
 1215 160 l 2,21,22
 1457 160 1457 160 1548 178 c 0,23,24
 1603 190 1603 190 1640 212 c 0,25,26
 1698 248 1698 248 1713 311 c 128,-1,27
 1728 374 1728 374 1728 501 c 0,28,29
 1728 595 1728 595 1694 646 c 0,30,31
 1671 681 1671 681 1635.5 695 c 128,-1,32
 1600 709 1600 709 1528 722 c 0,33,34
 1449 736 1449 736 1215 736 c 2,35,-1
 512 736 l 1,36,-1
 512 896 l 1,37,-1
 1215 896 l 1,38,-1
 1223 896 l 2,39,40
 1306 896 1306 896 1349.5 898 c 128,-1,41
 1393 900 1393 900 1445.5 911.5 c 128,-1,42
 1498 923 1498 923 1530 946 c 0,43,44
 1570 975 1570 975 1585 1027.5 c 128,-1,45
 1600 1080 1600 1080 1600 1162 c 0,46,47
 1600 1242 1600 1242 1575 1280.5 c 128,-1,48
 1550 1319 1550 1319 1487 1347 c 0,49,50
 1421 1376 1421 1376 1216 1376 c 2,51,-1
 833 1376 l 2,52,53
 591 1376 591 1376 500 1358 c 0,54,55
 439 1346 439 1346 405.5 1324 c 128,-1,56
 372 1302 372 1302 346 1255 c 0,57,58
 320 1209 320 1209 320 1058 c 2,59,-1
 320 -128 l 1,60,-1
 128 -128 l 1,61,-1
 128 1058 l 2,62,63
 128 1190 128 1190 150.5 1276 c 128,-1,64
 173 1362 173 1362 232 1417 c 0,65,66
 360 1536 360 1536 769 1536 c 2,0,-1
EndSplineSet
Validated: 1
EndChar

StartChar: ae
Encoding: 167 230 165
Width: 2752
GlyphClass: 2
Flags: MW
LayerCount: 2
Fore
SplineSet
1382 896 m 1,0,1
 1441 1020 1441 1020 1575 1070 c 128,-1,2
 1709 1120 1709 1120 1925 1120 c 0,3,4
 2121 1120 2121 1120 2222 1102 c 0,5,6
 2434 1063 2434 1063 2529 942 c 128,-1,7
 2624 821 2624 821 2624 576 c 1,8,-1
 2608 512 l 1,9,-1
 1472 512 l 1,10,-1
 1472 486 l 2,11,12
 1474 367 1474 367 1500 294.5 c 128,-1,13
 1526 222 1526 222 1590 184 c 0,14,15
 1634 158 1634 158 1702 145 c 128,-1,16
 1770 132 1770 132 1824.5 130 c 128,-1,17
 1879 128 1879 128 1980 128 c 0,18,19
 2109 128 2109 128 2202 136 c 0,20,21
 2319 146 2319 146 2375.5 183.5 c 128,-1,22
 2432 221 2432 221 2432 320 c 1,23,-1
 2624 320 l 1,24,25
 2624 126 2624 126 2484 48 c 0,26,27
 2341 -32 2341 -32 2016 -32 c 0,28,29
 1772 -32 1772 -32 1618 4 c 128,-1,30
 1464 40 1464 40 1382 145 c 1,31,32
 1280 11 1280 11 984 -26 c 0,33,34
 908 -36 908 -36 762 -36 c 0,35,36
 679 -36 679 -36 609.5 -31 c 128,-1,37
 540 -26 540 -26 464 -14 c 128,-1,38
 388 -2 388 -2 330.5 22 c 128,-1,39
 273 46 273 46 225.5 81 c 128,-1,40
 178 116 178 116 153 170 c 128,-1,41
 128 224 128 224 128 293 c 0,42,43
 128 534 128 534 304 606 c 0,44,45
 411 650 411 650 542 654 c 0,46,47
 689 659 689 659 763 659 c 0,48,49
 938 659 938 659 1085.5 632 c 128,-1,50
 1233 605 1233 605 1280 544 c 1,51,52
 1280 725 1280 725 1244 815.5 c 128,-1,53
 1208 906 1208 906 1100 938 c 0,54,55
 1025 960 1025 960 863 960 c 0,56,57
 708 960 708 960 615 952 c 0,58,59
 558 947 558 947 520 938 c 128,-1,60
 482 929 482 929 448.5 909.5 c 128,-1,61
 415 890 415 890 399.5 855 c 128,-1,62
 384 820 384 820 384 768 c 1,63,-1
 192 768 l 1,64,65
 192 963 192 963 332 1040 c 0,66,67
 477 1120 477 1120 834 1120 c 0,68,69
 1062 1120 1062 1120 1153 1088 c 0,70,71
 1241 1056 1241 1056 1291.5 1013.5 c 128,-1,72
 1342 971 1342 971 1382 896 c 1,0,1
564 136 m 0,73,74
 673 128 673 128 814 128 c 0,75,76
 956 128 956 128 1036.5 136.5 c 128,-1,77
 1117 145 1117 145 1184 176 c 0,78,79
 1280 221 1280 221 1280 320 c 256,80,81
 1280 417 1280 417 1170 456 c 0,82,83
 1057 496 1057 496 770 496 c 0,84,85
 477 496 477 496 414 473 c 0,86,87
 358 452 358 452 339 421 c 128,-1,88
 320 390 320 390 320 320 c 0,89,90
 320 253 320 253 339.5 218 c 128,-1,91
 359 183 359 183 409 164 c 0,92,93
 462 144 462 144 564 136 c 0,73,74
1972 960 m 0,94,95
 1918 960 1918 960 1891 959.5 c 128,-1,96
 1864 959 1864 959 1816.5 957.5 c 128,-1,97
 1769 956 1769 956 1742.5 952 c 128,-1,98
 1716 948 1716 948 1678 941.5 c 128,-1,99
 1640 935 1640 935 1617 924 c 128,-1,100
 1594 913 1594 913 1568.5 897.5 c 128,-1,101
 1543 882 1543 882 1526 860.5 c 128,-1,102
 1509 839 1509 839 1498 812 c 0,103,104
 1472 748 1472 748 1472 640 c 1,105,-1
 2432 640 l 1,106,107
 2432 827 2432 827 2328 896 c 0,108,109
 2233 960 2233 960 1972 960 c 0,94,95
EndSplineSet
Validated: 1
EndChar

StartChar: ccedilla
Encoding: 168 231 166
Width: 1601
GlyphClass: 2
Flags: MW
LayerCount: 2
Fore
SplineSet
1088 -288 m 0,0,1
 1088 -375 1088 -375 1054.5 -424 c 128,-1,2
 1021 -473 1021 -473 951 -508 c 0,3,4
 880 -544 880 -544 704 -544 c 1,5,-1
 704 -384 l 1,6,7
 816 -384 816 -384 848 -372 c 0,8,9
 896 -353 896 -353 896 -300 c 0,10,11
 896 -276 896 -276 893 -264 c 0,12,13
 883 -224 883 -224 704 -224 c 1,14,-1
 704 -29 l 1,15,16
 489 -19 489 -19 364.5 28.5 c 128,-1,17
 240 76 240 76 182 196 c 0,18,19
 128 310 128 310 128 544 c 128,-1,20
 128 778 128 778 182 892 c 0,21,22
 242 1019 242 1019 394 1070 c 0,23,24
 542 1120 542 1120 833 1120 c 0,25,26
 1205 1120 1205 1120 1345 1020 c 0,27,28
 1413 972 1413 972 1443 896 c 128,-1,29
 1473 820 1473 820 1473 704 c 1,30,-1
 1281 704 l 1,31,32
 1281 788 1281 788 1266.5 831 c 128,-1,33
 1252 874 1252 874 1221.5 895 c 128,-1,34
 1191 916 1191 916 1121 937 c 0,35,36
 1043 960 1043 960 833 960 c 0,37,38
 579 960 579 960 473 924 c 0,39,40
 417 905 417 905 386 873.5 c 128,-1,41
 355 842 355 842 338 786 c 128,-1,42
 321 730 321 730 321 544 c 0,43,44
 321 355 321 355 340 294 c 0,45,46
 364 215 364 215 432 181.5 c 128,-1,47
 500 148 500 148 618 136 c 0,48,49
 695 128 695 128 875 128 c 0,50,51
 1046 128 1046 128 1148 159 c 0,52,53
 1199 175 1199 175 1225 196 c 0,54,55
 1261 226 1261 226 1271 262 c 128,-1,56
 1281 298 1281 298 1281 384 c 1,57,-1
 1473 384 l 1,58,59
 1473 268 1473 268 1443 192 c 128,-1,60
 1413 116 1413 116 1345 68 c 0,61,62
 1205 -32 1205 -32 833 -32 c 2,63,-1
 832 -32 l 1,64,-1
 832 -128 l 1,65,66
 1088 -128 1088 -128 1088 -288 c 0,0,1
EndSplineSet
Validated: 1
EndChar

StartChar: eth
Encoding: 177 240 175
Width: 1984
GlyphClass: 2
Flags: MW
LayerCount: 2
Fore
SplineSet
1856 768 m 0,0,1
 1856 670 1856 670 1852 520 c 0,2,3
 1846 343 1846 343 1799 227 c 128,-1,4
 1752 111 1752 111 1648 54 c 0,5,6
 1494 -32 1494 -32 1152 -32 c 2,7,-1
 831 -32 l 2,8,9
 419 -32 419 -32 264 88 c 0,10,11
 191 145 191 145 159.5 231.5 c 128,-1,12
 128 318 128 318 128 448 c 0,13,14
 128 566 128 566 157 658 c 0,15,16
 182 737 182 737 242.5 791.5 c 128,-1,17
 303 846 303 846 391.5 875 c 128,-1,18
 480 904 480 904 576.5 916 c 128,-1,19
 673 928 673 928 794 928 c 0,20,21
 1010 928 1010 928 1083 926 c 0,22,23
 1530 915 1530 915 1664 832 c 1,24,25
 1664 1020 1664 1020 1631 1136 c 1,26,-1
 1324 1026 l 1,27,-1
 1281 1146 l 1,28,-1
 1579 1253 l 1,29,30
 1540 1310 1540 1310 1489 1339.5 c 128,-1,31
 1438 1369 1438 1369 1351 1388 c 0,32,33
 1260 1408 1260 1408 1024 1408 c 0,34,35
 719 1408 719 1408 566 1369 c 0,36,37
 492 1350 492 1350 448 1324 c 0,38,39
 395 1292 395 1292 373.5 1249 c 128,-1,40
 352 1206 352 1206 352 1120 c 1,41,-1
 193 1120 l 1,42,43
 193 1276 193 1276 252 1364 c 0,44,45
 288 1417 288 1417 349 1455.5 c 128,-1,46
 410 1494 410 1494 479 1515 c 128,-1,47
 548 1536 548 1536 642.5 1548.5 c 128,-1,48
 737 1561 737 1561 818 1564.5 c 128,-1,49
 899 1568 899 1568 1006 1568 c 0,50,51
 1166 1568 1166 1568 1278 1553 c 0,52,53
 1605 1510 1605 1510 1739 1311 c 1,54,-1
 2004 1406 l 1,55,-1
 2047 1286 l 1,56,-1
 1796 1196 l 1,57,58
 1856 1037 1856 1037 1856 768 c 0,0,1
500 742 m 0,59,60
 441 728 441 728 406.5 703.5 c 128,-1,61
 372 679 372 679 346 632 c 0,62,63
 320 586 320 586 320 448 c 0,64,65
 320 297 320 297 361 237.5 c 128,-1,66
 402 178 402 178 524 148 c 0,67,68
 607 128 607 128 831 128 c 2,69,-1
 1152 128 l 2,70,71
 1313 128 1313 128 1408.5 141 c 128,-1,72
 1504 154 1504 154 1566 200 c 0,73,74
 1624 243 1624 243 1644 316.5 c 128,-1,75
 1664 390 1664 390 1664 514 c 0,76,77
 1664 636 1664 636 1613 682 c 0,78,79
 1577 715 1577 715 1521 730 c 128,-1,80
 1465 745 1465 745 1376 754 c 0,81,82
 1233 768 1233 768 876 768 c 2,83,-1
 868 768 l 1,84,-1
 821 768 l 2,85,86
 702 768 702 768 635.5 763.5 c 128,-1,87
 569 759 569 759 500 742 c 0,59,60
EndSplineSet
Validated: 1
EndChar

StartChar: divide
Encoding: 184 247 182
Width: 1280
GlyphClass: 2
Flags: MW
LayerCount: 2
Fore
SplineSet
128 512 m 1,0,-1
 128 672 l 1,1,-1
 1152 672 l 1,2,-1
 1152 512 l 1,3,-1
 128 512 l 1,0,-1
768 960 m 1,4,-1
 768 768 l 1,5,-1
 576 768 l 1,6,-1
 576 960 l 1,7,-1
 768 960 l 1,4,-1
768 384 m 1,8,-1
 768 192 l 1,9,-1
 576 192 l 1,10,-1
 576 384 l 1,11,-1
 768 384 l 1,8,-1
EndSplineSet
Validated: 1
EndChar

StartChar: oslash
Encoding: 185 248 183
Width: 1664
GlyphClass: 2
Flags: MW
LayerCount: 2
Fore
SplineSet
506 -5 m 0,0,1
 302 36 302 36 215 167 c 128,-1,2
 128 298 128 298 128 544 c 0,3,4
 128 791 128 791 216.5 922 c 128,-1,5
 305 1053 305 1053 506 1093 c 0,6,7
 640 1120 640 1120 774 1120 c 0,8,9
 900 1120 900 1120 975 1115 c 1,10,-1
 1056 1312 l 1,11,-1
 1216 1248 l 1,12,-1
 1152 1094 l 2,13,14
 1154 1093 1154 1093 1158 1093 c 0,15,16
 1362 1052 1362 1052 1449 921 c 128,-1,17
 1536 790 1536 790 1536 544 c 0,18,19
 1536 297 1536 297 1447.5 166 c 128,-1,20
 1359 35 1359 35 1158 -5 c 0,21,22
 1024 -32 1024 -32 890 -32 c 0,23,24
 764 -32 764 -32 689 -27 c 1,25,-1
 608 -224 l 1,26,-1
 448 -160 l 1,27,-1
 511 -6 l 2,28,29
 510 -5 510 -5 506 -5 c 0,0,1
432 896 m 0,30,31
 320 817 320 817 320 572 c 0,32,33
 320 516 320 516 321 480.5 c 128,-1,34
 322 445 322 445 326 402 c 128,-1,35
 330 359 330 359 337 331 c 128,-1,36
 344 303 344 303 357 272.5 c 128,-1,37
 370 242 370 242 389.5 222.5 c 128,-1,38
 409 203 409 203 436.5 186 c 128,-1,39
 464 169 464 169 500 158 c 0,40,41
 525 150 525 150 572 141 c 1,42,-1
 910 959 l 1,43,44
 885 960 885 960 780 960 c 0,45,46
 523 960 523 960 432 896 c 0,30,31
753 128 m 1,47,-1
 884 128 l 2,48,49
 1141 128 1141 128 1232 192 c 0,50,51
 1297 237 1297 237 1320.5 321 c 128,-1,52
 1344 405 1344 405 1344 544 c 0,53,54
 1344 681 1344 681 1320.5 765.5 c 128,-1,55
 1297 850 1297 850 1234 894 c 0,56,57
 1178 934 1178 934 1091 946 c 1,58,-1
 753 128 l 1,47,-1
EndSplineSet
Validated: 1
EndChar

StartChar: thorn
Encoding: 191 254 189
Width: 1600
GlyphClass: 2
Flags: MW
LayerCount: 2
Fore
SplineSet
886 1120 m 0,0,1
 1024 1120 1024 1120 1158 1093 c 0,2,3
 1359 1053 1359 1053 1447.5 922 c 128,-1,4
 1536 791 1536 791 1536 544 c 0,5,6
 1536 378 1536 378 1498.5 266.5 c 128,-1,7
 1461 155 1461 155 1376 88 c 0,8,9
 1300 28 1300 28 1168 -2 c 128,-1,10
 1036 -32 1036 -32 886 -32 c 0,11,12
 744 -32 744 -32 682 -25 c 0,13,14
 387 7 387 7 320 128 c 1,15,-1
 320 -384 l 1,16,-1
 128 -384 l 1,17,-1
 128 1536 l 1,18,-1
 320 1536 l 1,19,-1
 320 961 l 1,20,21
 410 1120 410 1120 886 1120 c 0,0,1
661 956 m 0,22,23
 434 944 434 944 368 824 c 0,24,25
 320 737 320 737 320 547 c 0,26,27
 320 356 320 356 368 266 c 0,28,29
 388 228 388 228 420 202 c 128,-1,30
 452 176 452 176 487 161.5 c 128,-1,31
 522 147 522 147 575 139.5 c 128,-1,32
 628 132 628 132 672.5 130 c 128,-1,33
 717 128 717 128 786 128 c 2,34,-1
 900 128 l 2,35,36
 1064 128 1064 128 1164 158 c 0,37,38
 1226 177 1226 177 1259.5 206.5 c 128,-1,39
 1293 236 1293 236 1318 295 c 0,40,41
 1344 358 1344 358 1344 544 c 0,42,43
 1344 732 1344 732 1312 808 c 0,44,45
 1294 851 1294 851 1258 880.5 c 128,-1,46
 1222 910 1222 910 1182.5 925.5 c 128,-1,47
 1143 941 1143 941 1078.5 949 c 128,-1,48
 1014 957 1014 957 966.5 958.5 c 128,-1,49
 919 960 919 960 840 960 c 0,50,51
 728 960 728 960 661 956 c 0,22,23
EndSplineSet
Validated: 1
EndChar

StartChar: dcroat
Encoding: 210 273 202
Width: 1664
GlyphClass: 2
Flags: MW
LayerCount: 2
Fore
SplineSet
778 1120 m 0,0,1
 1255 1120 1255 1120 1344 960 c 1,2,-1
 1344 1249 l 1,3,-1
 896 1249 l 1,4,-1
 896 1409 l 1,5,-1
 1344 1409 l 1,6,-1
 1344 1536 l 1,7,-1
 1536 1536 l 1,8,-1
 1536 1409 l 1,9,-1
 1664 1409 l 1,10,-1
 1664 1249 l 1,11,-1
 1536 1249 l 1,12,-1
 1536 0 l 1,13,-1
 1344 0 l 1,14,-1
 1344 127 l 1,15,16
 1256 -32 1256 -32 832 -32 c 0,17,18
 724 -32 724 -32 640.5 -25 c 128,-1,19
 557 -18 557 -18 476.5 1.5 c 128,-1,20
 396 21 396 21 338.5 54 c 128,-1,21
 281 87 281 87 236 140 c 128,-1,22
 191 193 191 193 166 265 c 0,23,24
 128 377 128 377 128 544 c 0,25,26
 128 791 128 791 216.5 922 c 128,-1,27
 305 1053 305 1053 506 1093 c 0,28,29
 640 1120 640 1120 778 1120 c 0,0,1
408 204 m 0,30,31
 468 156 468 156 567 142 c 128,-1,32
 666 128 666 128 824 128 c 2,33,-1
 826 128 l 2,34,35
 879 128 879 128 905.5 128.5 c 128,-1,36
 932 129 932 129 978 130.5 c 128,-1,37
 1024 132 1024 132 1049.5 135.5 c 128,-1,38
 1075 139 1075 139 1112 145 c 128,-1,39
 1149 151 1149 151 1171.5 161 c 128,-1,40
 1194 171 1194 171 1220 185 c 128,-1,41
 1246 199 1246 199 1264 219 c 128,-1,42
 1282 239 1282 239 1296 264 c 0,43,44
 1344 351 1344 351 1344 541 c 0,45,46
 1344 724 1344 724 1300.5 815.5 c 128,-1,47
 1257 907 1257 907 1135 938 c 0,48,49
 1048 960 1048 960 883 960 c 0,50,51
 719 960 719 960 638 954 c 0,52,53
 524 945 524 945 453 912.5 c 128,-1,54
 382 880 382 880 352 808 c 0,55,56
 320 732 320 732 320 544 c 0,57,58
 320 358 320 358 346 295 c 0,59,60
 372 233 372 233 408 204 c 0,30,31
EndSplineSet
Validated: 1
EndChar

StartChar: dotlessi
Encoding: 242 305 229
Width: 448
GlyphClass: 2
Flags: MW
LayerCount: 2
Fore
SplineSet
128 0 m 1,0,-1
 128 1088 l 1,1,-1
 320 1088 l 1,2,-1
 320 0 l 1,3,-1
 128 0 l 1,0,-1
EndSplineSet
Validated: 1
EndChar

StartChar: kgreenlandic
Encoding: 249 312 236
Width: 1408
GlyphClass: 2
Flags: MW
LayerCount: 2
Fore
SplineSet
128 0 m 1,0,-1
 128 1536 l 1,1,-1
 320 1536 l 1,2,-1
 320 656 l 1,3,-1
 384 656 l 1,4,-1
 1088 1088 l 1,5,-1
 1376 1088 l 1,6,-1
 560 576 l 1,7,-1
 1408 0 l 1,8,-1
 1120 0 l 1,9,-1
 384 512 l 1,10,-1
 320 512 l 1,11,-1
 320 0 l 1,12,-1
 128 0 l 1,0,-1
EndSplineSet
Validated: 1
EndChar

StartChar: Lslash
Encoding: 258 321 245
Width: 1664
GlyphClass: 2
Flags: MW
LayerCount: 2
Fore
SplineSet
64 768 m 1,0,-1
 64 928 l 1,1,-1
 768 1088 l 1,2,-1
 768 928 l 1,3,-1
 64 768 l 1,0,-1
1600 0 m 1,4,-1
 192 0 l 1,5,-1
 192 1536 l 1,6,-1
 384 1536 l 1,7,-1
 384 160 l 1,8,-1
 1600 160 l 1,9,-1
 1600 0 l 1,4,-1
EndSplineSet
Validated: 5
EndChar

StartChar: lslash
Encoding: 259 322 246
Width: 512
GlyphClass: 2
Flags: MW
LayerCount: 2
Fore
SplineSet
0 768 m 1,0,-1
 0 928 l 1,1,-1
 576 1088 l 1,2,-1
 576 928 l 1,3,-1
 0 768 l 1,0,-1
128 0 m 1,4,-1
 128 1536 l 1,5,-1
 320 1536 l 1,6,-1
 320 0 l 1,7,-1
 128 0 l 1,4,-1
EndSplineSet
Validated: 5
EndChar

StartChar: OE
Encoding: 275 338 259
Width: 3520
GlyphClass: 2
Flags: MW
LayerCount: 2
Fore
SplineSet
1409 1564 m 2,0,1
 1417 1564 1417 1564 1433 1564.5 c 128,-1,2
 1449 1565 1449 1565 1457 1565 c 0,3,4
 1770 1565 1770 1565 1920 1472 c 1,5,-1
 1920 1536 l 1,6,-1
 3456 1536 l 1,7,-1
 3456 1376 l 1,8,-1
 2112 1376 l 1,9,-1
 2112 864 l 1,10,-1
 3392 864 l 1,11,-1
 3392 704 l 1,12,-1
 2112 704 l 1,13,-1
 2112 160 l 1,14,-1
 3456 160 l 1,15,-1
 3456 0 l 1,16,-1
 1920 0 l 1,17,-1
 1920 64 l 1,18,19
 1764 -32 1764 -32 1409 -32 c 2,20,-1
 831 -32 l 2,21,22
 489 -32 489 -32 336 54 c 0,23,24
 231 112 231 112 183.5 228 c 128,-1,25
 136 344 136 344 131 520 c 0,26,27
 128 632 128 632 128 768 c 2,28,-1
 128 843 l 2,29,30
 128 1038 128 1038 144 1161.5 c 128,-1,31
 160 1285 160 1285 216 1372 c 0,32,33
 258 1439 258 1439 336 1482 c 0,34,35
 485 1565 485 1565 780 1565 c 0,36,37
 788 1565 788 1565 805 1564.5 c 128,-1,38
 822 1564 822 1564 831 1564 c 2,39,-1
 1409 1564 l 2,0,1
1409 128 m 2,40,41
 1672 128 1672 128 1768 166 c 0,42,43
 1826 190 1826 190 1856.5 232.5 c 128,-1,44
 1887 275 1887 275 1901 346 c 0,45,46
 1920 440 1920 440 1920 768 c 128,-1,47
 1920 1096 1920 1096 1904 1177 c 0,48,49
 1888 1257 1888 1257 1858.5 1301 c 128,-1,50
 1829 1345 1829 1345 1768 1370 c 0,51,52
 1684 1404 1684 1404 1484 1404 c 2,53,-1
 1409 1404 l 1,54,-1
 831 1404 l 2,55,56
 804 1405 804 1405 753 1405 c 0,57,58
 671 1405 671 1405 617 1401 c 128,-1,59
 563 1397 563 1397 511.5 1384 c 128,-1,60
 460 1371 460 1371 428 1347.5 c 128,-1,61
 396 1324 396 1324 372.5 1285 c 128,-1,62
 349 1246 349 1246 338 1190 c 0,63,64
 320 1098 320 1098 320 768 c 0,65,66
 320 440 320 440 336 359 c 128,-1,67
 352 278 352 278 381 234.5 c 128,-1,68
 410 191 410 191 471 166 c 0,69,70
 567 128 567 128 831 128 c 2,71,-1
 1409 128 l 2,40,41
EndSplineSet
Validated: 1
EndChar

StartChar: oe
Encoding: 276 339 260
Width: 2816
GlyphClass: 2
Flags: MW
LayerCount: 2
Fore
SplineSet
1440 896 m 1,0,1
 1464 992 1464 992 1639 1056 c 0,2,3
 1813 1120 1813 1120 2048 1120 c 0,4,5
 2307 1120 2307 1120 2458 1049 c 0,6,7
 2581 990 2581 990 2634.5 878 c 128,-1,8
 2688 766 2688 766 2688 576 c 1,9,-1
 2672 512 l 1,10,-1
 1536 512 l 1,11,12
 1536 328 1536 328 1595 241 c 128,-1,13
 1654 154 1654 154 1806 138 c 0,14,15
 1899 128 1899 128 2110 128 c 0,16,17
 2317 128 2317 128 2404 164 c 0,18,19
 2453 184 2453 184 2474.5 220 c 128,-1,20
 2496 256 2496 256 2496 320 c 1,21,-1
 2688 320 l 1,22,23
 2688 164 2688 164 2601.5 88 c 128,-1,24
 2515 12 2515 12 2350 -13 c 0,25,26
 2225 -33 2225 -33 2083 -33 c 0,27,28
 1938 -33 1938 -33 1812.5 -12 c 128,-1,29
 1687 9 1687 9 1583 61.5 c 128,-1,30
 1479 114 1479 114 1440 192 c 1,31,32
 1390 93 1390 93 1228 32 c 0,33,34
 1136 -3 1136 -3 1036 -17.5 c 128,-1,35
 936 -32 936 -32 794 -32 c 0,36,37
 640 -32 640 -32 506 -5 c 0,38,39
 305 35 305 35 216.5 166 c 128,-1,40
 128 297 128 297 128 544 c 0,41,42
 128 711 128 711 166 823 c 0,43,44
 187 885 187 885 221.5 932.5 c 128,-1,45
 256 980 256 980 304.5 1012.5 c 128,-1,46
 353 1045 353 1045 408.5 1066.5 c 128,-1,47
 464 1088 464 1088 537 1099.5 c 128,-1,48
 610 1111 610 1111 683.5 1115.5 c 128,-1,49
 757 1120 757 1120 851 1120 c 0,50,51
 934 1120 934 1120 1027.5 1106 c 128,-1,52
 1121 1092 1121 1092 1209.5 1065.5 c 128,-1,53
 1298 1039 1298 1039 1362 994.5 c 128,-1,54
 1426 950 1426 950 1440 896 c 1,0,1
408 204 m 0,55,56
 444 174 444 174 500 158 c 0,57,58
 547 144 547 144 607 137 c 128,-1,59
 667 130 667 130 711.5 129 c 128,-1,60
 756 128 756 128 848 128 c 0,61,62
 972 128 972 128 1074 139 c 0,63,64
 1155 148 1155 148 1208 176.5 c 128,-1,65
 1261 205 1261 205 1291 258 c 128,-1,66
 1321 311 1321 311 1332.5 378.5 c 128,-1,67
 1344 446 1344 446 1344 544 c 0,68,69
 1344 687 1344 687 1318 771 c 0,70,71
 1306 810 1306 810 1285 839.5 c 128,-1,72
 1264 869 1264 869 1240.5 889 c 128,-1,73
 1217 909 1217 909 1179 922.5 c 128,-1,74
 1141 936 1141 936 1109.5 943.5 c 128,-1,75
 1078 951 1078 951 1025.5 954.5 c 128,-1,76
 973 958 973 958 935 959 c 128,-1,77
 897 960 897 960 832 960 c 2,78,-1
 825 960 l 2,79,80
 719 960 719 960 665.5 958 c 128,-1,81
 612 956 612 956 543.5 941 c 128,-1,82
 475 926 475 926 432 896 c 0,83,84
 320 817 320 817 320 572 c 0,85,86
 320 506 320 506 320.5 474 c 128,-1,87
 321 442 321 442 325.5 392.5 c 128,-1,88
 330 343 330 343 339 315 c 128,-1,89
 348 287 348 287 365 256 c 128,-1,90
 382 225 382 225 408 204 c 0,55,56
1562 812 m 0,91,92
 1536 748 1536 748 1536 640 c 1,93,-1
 2496 640 l 1,94,95
 2496 827 2496 827 2392 896 c 0,96,97
 2333 935 2333 935 2251 947.5 c 128,-1,98
 2169 960 2169 960 2036 960 c 0,99,100
 1982 960 1982 960 1955 959.5 c 128,-1,101
 1928 959 1928 959 1880.5 957.5 c 128,-1,102
 1833 956 1833 956 1806.5 952 c 128,-1,103
 1780 948 1780 948 1742 941.5 c 128,-1,104
 1704 935 1704 935 1681 924 c 128,-1,105
 1658 913 1658 913 1632.5 897.5 c 128,-1,106
 1607 882 1607 882 1590 860.5 c 128,-1,107
 1573 839 1573 839 1562 812 c 0,91,92
EndSplineSet
Validated: 1
EndChar

StartChar: scedilla
Encoding: 288 351 272
Width: 1600
GlyphClass: 2
Flags: MW
LayerCount: 2
Fore
SplineSet
832 -203 m 5,0,1
 1088 -203 1088 -203 1088 -363 c 0,2,3
 1088 -438 1088 -438 1061 -489 c 128,-1,4
 1034 -540 1034 -540 980.5 -568 c 128,-1,5
 927 -596 927 -596 861 -607.5 c 128,-1,6
 795 -619 795 -619 704 -619 c 1,7,-1
 704 -459 l 1,8,9
 814 -459 814 -459 844 -448 c 0,10,11
 896 -429 896 -429 896 -363 c 0,12,13
 896 -330 896 -330 875 -320 c 0,14,15
 831 -299 831 -299 704 -299 c 1,16,-1
 704 -11 l 1,17,18
 400 -5 400 -5 268 64 c 0,19,20
 128 138 128 138 128 320 c 1,21,-1
 320 320 l 1,22,23
 320 256 320 256 341.5 220 c 128,-1,24
 363 184 363 184 412 164 c 0,25,26
 499 128 499 128 768 128 c 0,27,28
 1006 128 1006 128 1088 146 c 0,29,30
 1130 155 1130 155 1153.5 161 c 128,-1,31
 1177 167 1177 167 1205 179.5 c 128,-1,32
 1233 192 1233 192 1247 208.5 c 128,-1,33
 1261 225 1261 225 1270.5 251.5 c 128,-1,34
 1280 278 1280 278 1280 315 c 0,35,36
 1280 391 1280 391 1267 423.5 c 128,-1,37
 1254 456 1254 456 1208 475 c 0,38,39
 1181 486 1181 486 1124 496 c 0,40,41
 1020 512 1020 512 845 512 c 2,42,-1
 709 512 l 2,43,44
 506 512 506 512 384 532 c 0,45,46
 243 556 243 556 185.5 626 c 128,-1,47
 128 696 128 696 128 860 c 0,48,49
 128 1039 128 1039 288 1112 c 0,50,51
 446 1184 446 1184 832 1184 c 0,52,53
 1198 1184 1198 1184 1342 1102 c 0,54,55
 1409 1064 1409 1064 1440.5 1004 c 128,-1,56
 1472 944 1472 944 1472 848 c 1,57,-1
 1280 848 l 1,58,59
 1280 906 1280 906 1258 938.5 c 128,-1,60
 1236 971 1236 971 1188 990 c 0,61,62
 1099 1024 1099 1024 893 1024 c 0,63,64
 677 1024 677 1024 590 1020 c 0,65,66
 538 1018 538 1018 506.5 1015 c 128,-1,67
 475 1012 475 1012 435 1002.5 c 128,-1,68
 395 993 395 993 373 977.5 c 128,-1,69
 351 962 351 962 335.5 934 c 128,-1,70
 320 906 320 906 320 866 c 0,71,72
 320 788 320 788 333 750 c 128,-1,73
 346 712 346 712 392 695 c 0,74,75
 426 684 426 684 476 678 c 0,76,77
 539 672 539 672 738 672 c 0,78,79
 936 672 936 672 1038 666 c 0,80,81
 1180 658 1180 658 1274 632.5 c 128,-1,82
 1368 607 1368 607 1418 544 c 0,83,84
 1472 478 1472 478 1472 344 c 0,85,86
 1472 206 1472 206 1418 136 c 0,87,88
 1310 -6 1310 -6 832 -11 c 1,89,-1
 832 -203 l 5,0,1
EndSplineSet
Validated: 1
EndChar

StartChar: florin
Encoding: 322 402 304
Width: 1184
GlyphClass: 2
Flags: MW
LayerCount: 2
Fore
SplineSet
320 960 m 1,0,-1
 128 960 l 1,1,-1
 128 1088 l 1,2,-1
 320 1088 l 1,3,-1
 320 1152 l 2,4,5
 320 1390 320 1390 432 1480 c 0,6,7
 541 1568 541 1568 833 1568 c 2,8,-1
 960 1568 l 1,9,-1
 960 1408 l 1,10,-1
 832 1408 l 1,11,12
 777 1408 l 2,13,14
 733 1408 733 1408 705.5 1406.5 c 128,-1,15
 678 1405 678 1405 645 1399 c 128,-1,16
 612 1393 612 1393 592 1382 c 128,-1,17
 572 1371 572 1371 554.5 1350.5 c 128,-1,18
 537 1330 537 1330 528 1300 c 0,19,20
 512 1249 512 1249 512 1152 c 2,21,-1
 512 1088 l 1,22,-1
 960 1088 l 1,23,-1
 960 960 l 1,24,-1
 512 960 l 1,25,-1
 512 128 l 2,26,27
 512 -110 512 -110 400 -200 c 0,28,29
 291 -288 291 -288 -1 -288 c 1,30,-1
 0 -128 l 1,31,-1
 55 -128 l 2,32,33
 99 -128 99 -128 126.5 -126.5 c 128,-1,34
 154 -125 154 -125 187 -119 c 128,-1,35
 220 -113 220 -113 240 -102 c 128,-1,36
 260 -91 260 -91 277.5 -70.5 c 128,-1,37
 295 -50 295 -50 304 -20 c 0,38,39
 320 31 320 31 320 128 c 2,40,-1
 320 960 l 1,0,-1
EndSplineSet
Validated: 1
EndChar

StartChar: uni0202
Encoding: 364 514 346
Width: 2304
GlyphClass: 2
Flags: MW
LayerCount: 2
Fore
SplineSet
768 1690 m 1
 768 1860 768 1860 865 1935 c 0
 962 2010 962 2010 1152 2010 c 0
 1342 2010 1342 2010 1439 1936 c 0
 1536 1862 1536 1862 1536 1690 c 1
 1376 1690 l 1
 1376 1819 1376 1819 1312 1858 c 0
 1272 1882 1272 1882 1152 1882 c 0
 1032 1882 1032 1882 997 1861 c 0
 928 1819 928 1819 928 1690 c 1
 768 1690 l 1
EndSplineSet
Refer: 34 65 N 1 0 0 1 64 0 2
Validated: 1
EndChar

StartChar: uni0203
Encoding: 365 515 347
Width: 1600
GlyphClass: 2
Flags: MW
LayerCount: 2
Fore
SplineSet
450 1242 m 1
 450 1412 450 1412 547 1487 c 0
 644 1562 644 1562 834 1562 c 0
 1024 1562 1024 1562 1121 1488 c 0
 1218 1414 1218 1414 1218 1242 c 1
 1058 1242 l 1
 1058 1371 1058 1371 994 1410 c 0
 954 1434 954 1434 834 1434 c 0
 714 1434 714 1434 679 1413 c 0
 610 1371 610 1371 610 1242 c 1
 450 1242 l 1
EndSplineSet
Refer: 66 97 N 1 0 0 1 5 0 2
Validated: 1
EndChar

StartChar: uni0206
Encoding: 368 518 350
Width: 1792
GlyphClass: 2
Flags: MW
LayerCount: 2
Fore
SplineSet
512 1690 m 1
 512 1860 512 1860 609 1935 c 0
 706 2010 706 2010 896 2010 c 0
 1086 2010 1086 2010 1183 1936 c 0
 1280 1862 1280 1862 1280 1690 c 1
 1120 1690 l 1
 1120 1819 1120 1819 1056 1858 c 0
 1016 1882 1016 1882 896 1882 c 0
 776 1882 776 1882 741 1861 c 0
 672 1819 672 1819 672 1690 c 1
 512 1690 l 1
EndSplineSet
Refer: 38 69 N 1 0 0 1 -63 0 2
Validated: 1
EndChar

StartChar: uni0207
Encoding: 369 519 351
Width: 1600
GlyphClass: 2
Flags: MW
LayerCount: 2
Fore
SplineSet
448 1242 m 1
 448 1412 448 1412 545 1487 c 0
 642 1562 642 1562 832 1562 c 0
 1022 1562 1022 1562 1119 1488 c 0
 1216 1414 1216 1414 1216 1242 c 1
 1056 1242 l 1
 1056 1371 1056 1371 992 1410 c 0
 952 1434 952 1434 832 1434 c 0
 712 1434 712 1434 677 1413 c 0
 608 1371 608 1371 608 1242 c 1
 448 1242 l 1
EndSplineSet
Refer: 70 101 N 1 0 0 1 32 0 2
Validated: 1
EndChar

StartChar: uni020A
Encoding: 372 522 354
Width: 448
GlyphClass: 2
Flags: MW
LayerCount: 2
Fore
SplineSet
-159 1690 m 1
 -159 1860 -159 1860 -62 1935 c 0
 35 2010 35 2010 225 2010 c 0
 415 2010 415 2010 512 1936 c 0
 609 1862 609 1862 609 1690 c 1
 449 1690 l 1
 449 1819 449 1819 385 1858 c 0
 344 1882 344 1882 225 1882 c 0
 104 1882 104 1882 70 1861 c 0
 1 1819 1 1819 1 1690 c 1
 -159 1690 l 1
EndSplineSet
Refer: 77 108 N 1 0 0 1 -63 0 2
Validated: 1
EndChar

StartChar: uni020B
Encoding: 373 523 355
Width: 448
GlyphClass: 2
Flags: MW
LayerCount: 2
Fore
SplineSet
-159 1242 m 1
 -159 1412 -159 1412 -62 1487 c 0
 35 1562 35 1562 225 1562 c 0
 415 1562 415 1562 512 1488 c 0
 609 1414 609 1414 609 1242 c 1
 449 1242 l 1
 449 1371 449 1371 385 1410 c 0
 344 1434 344 1434 225 1434 c 0
 104 1434 104 1434 70 1413 c 0
 1 1371 1 1371 1 1242 c 1
 -159 1242 l 1
EndSplineSet
Refer: 229 305 N 1 0 0 1 0 0 2
Validated: 1
EndChar

StartChar: uni020E
Encoding: 376 526 358
Width: 2241
GlyphClass: 2
Flags: MW
LayerCount: 2
Fore
SplineSet
737 1690 m 1
 737 1860 737 1860 834 1935 c 0
 931 2010 931 2010 1121 2010 c 0
 1311 2010 1311 2010 1408 1936 c 0
 1505 1862 1505 1862 1505 1690 c 1
 1345 1690 l 1
 1345 1819 1345 1819 1281 1858 c 0
 1240 1882 1240 1882 1121 1882 c 0
 1000 1882 1000 1882 966 1861 c 0
 897 1819 897 1819 897 1690 c 1
 737 1690 l 1
EndSplineSet
Refer: 48 79 N 1 0 0 1 1 0 2
Validated: 1
EndChar

StartChar: uni020F
Encoding: 377 527 359
Width: 1664
GlyphClass: 2
Flags: MW
LayerCount: 2
Fore
SplineSet
448 1242 m 1
 448 1412 448 1412 545 1487 c 0
 642 1562 642 1562 832 1562 c 0
 1022 1562 1022 1562 1119 1488 c 0
 1216 1414 1216 1414 1216 1242 c 1
 1056 1242 l 1
 1056 1371 1056 1371 992 1410 c 0
 952 1434 952 1434 832 1434 c 0
 712 1434 712 1434 677 1413 c 0
 608 1371 608 1371 608 1242 c 1
 448 1242 l 1
EndSplineSet
Refer: 80 111 N 1 0 0 1 32 0 2
Validated: 1
EndChar

StartChar: uni0212
Encoding: 380 530 362
Width: 2048
GlyphClass: 2
Flags: MW
LayerCount: 2
Fore
SplineSet
288 1690 m 1
 288 1860 288 1860 385 1935 c 0
 482 2010 482 2010 672 2010 c 0
 862 2010 862 2010 959 1936 c 0
 1056 1862 1056 1862 1056 1690 c 1
 896 1690 l 1
 896 1819 896 1819 832 1858 c 0
 792 1882 792 1882 672 1882 c 0
 552 1882 552 1882 517 1861 c 0
 448 1819 448 1819 448 1690 c 1
 288 1690 l 1
EndSplineSet
Refer: 51 82 N 1 0 0 1 -63 0 2
Validated: 1
EndChar

StartChar: uni0213
Encoding: 381 531 363
Width: 1408
GlyphClass: 2
Flags: MW
LayerCount: 2
Fore
SplineSet
320 1242 m 1
 320 1412 320 1412 417 1487 c 0
 514 1562 514 1562 704 1562 c 0
 894 1562 894 1562 991 1488 c 0
 1088 1414 1088 1414 1088 1242 c 1
 928 1242 l 1
 928 1371 928 1371 864 1410 c 0
 824 1434 824 1434 704 1434 c 0
 584 1434 584 1434 549 1413 c 0
 480 1371 480 1371 480 1242 c 1
 320 1242 l 1
EndSplineSet
Refer: 83 114 N 1 0 0 1 0 0 2
Validated: 1
EndChar

StartChar: uni0216
Encoding: 384 534 366
Width: 2113
GlyphClass: 2
Flags: MW
LayerCount: 2
Fore
SplineSet
673 1690 m 1
 673 1860 673 1860 770 1935 c 0
 867 2010 867 2010 1057 2010 c 0
 1247 2010 1247 2010 1344 1936 c 0
 1441 1862 1441 1862 1441 1690 c 1
 1281 1690 l 1
 1281 1819 1281 1819 1217 1858 c 0
 1176 1882 1176 1882 1057 1882 c 0
 936 1882 936 1882 902 1861 c 0
 833 1819 833 1819 833 1690 c 1
 673 1690 l 1
EndSplineSet
Refer: 54 85 N 1 0 0 1 0 0 2
Validated: 1
EndChar

StartChar: uni0217
Encoding: 385 535 367
Width: 1602
GlyphClass: 2
Flags: MW
LayerCount: 2
Fore
SplineSet
416 1242 m 1
 416 1412 416 1412 513 1487 c 0
 610 1562 610 1562 800 1562 c 0
 990 1562 990 1562 1087 1488 c 0
 1184 1414 1184 1414 1184 1242 c 1
 1024 1242 l 1
 1024 1371 1024 1371 960 1410 c 0
 920 1434 920 1434 800 1434 c 0
 680 1434 680 1434 645 1413 c 0
 576 1371 576 1371 576 1242 c 1
 416 1242 l 1
EndSplineSet
Refer: 86 117 N 1 0 0 1 0 0 2
Validated: 1
EndChar

StartChar: uni0237
Encoding: 400 567 382
Width: 608
GlyphClass: 2
Flags: MW
LayerCount: 2
Fore
SplineSet
288 -64 m 2,0,-1
 288 1088 l 1,1,-1
 480 1088 l 1,2,-1
 480 -64 l 2,3,4
 480 -148 480 -148 468.5 -204 c 128,-1,5
 457 -260 457 -260 424 -298 c 0,6,7
 350 -384 350 -384 128 -384 c 1,8,-1
 128 -224 l 1,9,10
 225 -224 225 -224 256.5 -192.5 c 128,-1,11
 288 -161 288 -161 288 -64 c 2,0,-1
EndSplineSet
Validated: 1
EndChar

StartChar: circumflex
Encoding: 403 710 383
Width: 1088
GlyphClass: 2
Flags: MW
LayerCount: 2
Fore
SplineSet
832 1280 m 1,0,-1
 544 1728 l 1,1,-1
 256 1280 l 1,2,-1
 128 1376 l 1,3,-1
 448 1856 l 1,4,-1
 640 1856 l 1,5,-1
 960 1376 l 1,6,-1
 832 1280 l 1,0,-1
EndSplineSet
Validated: 1
EndChar

StartChar: caron
Encoding: 404 711 384
Width: 1088
GlyphClass: 2
Flags: MW
LayerCount: 2
Fore
SplineSet
544 1408 m 1,0,-1
 832 1856 l 1,1,-1
 960 1760 l 1,2,-1
 640 1280 l 1,3,-1
 448 1280 l 1,4,-1
 128 1760 l 1,5,-1
 256 1856 l 1,6,-1
 544 1408 l 1,0,-1
EndSplineSet
Validated: 1
EndChar

StartChar: breve
Encoding: 406 728 385
Width: 1280
GlyphClass: 2
Flags: MW
LayerCount: 2
Fore
SplineSet
256 1600 m 1,0,-1
 416 1600 l 1,1,2
 416 1471 416 1471 485 1429 c 0,3,4
 520 1408 520 1408 640 1408 c 128,-1,5
 760 1408 760 1408 800 1432 c 0,6,7
 864 1471 864 1471 864 1600 c 1,8,-1
 1024 1600 l 1,9,10
 1024 1429 1024 1429 927 1354.5 c 128,-1,11
 830 1280 830 1280 640 1280 c 128,-1,12
 450 1280 450 1280 353 1354.5 c 128,-1,13
 256 1429 256 1429 256 1600 c 1,0,-1
EndSplineSet
Validated: 1
EndChar

StartChar: dotaccent
Encoding: 407 729 386
Width: 448
GlyphClass: 2
Flags: MW
LayerCount: 2
Fore
SplineSet
320 1536 m 1,0,-1
 320 1344 l 1,1,-1
 128 1344 l 1,2,-1
 128 1536 l 1,3,-1
 320 1536 l 1,0,-1
EndSplineSet
Validated: 1
EndChar

StartChar: ring
Encoding: 408 730 387
Width: 1280
GlyphClass: 2
Flags: MW
LayerCount: 2
Fore
SplineSet
992 1600 m 256,0,1
 992 1449 992 1449 896 1364.5 c 128,-1,2
 800 1280 800 1280 640 1280 c 0,3,4
 475 1280 475 1280 381.5 1366 c 128,-1,5
 288 1452 288 1452 288 1600 c 0,6,7
 288 1751 288 1751 384 1835.5 c 128,-1,8
 480 1920 480 1920 640 1920 c 0,9,10
 805 1920 805 1920 898.5 1834 c 128,-1,11
 992 1748 992 1748 992 1600 c 256,0,1
640 1792 m 256,12,13
 531 1792 531 1792 476 1722 c 0,14,15
 448 1687 448 1687 448 1600 c 0,16,17
 448 1503 448 1503 494.5 1455.5 c 128,-1,18
 541 1408 541 1408 640 1408 c 0,19,20
 749 1408 749 1408 804 1478 c 0,21,22
 832 1513 832 1513 832 1600 c 0,23,24
 832 1697 832 1697 785.5 1744.5 c 128,-1,25
 739 1792 739 1792 640 1792 c 256,12,13
EndSplineSet
Validated: 1
EndChar

StartChar: ogonek
Encoding: 409 731 388
Width: 640
GlyphClass: 2
Flags: MW
LayerCount: 2
Fore
SplineSet
320 -224 m 0,0,1
 320 -298 320 -298 368.5 -325 c 128,-1,2
 417 -352 417 -352 512 -352 c 1,3,-1
 512 -512 l 1,4,5
 252 -512 252 -512 161 -377 c 0,6,7
 128 -328 128 -328 128 -274 c 0,8,9
 128 -190 128 -190 168 -125 c 0,10,11
 236 -17 236 -17 384 64 c 1,12,-1
 512 64 l 1,13,14
 320 -64 320 -64 320 -224 c 0,0,1
EndSplineSet
Validated: 1
EndChar

StartChar: tilde
Encoding: 410 732 389
Width: 1152
GlyphClass: 2
Flags: MW
LayerCount: 2
Fore
SplineSet
320 1344 m 1,0,-1
 128 1344 l 1,1,2
 128 1465 128 1465 199.5 1533 c 128,-1,3
 271 1601 271 1601 384 1601 c 0,4,5
 488 1601 488 1601 603 1552 c 0,6,7
 609 1549 609 1549 629.5 1540 c 128,-1,8
 650 1531 650 1531 661 1526.5 c 128,-1,9
 672 1522 672 1522 689.5 1516 c 128,-1,10
 707 1510 707 1510 723 1507 c 128,-1,11
 739 1504 739 1504 754 1504 c 0,12,13
 802 1504 802 1504 817 1522.5 c 128,-1,14
 832 1541 832 1541 832 1600 c 1,15,-1
 1024 1600 l 1,16,17
 1024 1467 1024 1467 932 1398 c 0,18,19
 860 1344 860 1344 768 1344 c 0,20,21
 663 1344 663 1344 549 1392 c 0,22,23
 543 1395 543 1395 522.5 1404 c 128,-1,24
 502 1413 502 1413 491 1417.5 c 128,-1,25
 480 1422 480 1422 462.5 1428 c 128,-1,26
 445 1434 445 1434 429 1437 c 128,-1,27
 413 1440 413 1440 398 1440 c 0,28,29
 348 1440 348 1440 334 1422 c 128,-1,30
 320 1404 320 1404 320 1344 c 1,0,-1
EndSplineSet
Validated: 1
EndChar

StartChar: hungarumlaut
Encoding: 411 733 390
Width: 1512
GlyphClass: 2
Flags: MW
LayerCount: 2
Fore
SplineSet
832 1664 m 1,0,-1
 192 1280 l 1,1,-1
 128 1376 l 1,2,-1
 704 1856 l 1,3,-1
 832 1664 l 1,0,-1
1385 1664 m 1,4,-1
 745 1280 l 1,5,-1
 681 1376 l 1,6,-1
 1257 1856 l 1,7,-1
 1385 1664 l 1,4,-1
EndSplineSet
Validated: 1
EndChar

StartChar: uni03A9
Encoding: 420 937 391
Width: 1472
GlyphClass: 2
Flags: MW
LayerCount: 2
Fore
SplineSet
1344 671 m 0,0,1
 1344 253 1344 253 1088 160 c 1,2,-1
 1280 160 l 1,3,-1
 1280 0 l 1,4,-1
 896 0 l 1,5,-1
 896 224 l 1,6,7
 959 224 959 224 1000.5 240 c 128,-1,8
 1042 256 1042 256 1072 294 c 0,9,10
 1152 395 1152 395 1152 671 c 0,11,12
 1152 925 1152 925 1116 1031 c 0,13,14
 1080 1136 1080 1136 986 1164 c 0,15,16
 925 1183 925 1183 736 1183 c 0,17,18
 550 1183 550 1183 494 1166 c 128,-1,19
 438 1149 438 1149 406.5 1118 c 128,-1,20
 375 1087 375 1087 356 1031 c 0,21,22
 320 924 320 924 320 721 c 0,23,24
 320 516 320 516 342 429 c 0,25,26
 368 323 368 323 418.5 273.5 c 128,-1,27
 469 224 469 224 576 224 c 1,28,-1
 576 0 l 1,29,-1
 192 0 l 1,30,-1
 192 160 l 1,31,-1
 384 160 l 1,32,33
 128 253 128 253 128 671 c 0,34,35
 128 1063 128 1063 255 1202 c 0,36,37
 324 1278 324 1278 444 1310 c 128,-1,38
 564 1342 564 1342 736 1342 c 0,39,40
 974 1342 974 1342 1104.5 1284 c 128,-1,41
 1235 1226 1235 1226 1291 1076 c 0,42,43
 1344 934 1344 934 1344 671 c 0,0,1
EndSplineSet
Validated: 1
EndChar

StartChar: pi
Encoding: 422 960 392
Width: 448
GlyphClass: 2
Flags: MW
LayerCount: 2
Fore
SplineSet
128 1088 m 1,0,-1
 320 1088 l 1,1,-1
 320 0 l 1,2,-1
 128 0 l 1,3,-1
 128 1088 l 1,0,-1
320 1344 m 1,4,-1
 128 1344 l 1,5,-1
 128 1536 l 1,6,-1
 320 1536 l 1,7,-1
 320 1344 l 1,4,-1
128 1088 m 1,8,-1
 128 0 l 1,9,-1
 320 0 l 1,10,-1
 320 1088 l 1,11,-1
 128 1088 l 1,8,-1
320 1344 m 1,12,-1
 320 1536 l 1,13,-1
 128 1536 l 1,14,-1
 128 1344 l 1,15,-1
 320 1344 l 1,12,-1
EndSplineSet
Validated: 5
EndChar

StartChar: endash
Encoding: 449 8211 393
Width: 1088
GlyphClass: 2
Flags: MW
LayerCount: 2
Fore
SplineSet
128 512 m 1,0,-1
 128 672 l 1,1,-1
 960 672 l 1,2,-1
 960 512 l 1,3,-1
 128 512 l 1,0,-1
EndSplineSet
Validated: 1
EndChar

StartChar: emdash
Encoding: 450 8212 394
Width: 1088
GlyphClass: 2
Flags: MW
LayerCount: 2
Fore
SplineSet
0 512 m 1,0,-1
 0 672 l 1,1,-1
 1088 672 l 1,2,-1
 1088 512 l 1,3,-1
 0 512 l 1,0,-1
EndSplineSet
Validated: 1
EndChar

StartChar: quoteleft
Encoding: 452 8216 395
Width: 512
GlyphClass: 2
Flags: MW
LayerCount: 2
Fore
SplineSet
128 1152 m 1,0,-1
 192 1536 l 1,1,-1
 384 1536 l 1,2,-1
 256 1152 l 1,3,-1
 128 1152 l 1,0,-1
EndSplineSet
Validated: 1
EndChar

StartChar: quoteright
Encoding: 453 8217 396
Width: 512
GlyphClass: 2
Flags: MW
LayerCount: 2
Fore
SplineSet
128 1152 m 1,0,-1
 192 1536 l 1,1,-1
 384 1536 l 1,2,-1
 256 1152 l 1,3,-1
 128 1152 l 1,0,-1
EndSplineSet
Validated: 1
EndChar

StartChar: quotesinglbase
Encoding: 454 8218 397
Width: 448
GlyphClass: 2
Flags: MW
LayerCount: 2
Fore
SplineSet
64 -256 m 1,0,-1
 128 128 l 1,1,-1
 320 128 l 1,2,-1
 192 -256 l 1,3,-1
 64 -256 l 1,0,-1
EndSplineSet
Validated: 1
EndChar

StartChar: quotedblleft
Encoding: 455 8220 398
Width: 768
GlyphClass: 2
Flags: MW
LayerCount: 2
Fore
SplineSet
384 1152 m 1,0,-1
 448 1536 l 1,1,-1
 640 1536 l 1,2,-1
 512 1152 l 1,3,-1
 384 1152 l 1,0,-1
128 1152 m 1,4,-1
 192 1536 l 1,5,-1
 384 1536 l 1,6,-1
 256 1152 l 1,7,-1
 128 1152 l 1,4,-1
EndSplineSet
Validated: 1
EndChar

StartChar: quotedblright
Encoding: 456 8221 399
Width: 832
GlyphClass: 2
Flags: MW
LayerCount: 2
Fore
SplineSet
128 1152 m 1,0,-1
 192 1536 l 1,1,-1
 384 1536 l 1,2,-1
 256 1152 l 1,3,-1
 128 1152 l 1,0,-1
448 1152 m 1,4,-1
 512 1536 l 1,5,-1
 704 1536 l 1,6,-1
 576 1152 l 1,7,-1
 448 1152 l 1,4,-1
EndSplineSet
Validated: 1
EndChar

StartChar: quotedblbase
Encoding: 457 8222 400
Width: 832
GlyphClass: 2
Flags: MW
LayerCount: 2
Fore
SplineSet
128 -192 m 1,0,-1
 192 192 l 1,1,-1
 384 192 l 1,2,-1
 256 -192 l 1,3,-1
 128 -192 l 1,0,-1
448 -192 m 1,4,-1
 512 192 l 1,5,-1
 704 192 l 1,6,-1
 576 -192 l 1,7,-1
 448 -192 l 1,4,-1
EndSplineSet
Validated: 1
EndChar

StartChar: dagger
Encoding: 458 8224 401
Width: 960
GlyphClass: 2
Flags: MW
LayerCount: 2
Fore
SplineSet
832 928 m 1,0,-1
 576 928 l 1,1,-1
 576 -128 l 1,2,-1
 384 -128 l 1,3,-1
 384 928 l 1,4,-1
 128 928 l 1,5,-1
 128 1088 l 1,6,-1
 384 1088 l 1,7,-1
 384 1600 l 1,8,-1
 576 1600 l 1,9,-1
 576 1088 l 1,10,-1
 832 1088 l 1,11,-1
 832 928 l 1,0,-1
EndSplineSet
Validated: 1
EndChar

StartChar: daggerdbl
Encoding: 459 8225 402
Width: 960
GlyphClass: 2
Flags: MW
LayerCount: 2
Fore
SplineSet
832 320 m 1,0,-1
 576 320 l 1,1,-1
 576 -128 l 1,2,-1
 384 -128 l 1,3,-1
 384 320 l 1,4,-1
 128 320 l 1,5,-1
 128 480 l 1,6,-1
 384 480 l 1,7,-1
 384 928 l 1,8,-1
 128 928 l 1,9,-1
 128 1088 l 1,10,-1
 384 1088 l 1,11,-1
 384 1600 l 1,12,-1
 576 1600 l 1,13,-1
 576 1088 l 1,14,-1
 832 1088 l 1,15,-1
 832 928 l 1,16,-1
 576 928 l 1,17,-1
 576 480 l 1,18,-1
 832 480 l 1,19,-1
 832 320 l 1,0,-1
EndSplineSet
Validated: 1
EndChar

StartChar: bullet
Encoding: 460 8226 403
Width: 1280
GlyphClass: 2
Flags: MW
LayerCount: 2
Fore
SplineSet
384 512 m 256,0,1
 384 768 384 768 640 768 c 128,-1,2
 896 768 896 768 896 512 c 0,3,4
 896 385 896 385 830.5 320.5 c 128,-1,5
 765 256 765 256 640 256 c 0,6,7
 384 256 384 256 384 512 c 256,0,1
EndSplineSet
Validated: 1
EndChar

StartChar: guilsinglleft
Encoding: 463 8249 406
Width: 896
GlyphClass: 2
Flags: MW
LayerCount: 2
Fore
SplineSet
256 608 m 1,0,-1
 768 256 l 1,1,-1
 672 128 l 1,2,-1
 128 512 l 1,3,-1
 128 704 l 1,4,-1
 672 1088 l 1,5,-1
 768 960 l 1,6,-1
 256 608 l 1,0,-1
EndSplineSet
Validated: 1
EndChar

StartChar: guilsinglright
Encoding: 464 8250 407
Width: 896
GlyphClass: 2
Flags: MW
LayerCount: 2
Fore
SplineSet
128 256 m 1,0,-1
 640 608 l 1,1,-1
 128 960 l 1,2,-1
 224 1088 l 1,3,-1
 768 704 l 1,4,-1
 768 512 l 1,5,-1
 224 128 l 1,6,-1
 128 256 l 1,0,-1
EndSplineSet
Validated: 1
EndChar

StartChar: fraction
Encoding: 465 8260 408
Width: 1023
GlyphClass: 2
Flags: MW
LayerCount: 2
Fore
SplineSet
64 0 m 1,0,-1
 768 1536 l 1,1,-1
 960 1536 l 1,2,-1
 256 0 l 1,3,-1
 64 0 l 1,0,-1
EndSplineSet
Validated: 1
EndChar

StartChar: uni2074
Encoding: 466 8308 409
Width: 1472
GlyphClass: 2
Flags: MW
LayerCount: 2
Fore
SplineSet
1344 192 m 1,0,-1
 1152 192 l 1,1,-1
 1152 0 l 1,2,-1
 960 0 l 1,3,-1
 960 192 l 1,4,-1
 128 192 l 1,5,-1
 128 384 l 1,6,-1
 896 1088 l 1,7,-1
 1152 1088 l 1,8,-1
 1152 352 l 1,9,-1
 1344 352 l 1,10,-1
 1344 192 l 1,0,-1
320 352 m 1,11,-1
 960 352 l 1,12,-1
 960 960 l 1,13,-1
 320 352 l 1,11,-1
EndSplineSet
Validated: 1
EndChar

StartChar: Euro
Encoding: 467 8364 410
Width: 2042
GlyphClass: 2
Flags: MW
LayerCount: 2
Fore
SplineSet
1133 0 m 1,0,-1
 816 0 l 2,1,2
 787 0 787 0 704 4 c 128,-1,3
 621 8 621 8 600 9 c 0,4,5
 467 14 467 14 380.5 49.5 c 128,-1,6
 294 85 294 85 237 165 c 0,7,8
 200 217 200 217 177 286.5 c 128,-1,9
 154 356 154 356 144 448 c 128,-1,10
 134 540 134 540 131.5 612.5 c 128,-1,11
 129 685 129 685 129 800 c 2,12,-1
 129 927 l 2,13,14
 129 1136 129 1136 166 1272 c 0,15,16
 197 1384 197 1384 282.5 1455 c 128,-1,17
 368 1526 368 1526 497 1547 c 0,18,19
 591 1563 591 1563 732 1563 c 2,20,-1
 800 1563 l 1,21,-1
 920 1563 l 2,22,23
 1056 1563 1056 1563 1133 1569 c 1,24,-1
 1264 1569 l 1,25,26
 1349 1564 1349 1564 1502 1552 c 0,27,28
 1621 1542 1621 1542 1695.5 1504.5 c 128,-1,29
 1770 1467 1770 1467 1820 1385 c 0,30,31
 1913 1235 1913 1235 1913 919 c 2,32,-1
 1913 632 l 2,33,34
 1913 550 1913 550 1899 408 c 0,35,36
 1876 199 1876 199 1776.5 108.5 c 128,-1,37
 1677 18 1677 18 1459 6 c 1,38,-1
 1133 0 l 1,0,-1
1412 169 m 0,39,40
 1609 180 1609 180 1670 266 c 0,41,42
 1721 336 1721 336 1721 504 c 2,43,-1
 1721 1071 l 2,44,45
 1721 1217 1721 1217 1658.5 1304 c 128,-1,46
 1596 1391 1596 1391 1471 1395 c 0,47,48
 1188 1409 1188 1409 1037 1409 c 2,49,-1
 981 1409 l 1,50,-1
 801 1403 l 2,51,52
 747 1401 747 1401 681 1401 c 0,53,54
 607 1401 607 1401 520 1382 c 0,55,56
 359 1346 359 1346 338 1202 c 0,57,58
 318 1048 318 1048 318 1008 c 2,59,-1
 318 664 l 2,60,61
 318 641 318 641 328 488 c 0,62,63
 341 283 341 283 439 213 c 0,64,65
 495 173 495 173 700 164 c 0,66,67
 826 158 826 158 928 158 c 2,68,-1
 1120 158 l 2,69,70
 1221 158 1221 158 1412 169 c 0,39,40
1006 1437 m 128,-1,72
 1006 1434 1006 1434 1008 1434 c 0,73,74
 1011 1434 1011 1434 1011 1437 c 128,-1,75
 1011 1440 1011 1440 1008 1440 c 0,76,71
 1006 1440 1006 1440 1006 1437 c 128,-1,72
EndSplineSet
Validated: 1
EndChar

StartChar: trademark
Encoding: 469 8482 411
Width: 2752
GlyphClass: 2
Flags: MW
LayerCount: 2
Fore
SplineSet
128 1536 m 1,0,-1
 1088 1536 l 1,1,-1
 1088 1408 l 1,2,-1
 704 1408 l 1,3,-1
 704 704 l 1,4,-1
 512 704 l 1,5,-1
 512 1408 l 1,6,-1
 128 1408 l 1,7,-1
 128 1536 l 1,0,-1
1823 704 m 1,8,-1
 1408 1408 l 1,9,-1
 1408 704 l 1,10,-1
 1216 704 l 1,11,-1
 1216 1536 l 1,12,-1
 1536 1536 l 1,13,-1
 1920 864 l 1,14,-1
 2318 1536 l 1,15,-1
 2624 1536 l 1,16,-1
 2624 704 l 1,17,-1
 2432 704 l 1,18,-1
 2432 1387 l 1,19,-1
 2017 704 l 1,20,-1
 1823 704 l 1,8,-1
EndSplineSet
Validated: 1
EndChar

StartChar: Omega
Encoding: 470 8486 412
Width: 1472
GlyphClass: 2
Flags: MW
LayerCount: 2
Fore
SplineSet
128 671 m 0,0,1
 128 934 128 934 181 1076 c 0,2,3
 237 1226 237 1226 367.5 1284 c 128,-1,4
 498 1342 498 1342 736 1342 c 0,5,6
 908 1342 908 1342 1028 1310 c 128,-1,7
 1148 1278 1148 1278 1217 1202 c 0,8,9
 1344 1063 1344 1063 1344 671 c 0,10,11
 1344 253 1344 253 1088 160 c 1,12,-1
 1280 160 l 1,13,-1
 1280 0 l 1,14,-1
 896 0 l 1,15,-1
 896 224 l 1,16,17
 1003 224 1003 224 1053.5 273.5 c 128,-1,18
 1104 323 1104 323 1130 429 c 0,19,20
 1152 516 1152 516 1152 721 c 0,21,22
 1152 924 1152 924 1116 1031 c 0,23,24
 1097 1087 1097 1087 1065.5 1118 c 128,-1,25
 1034 1149 1034 1149 978 1166 c 128,-1,26
 922 1183 922 1183 736 1183 c 0,27,28
 547 1183 547 1183 486 1164 c 0,29,30
 392 1136 392 1136 356 1031 c 0,31,32
 320 925 320 925 320 671 c 0,33,34
 320 395 320 395 400 294 c 0,35,36
 430 256 430 256 471.5 240 c 128,-1,37
 513 224 513 224 576 224 c 1,38,-1
 576 0 l 1,39,-1
 192 0 l 1,40,-1
 192 160 l 1,41,-1
 384 160 l 1,42,43
 128 253 128 253 128 671 c 0,0,1
EndSplineSet
Validated: 1
EndChar

StartChar: partialdiff
Encoding: 472 8706 413
Width: 1984
GlyphClass: 2
Flags: MW
LayerCount: 2
Fore
SplineSet
1152 928 m 2,0,1
 1505 928 1505 928 1664 832 c 1,2,3
 1664 1107 1664 1107 1624 1208 c 0,4,5
 1576 1331 1576 1331 1427 1372 c 0,6,7
 1298 1408 1298 1408 960 1408 c 0,8,9
 526 1408 526 1408 416 1322 c 0,10,11
 372 1288 372 1288 362 1248 c 128,-1,12
 352 1208 352 1208 352 1120 c 1,13,-1
 192 1120 l 1,14,15
 192 1283 192 1283 227 1348 c 0,16,17
 263 1415 263 1415 313 1452 c 128,-1,18
 363 1489 363 1489 448 1515 c 0,19,20
 624 1568 624 1568 895 1568 c 0,21,22
 1165 1568 1165 1568 1316 1548 c 0,23,24
 1518 1522 1518 1522 1637.5 1450 c 128,-1,25
 1757 1378 1757 1378 1808 1231 c 0,26,27
 1856 1093 1856 1093 1856 768 c 2,28,-1
 1856 712 l 2,29,30
 1856 576 1856 576 1852.5 497.5 c 128,-1,31
 1849 419 1849 419 1828.5 322.5 c 128,-1,32
 1808 226 1808 226 1768 164 c 0,33,34
 1726 97 1726 97 1648 54 c 0,35,36
 1494 -32 1494 -32 1152 -32 c 2,37,-1
 831 -32 l 2,38,39
 419 -32 419 -32 264 88 c 0,40,41
 191 145 191 145 159.5 231.5 c 128,-1,42
 128 318 128 318 128 448 c 128,-1,43
 128 578 128 578 159.5 664.5 c 128,-1,44
 191 751 191 751 264 808 c 0,45,46
 418 928 418 928 831 928 c 2,47,-1
 1152 928 l 2,0,1
831 768 m 2,48,49
 607 768 607 768 524 748 c 0,50,51
 452 730 452 730 415 709 c 128,-1,52
 378 688 378 688 354 644 c 0,53,54
 320 581 320 581 320 448 c 0,55,56
 320 312 320 312 346 263 c 0,57,58
 372 217 372 217 406.5 193 c 128,-1,59
 441 169 441 169 500 154 c 0,60,61
 607 128 607 128 831 128 c 2,62,-1
 1152 128 l 2,63,64
 1213 128 1213 128 1253.5 129 c 128,-1,65
 1294 130 1294 130 1345.5 134 c 128,-1,66
 1397 138 1397 138 1431.5 145.5 c 128,-1,67
 1466 153 1466 153 1504 167 c 128,-1,68
 1542 181 1542 181 1567 201 c 128,-1,69
 1592 221 1592 221 1612.5 250 c 128,-1,70
 1633 279 1633 279 1643 317 c 0,71,72
 1664 392 1664 392 1664 496 c 0,73,74
 1664 599 1664 599 1644.5 650 c 128,-1,75
 1625 701 1625 701 1566 728 c 0,76,77
 1509 754 1509 754 1409 761 c 0,78,79
 1315 768 1315 768 1152 768 c 2,80,-1
 831 768 l 2,48,49
EndSplineSet
Validated: 1
EndChar

StartChar: Delta
Encoding: 474 8710 414
Width: 1664
GlyphClass: 2
Flags: MW
LayerCount: 2
Fore
SplineSet
128 -1 m 1,0,-1
 704 1536 l 1,1,-1
 960 1536 l 1,2,-1
 1536 -1 l 1,3,-1
 128 -1 l 1,0,-1
1280 159 m 1,4,-1
 832 1408 l 1,5,-1
 384 159 l 1,6,-1
 1280 159 l 1,4,-1
EndSplineSet
Validated: 1
EndChar

StartChar: product
Encoding: 475 8719 415
Width: 1792
GlyphClass: 2
Flags: MW
LayerCount: 2
Fore
SplineSet
1664 0 m 1,0,-1
 1472 0 l 1,1,-1
 1472 1376 l 1,2,-1
 320 1376 l 1,3,-1
 320 0 l 1,4,-1
 128 0 l 1,5,-1
 128 1536 l 1,6,-1
 1664 1536 l 1,7,-1
 1664 0 l 1,0,-1
EndSplineSet
Validated: 1
EndChar

StartChar: summation
Encoding: 476 8721 416
Width: 1664
GlyphClass: 2
Flags: MW
LayerCount: 2
Fore
SplineSet
864 736 m 1,0,-1
 320 160 l 1,1,-1
 1536 160 l 1,2,-1
 1536 0 l 1,3,-1
 128 0 l 1,4,-1
 128 176 l 1,5,-1
 704 784 l 1,6,-1
 128 1360 l 1,7,-1
 128 1536 l 1,8,-1
 1536 1536 l 1,9,-1
 1536 1376 l 1,10,-1
 320 1376 l 1,11,-1
 864 832 l 1,12,-1
 864 736 l 1,0,-1
EndSplineSet
Validated: 1
EndChar

StartChar: minus
Encoding: 477 8722 417
Width: 1472
GlyphClass: 2
Flags: MW
LayerCount: 2
Fore
SplineSet
128 512 m 1,0,-1
 128 672 l 1,1,-1
 1344 672 l 1,2,-1
 1344 512 l 1,3,-1
 128 512 l 1,0,-1
EndSplineSet
Validated: 1
EndChar

StartChar: radical
Encoding: 480 8730 418
Width: 1632
GlyphClass: 2
Flags: MW
LayerCount: 2
Fore
SplineSet
128 896 m 1,0,-1
 352 896 l 1,1,-1
 768 128 l 1,2,-1
 1280 1536 l 1,3,-1
 1504 1536 l 1,4,-1
 896 0 l 1,5,-1
 640 0 l 1,6,-1
 128 896 l 1,0,-1
EndSplineSet
Validated: 1
EndChar

StartChar: infinity
Encoding: 481 8734 419
Width: 2496
GlyphClass: 2
Flags: MW
LayerCount: 2
Fore
SplineSet
128 544 m 256,0,1
 128 828 128 828 253 974 c 128,-1,2
 378 1120 378 1120 642 1120 c 0,3,4
 911 1120 911 1120 1139 844 c 0,5,6
 1206 763 1206 763 1259 687 c 1,7,8
 1556 1120 1556 1120 1854 1120 c 0,9,10
 2368 1120 2368 1120 2368 544 c 0,11,12
 2368 260 2368 260 2243 114 c 128,-1,13
 2118 -32 2118 -32 1854 -32 c 0,14,15
 1551 -32 1551 -32 1251 393 c 1,16,17
 949 -32 949 -32 642 -32 c 0,18,19
 128 -32 128 -32 128 544 c 256,0,1
320 568 m 0,20,21
 320 461 320 461 335.5 383.5 c 128,-1,22
 351 306 351 306 387 246.5 c 128,-1,23
 423 187 423 187 487.5 157.5 c 128,-1,24
 552 128 552 128 646 128 c 0,25,26
 709 128 709 128 778 164 c 0,27,28
 844 199 844 199 914 259 c 0,29,30
 1029 359 1029 359 1156 535 c 1,31,32
 1028 727 1028 727 945 806 c 0,33,34
 863 884 863 884 791 922 c 0,35,36
 720 960 720 960 661 960 c 0,37,38
 541 960 541 960 473 929.5 c 128,-1,39
 405 899 405 899 368 822 c 0,40,41
 320 724 320 724 320 568 c 0,20,21
1854 128 m 0,42,43
 2029 128 2029 128 2102.5 233.5 c 128,-1,44
 2176 339 2176 339 2176 544 c 0,45,46
 2176 807 2176 807 2075 896 c 0,47,48
 2031 934 2031 934 1979.5 947 c 128,-1,49
 1928 960 1928 960 1842 960 c 0,50,51
 1789 960 1789 960 1722 923 c 0,52,53
 1654 885 1654 885 1590 827 c 0,54,55
 1472 720 1472 720 1355 548 c 1,56,57
 1649 128 1649 128 1854 128 c 0,42,43
EndSplineSet
Validated: 1
EndChar

StartChar: integral
Encoding: 482 8747 420
Width: 1089
GlyphClass: 2
Flags: MW
LayerCount: 2
Fore
SplineSet
449 1152 m 2,0,1
 449 1390 449 1390 561 1480 c 0,2,3
 670 1568 670 1568 961 1568 c 1,4,-1
 961 1408 l 1,5,6
 906 1408 l 2,7,8
 862 1408 862 1408 834.5 1406.5 c 128,-1,9
 807 1405 807 1405 774 1399 c 128,-1,10
 741 1393 741 1393 721 1382 c 128,-1,11
 701 1371 701 1371 683.5 1350.5 c 128,-1,12
 666 1330 666 1330 657 1300 c 0,13,14
 641 1249 641 1249 641 1152 c 2,15,-1
 641 128 l 2,16,17
 641 -110 641 -110 529 -200 c 0,18,19
 420 -288 420 -288 128 -288 c 1,20,-1
 129 -128 l 1,21,-1
 184 -128 l 2,22,23
 228 -128 228 -128 255.5 -126.5 c 128,-1,24
 283 -125 283 -125 316 -119 c 128,-1,25
 349 -113 349 -113 369 -102 c 128,-1,26
 389 -91 389 -91 406.5 -70.5 c 128,-1,27
 424 -50 424 -50 433 -20 c 0,28,29
 449 31 449 31 449 128 c 2,30,-1
 449 1152 l 2,0,1
EndSplineSet
Validated: 1
EndChar

StartChar: approxequal
Encoding: 483 8776 421
Width: 1152
GlyphClass: 2
Flags: MW
LayerCount: 2
Fore
SplineSet
754 607 m 0,0,1
 804 607 804 607 818 626.5 c 128,-1,2
 832 646 832 646 832 703 c 1,3,-1
 1024 703 l 1,4,5
 1024 571 1024 571 932 502 c 0,6,7
 859 447 859 447 778 447 c 0,8,9
 738 447 738 447 703 451 c 128,-1,10
 668 455 668 455 634.5 465 c 128,-1,11
 601 475 601 475 580.5 482.5 c 128,-1,12
 560 490 560 490 522 506 c 128,-1,13
 484 522 484 522 468 528 c 0,14,15
 429 543 429 543 398 543 c 0,16,17
 348 543 348 543 334 524 c 128,-1,18
 320 505 320 505 320 447 c 1,19,-1
 128 447 l 1,20,21
 128 584 128 584 220 652 c 0,22,23
 290 703 290 703 373 703 c 0,24,25
 413 703 413 703 448 699 c 128,-1,26
 483 695 483 695 517 685 c 128,-1,27
 551 675 551 675 571 668 c 128,-1,28
 591 661 591 661 629.5 644.5 c 128,-1,29
 668 628 668 628 684 622 c 0,30,31
 723 607 723 607 754 607 c 0,0,1
754 992 m 0,32,33
 804 992 804 992 818 1011.5 c 128,-1,34
 832 1031 832 1031 832 1088 c 1,35,-1
 1024 1088 l 1,36,37
 1024 955 1024 955 932 886 c 0,38,39
 860 832 860 832 778 832 c 0,40,41
 738 832 738 832 703 836 c 128,-1,42
 668 840 668 840 634.5 850 c 128,-1,43
 601 860 601 860 580.5 867.5 c 128,-1,44
 560 875 560 875 522 891 c 128,-1,45
 484 907 484 907 468 913 c 0,46,47
 429 928 429 928 398 928 c 0,48,49
 348 928 348 928 334 909 c 128,-1,50
 320 890 320 890 320 832 c 1,51,-1
 128 832 l 1,52,53
 128 968 128 968 220 1036 c 0,54,55
 292 1088 292 1088 373 1088 c 0,56,57
 413 1088 413 1088 448 1084 c 128,-1,58
 483 1080 483 1080 517 1070 c 128,-1,59
 551 1060 551 1060 571 1053 c 128,-1,60
 591 1046 591 1046 629.5 1029.5 c 128,-1,61
 668 1013 668 1013 684 1007 c 0,62,63
 723 992 723 992 754 992 c 0,32,33
EndSplineSet
Validated: 1
EndChar

StartChar: notequal
Encoding: 484 8800 422
Width: 1472
GlyphClass: 2
Flags: MW
LayerCount: 2
Fore
SplineSet
384 -64 m 1,0,-1
 992 1472 l 1,1,-1
 1152 1408 l 1,2,-1
 544 -128 l 1,3,-1
 384 -64 l 1,0,-1
128 864 m 1,4,-1
 128 1024 l 1,5,-1
 1344 1024 l 1,6,-1
 1344 864 l 1,7,-1
 128 864 l 1,4,-1
128 320 m 1,8,-1
 128 480 l 1,9,-1
 1344 480 l 1,10,-1
 1344 320 l 1,11,-1
 128 320 l 1,8,-1
EndSplineSet
Validated: 5
EndChar

StartChar: lessequal
Encoding: 485 8804 423
Width: 1152
GlyphClass: 2
Flags: MW
LayerCount: 2
Fore
SplineSet
1024 1472 m 1,0,-1
 1024 1216 l 1,1,-1
 272 832 l 1,2,-1
 1024 448 l 1,3,-1
 1024 192 l 1,4,-1
 128 736 l 1,5,-1
 128 928 l 1,6,-1
 1024 1472 l 1,0,-1
128 128 m 1,7,-1
 1022 128 l 1,8,-1
 1022 -32 l 1,9,-1
 128 -32 l 1,10,-1
 128 128 l 1,7,-1
EndSplineSet
Validated: 1
EndChar

StartChar: greaterequal
Encoding: 486 8805 424
Width: 1152
GlyphClass: 2
Flags: MW
LayerCount: 2
Fore
SplineSet
1024 928 m 1,0,-1
 1024 736 l 1,1,-1
 128 192 l 1,2,-1
 128 448 l 1,3,-1
 880 832 l 1,4,-1
 128 1216 l 1,5,-1
 128 1472 l 1,6,-1
 1024 928 l 1,0,-1
128 128 m 1,7,-1
 1022 128 l 1,8,-1
 1022 -32 l 1,9,-1
 128 -32 l 1,10,-1
 128 128 l 1,7,-1
EndSplineSet
Validated: 1
EndChar

StartChar: lozenge
Encoding: 487 9674 425
Width: 1280
GlyphClass: 2
Flags: MW
LayerCount: 2
Fore
SplineSet
1152 768 m 1,0,-1
 704 0 l 1,1,-1
 576 0 l 1,2,-1
 128 768 l 1,3,-1
 576 1536 l 1,4,-1
 704 1536 l 1,5,-1
 1152 768 l 1,0,-1
352 768 m 1,6,-1
 640 256 l 1,7,-1
 928 768 l 1,8,-1
 640 1280 l 1,9,-1
 352 768 l 1,6,-1
EndSplineSet
Validated: 1
EndChar

StartChar: uni00AD
Encoding: 110 173 440
Width: 1024
Flags: W
LayerCount: 2
Fore
SplineSet
128 672 m 1,0,-1
 896 672 l 1,1,-1
 896 512 l 1,2,-1
 128 512 l 1,3,-1
 128 672 l 1,0,-1
EndSplineSet
Validated: 1
EndChar

StartChar: hbar
Encoding: 232 295 441
Width: 1601
Flags: W
LayerCount: 2
Fore
SplineSet
320 970 m 1,0,1
 411 1184 411 1184 896 1184 c 0,2,3
 1258 1184 1258 1184 1377 1047 c 0,4,5
 1431 984 1431 984 1452 887 c 128,-1,6
 1473 790 1473 790 1473 650 c 2,7,-1
 1472 0 l 1,8,-1
 1280 0 l 1,9,-1
 1280 650 l 2,10,11
 1280 760 1280 760 1263.5 829 c 128,-1,12
 1247 898 1247 898 1200 941 c 0,13,14
 1109 1024 1109 1024 832 1024 c 0,15,16
 411 1024 411 1024 342 841 c 0,17,18
 320 781 320 781 320 714 c 2,19,-1
 320 0 l 1,20,-1
 128 0 l 1,21,-1
 128 1536 l 1,22,-1
 320 1536 l 1,23,-1
 320 970 l 1,0,1
EndSplineSet
Validated: 1
EndChar

StartChar: Hbar
Encoding: 231 294 442
Width: 2176
Flags: W
LayerCount: 2
Fore
SplineSet
1792 1536 m 1,0,-1
 1984 1536 l 1,1,-1
 1984 0 l 1,2,-1
 1792 0 l 1,3,-1
 1792 704 l 1,4,-1
 384 704 l 1,5,-1
 384 0 l 1,6,-1
 192 0 l 1,7,-1
 192 1536 l 1,8,-1
 384 1536 l 1,9,-1
 384 864 l 1,10,-1
 1792 864 l 1,11,-1
 1792 1536 l 1,0,-1
EndSplineSet
Validated: 1
EndChar

